<?xml version="1.0" standalone="no"?>
<!DOCTYPE svg PUBLIC "-//W3C//DTD SVG 1.1//EN" "http://www.w3.org/Graphics/SVG/1.1/DTD/svg11.dtd" >
<svg xmlns="http://www.w3.org/2000/svg" xmlns:xlink="http://www.w3.org/1999/xlink" version="1.1">
<metadata>
Created by FontForge 20200427 at Wed Aug  5 15:29:01 2020
 By www
Copyright (c) 2019 ParaType Inc., ParaType Ltd. All rights reserved.
</metadata>
<defs>
<font id="SBSansDisplay-Semibold" horiz-adv-x="620" >
  <font-face 
    font-family="SB Sans Display Semibold"
    font-weight="600"
    font-stretch="normal"
    units-per-em="1000"
    panose-1="2 11 7 3 4 5 4 2 2 4"
    ascent="800"
    descent="-200"
    x-height="500"
    cap-height="700"
    bbox="-313 -307 1269 929"
    underline-thickness="50"
    underline-position="-100"
    unicode-range="U+000D-FEFF"
  />
<missing-glyph horiz-adv-x="364" 
d="M33 0v666h265v-666h-265zM66 33h199v600h-199v-600z" />
    <glyph glyph-name="f_f" unicode="ff" horiz-adv-x="714" 
d="M101 500v61q0 52 14 89t38.5 60t58 34t72.5 11q35 0 60.5 -8.5t41.5 -17.5v-126q-14 21 -36 33.5t-54 12.5t-55 -19t-23 -69v-61h209v61q0 52 14 89t38.5 60t58 34t72.5 11q35 0 60.5 -8.5t41.5 -17.5v-126q-14 21 -36 33.5t-54 12.5t-55 -19t-23 -69v-61h151v-103h-151
v-397h-117v397h-209v-397h-117v397h-75v103h75z" />
    <glyph glyph-name="uniFB01" unicode="fi" horiz-adv-x="641" 
d="M101 500v61q0 52 14 89t38.5 60t58 34t72.5 11q35 0 60.5 -8.5t41.5 -17.5v-126q-14 21 -36 33.5t-54 12.5t-55 -19t-23 -69v-61h151v-103h-151v-397h-117v397h-75v103h75zM442 500h117v-500h-117v500zM431 694q0 29 19 47t51 18q31 0 49.5 -18t18.5 -47q0 -30 -18.5 -48
t-49.5 -18q-32 0 -51 18t-19 48z" />
    <glyph glyph-name="uniFB02" unicode="fl" horiz-adv-x="698" 
d="M101 500v61q0 52 14 89t38.5 60t58 34t72.5 11q35 0 60.5 -8.5t41.5 -17.5v-126q-14 21 -36 33.5t-54 12.5t-55 -19t-23 -69v-61h151v-103h-151v-397h-117v397h-75v103h75zM683 8q-12 -7 -41 -12.5t-61 -5.5q-68 0 -107 30t-39 100v630h117v-593q0 -37 13 -49t45 -12
q23 0 42 4t31 9v-101z" />
    <glyph glyph-name="f_f_i" unicode="ffi" horiz-adv-x="974" 
d="M101 500v61q0 52 14 89t38.5 60t58 34t72.5 11q35 0 60.5 -8.5t41.5 -17.5v-126q-14 21 -36 33.5t-54 12.5t-55 -19t-23 -69v-61h209v61q0 52 14 89t38.5 60t58 34t72.5 11q35 0 60.5 -8.5t41.5 -17.5v-126q-14 21 -36 33.5t-54 12.5t-55 -19t-23 -69v-61h151v-103h-151
v-397h-117v397h-209v-397h-117v397h-75v103h75zM775 500h117v-500h-117v500zM765 694q0 29 18.5 47t50.5 18t50.5 -18t18.5 -47q0 -30 -18.5 -48t-50.5 -18t-50.5 18t-18.5 48z" />
    <glyph glyph-name="f_f_l" unicode="ffl" horiz-adv-x="1024" 
d="M101 500v61q0 52 14 89t38.5 60t58 34t72.5 11q35 0 60.5 -8.5t41.5 -17.5v-126q-14 21 -36 33.5t-54 12.5t-55 -19t-23 -69v-61h209v61q0 52 14 89t38.5 60t58 34t72.5 11q35 0 60.5 -8.5t41.5 -17.5v-126q-14 21 -36 33.5t-54 12.5t-55 -19t-23 -69v-61h151v-103h-151
v-397h-117v397h-209v-397h-117v397h-75v103h75zM1009 8q-12 -7 -41 -12.5t-61 -5.5q-68 0 -107 30t-39 100v630h117v-593q0 -37 13 -49t45 -12q23 0 42 4t31 9v-101z" />
    <glyph glyph-name=".notdef" horiz-adv-x="364" 
d="M33 0v666h265v-666h-265zM66 33h199v600h-199v-600z" />
    <glyph glyph-name="uni0000" horiz-adv-x="0" 
 />
    <glyph glyph-name="uni0000" horiz-adv-x="0" 
 />
    <glyph glyph-name="uni000D" unicode="&#xd;" horiz-adv-x="260" 
 />
    <glyph glyph-name="space" unicode=" " horiz-adv-x="260" 
 />
    <glyph glyph-name="exclam" unicode="!" horiz-adv-x="358" 
d="M262 230h-125v470h125v-470zM121 67q0 32 16.5 54.5t61.5 22.5q46 0 62.5 -22.5t16.5 -54.5t-16.5 -54.5t-62.5 -22.5q-45 0 -61.5 22.5t-16.5 54.5z" />
    <glyph glyph-name="quotedbl" unicode="&#x22;" horiz-adv-x="554" 
d="M318 700h108v-283h-108v283zM118 700h108v-283h-108v283z" />
    <glyph glyph-name="numbersign" unicode="#" horiz-adv-x="719" 
d="M156 281l47 136h-123l36 103h123l63 180h111l-63 -180h138l63 180h111l-63 -180h104l-36 -103h-104l-47 -136h123l-36 -104h-124l-65 -187h-111l65 187h-138l-65 -187h-111l65 187h-103l36 104h104zM267 281h138l47 136h-138z" />
    <glyph glyph-name="dollar" unicode="$" 
d="M536 487q-35 48 -87.5 78.5t-125.5 28.5q-66 -1 -90 -19t-24 -54q0 -27 14.5 -45t38.5 -30.5t55 -22.5t63 -21t63 -26.5t55 -39t38.5 -57.5t14.5 -83q0 -85 -46.5 -135t-140.5 -64v-107h-106v104q-67 6 -111.5 27.5t-63.5 39.5v155q36 -48 89.5 -77t126.5 -28
q67 1 95.5 20.5t28.5 62.5q0 39 -25 61t-62 37t-81 28.5t-81 36t-62 59.5t-25 99q0 78 41.5 127.5t130.5 63.5v94h106v-91q33 -3 60.5 -10.5t49 -17.5t37 -20t24.5 -19v-155v0z" />
    <glyph glyph-name="percent" unicode="%" horiz-adv-x="891" 
d="M63 545q0 81 48.5 122t132.5 41q73 0 119 -39.5t46 -123.5q0 -39 -13.5 -70t-37 -52t-56.5 -32t-72 -11q-75 0 -121 43.5t-46 121.5zM159 545q0 -35 21 -54.5t59 -19.5q33 0 54 19.5t21 54.5q0 34 -18 53t-59 19q-38 0 -58 -19t-20 -53zM484 157q0 81 48 122t132 41
q73 0 119 -42.5t46 -120.5q0 -82 -49 -123.5t-130 -41.5q-78 0 -122 45t-44 120zM579 157q0 -35 21 -54.5t59 -19.5q36 0 56 18.5t20 55.5q0 31 -18.5 51.5t-59.5 20.5t-59.5 -19t-18.5 -53zM254 0h-118l507 700h115z" />
    <glyph glyph-name="ampersand" unicode="&#x26;" horiz-adv-x="856" 
d="M548 211q42 62 62 143t20 166h119q0 -100 -26 -195t-77 -171q32 -15 62.5 -26t60.5 -16v-127q-50 11 -100 32.5t-100 50.5q-48 -41 -106.5 -63.5t-130.5 -22.5q-66 0 -116.5 17.5t-84 48t-51 72.5t-17.5 91q0 46 13 81t35 60.5t50.5 43.5t58.5 32q-32 69 -32 128
q0 39 13 68t36 48.5t55 29t70 9.5q34 0 64 -8.5t52.5 -26t35 -43t12.5 -58.5q0 -42 -14.5 -71t-38 -49t-54 -34t-61.5 -26q35 -50 84 -97.5t106 -86.5zM262 353q-33 -19 -54.5 -47.5t-21.5 -75.5q0 -27 9.5 -51t28.5 -42t48.5 -28.5t70.5 -10.5q38 0 69.5 9.5t58.5 26.5
q-63 49 -116.5 105t-92.5 114zM414 556q0 23 -12.5 36t-38.5 13q-33 0 -48 -15.5t-15 -44.5q0 -38 18 -78q41 17 68.5 36.5t27.5 52.5z" />
    <glyph glyph-name="quotesingle" unicode="'" horiz-adv-x="344" 
d="M118 700h108v-283h-108v283z" />
    <glyph glyph-name="parenleft" unicode="(" horiz-adv-x="328" 
d="M313 714q-16 -16 -41 -52.5t-49 -92t-41 -128.5t-17 -162t17 -162t41 -128.5t49 -92t41 -52.5l-52 -42q-27 18 -64 60t-70 103.5t-56.5 140.5t-23.5 172t23.5 172.5t56.5 141t70 104t64 60.5l52 -42v0z" />
    <glyph glyph-name="parenright" unicode=")" horiz-adv-x="328" 
d="M164 280q0 89 -17.5 162t-41 128t-48.5 91.5t-41 52.5l52 42q27 -18 63.5 -60t70 -103.5t57 -140.5t23.5 -172t-23.5 -172t-56.5 -140.5t-70 -104t-64 -60.5l-52 42q16 16 41 52.5t49 92t41 128.5t17 162z" />
    <glyph glyph-name="asterisk" unicode="*" horiz-adv-x="544" 
d="M306 551l131 83l46 -140l-155 -9l120 -99l-119 -87l-57 145l-57 -145l-119 87l120 98l-155 10l46 140l130 -84l-39 150h148z" />
    <glyph glyph-name="plus" unicode="+" 
d="M257 292h-157v106h157v157h106v-157h157v-106h-157v-157h-106v157z" />
    <glyph glyph-name="comma" unicode="," horiz-adv-x="346" 
d="M52 -102q52 10 83.5 36.5t36.5 55.5h-2q-45 0 -61.5 22.5t-16.5 54.5t16.5 54.5t61.5 22.5q31 0 49 -12q17 -11 28.5 -35.5t11.5 -62.5q0 -45 -15.5 -80t-39 -59.5t-50.5 -39.5t-50 -19l-52 62v0z" />
    <glyph glyph-name="hyphen" unicode="-" horiz-adv-x="427" 
d="M79 349h268v-108h-268v108z" />
    <glyph glyph-name="period" unicode="." horiz-adv-x="337" 
d="M90 67q0 32 16.5 54.5t61.5 22.5q46 0 62.5 -22.5t16.5 -54.5t-16.5 -54.5t-62.5 -22.5q-45 0 -61.5 22.5t-16.5 54.5z" />
    <glyph glyph-name="slash" unicode="/" horiz-adv-x="318" 
d="M228 750h110l-248 -943h-110z" />
    <glyph glyph-name="zero" unicode="0" 
d="M41 349q0 97 21 165.5t57.5 111t85 62.5t103.5 20q62 0 112 -22t85.5 -66.5t54.5 -112t19 -158.5q0 -98 -21.5 -166.5t-58 -111t-85 -62t-103.5 -19.5q-62 0 -112 22t-85 66.5t-54 112t-19 158.5zM161 349q0 -67 10.5 -113t30 -74.5t47 -41.5t62.5 -13q36 0 63.5 12.5
t46.5 41t28.5 75t9.5 113.5t-10.5 112.5t-30 74t-47.5 41.5t-62 14q-36 0 -63.5 -12.5t-46.5 -41t-28.5 -75t-9.5 -113.5z" />
    <glyph glyph-name="one" unicode="1" horiz-adv-x="433" 
d="M203 561l-150 -93v123l180 116h87v-707h-117v561z" />
    <glyph glyph-name="two" unicode="2" horiz-adv-x="586" 
d="M51 0v86q109 93 175 155.5t101.5 106.5t47 74t11.5 57q0 52 -32 80t-89 28q-60 1 -108.5 -20t-83.5 -61v133q13 13 33.5 25.5t47.5 22.5t59.5 16t69.5 6q111 -1 168.5 -56t57.5 -148q0 -43 -12.5 -83t-40.5 -82t-73.5 -88t-111.5 -102l-41 -35h298v-115h-477z" />
    <glyph glyph-name="three" unicode="3" horiz-adv-x="586" 
d="M72 639q26 26 81 48t134 22q109 -1 166 -48t57 -130q0 -63 -32.5 -104.5t-86.5 -61.5q70 -13 107.5 -54t37.5 -113q0 -44 -16 -81t-48 -64.5t-80 -43.5t-112 -17q-40 0 -74.5 7t-61.5 17.5t-46.5 23t-30.5 23.5v133q33 -38 87.5 -62t123.5 -23q70 1 106 27.5t36 72.5
q0 50 -34 74.5t-115 24.5h-79v90h58q69 0 106 23t37 74q0 48 -30.5 70.5t-92.5 22.5q-128 -3 -198 -84v133v0z" />
    <glyph glyph-name="four" unicode="4" 
d="M361 700h133v-417h92v-109h-92v-174h-116v174h-351v92zM378 283v278l-219 -278h219z" />
    <glyph glyph-name="five" unicode="5" horiz-adv-x="560" 
d="M62 183q32 -33 83.5 -53t113.5 -19q70 0 102 33t32 84q0 57 -42.5 85t-118.5 28q-46 0 -84.5 -7t-66.5 -17l24 383h375v-115h-274l-10 -150q16 4 40 6.5t44 2.5q58 0 102 -16t74 -44.5t45 -68t15 -87.5q0 -57 -19 -101t-53 -74t-80.5 -45.5t-100.5 -15.5q-38 0 -69.5 6
t-57 15.5t-44.5 21t-30 21.5v127v0z" />
    <glyph glyph-name="six" unicode="6" 
d="M532 504q-16 19 -37 35.5t-46 28.5t-54 18t-61 4q-78 -5 -125 -60t-49 -161v-21t2 -19q19 57 68.5 92t121.5 35q52 0 94 -17t71 -47t44.5 -70.5t15.5 -87.5q0 -58 -20.5 -103t-55.5 -76t-80.5 -47t-95.5 -16q-62 0 -113 22t-87.5 65t-56.5 106.5t-20 146.5q0 97 21 167
t59 115.5t89.5 68t113.5 25.5q38 1 70 -5.5t57.5 -17.5t44 -24t29.5 -24v-133zM323 350q-63 0 -103 -35.5t-45 -96.5q16 -51 51 -80.5t95 -29.5q64 0 100 35t36 88q0 52 -34 85.5t-100 33.5z" />
    <glyph glyph-name="seven" unicode="7" horiz-adv-x="530" 
d="M33 700h464v-89l-243 -611h-127l232 571h-326v129z" />
    <glyph glyph-name="eight" unicode="8" 
d="M311 -9q-61 0 -110.5 14.5t-84 41.5t-53 66t-18.5 88q0 26 6 52.5t20 49.5t38.5 41.5t60.5 29.5q-20 5 -39 17t-33.5 31t-23 44.5t-8.5 57.5q0 86 61.5 136.5t182.5 50.5q120 0 178 -49t58 -131q0 -55 -25.5 -97t-76.5 -59q66 -15 98.5 -58.5t32.5 -112.5q0 -47 -17 -86
t-50 -67.5t-82.5 -44t-114.5 -15.5zM312 110q74 0 108.5 26.5t34.5 80.5q0 56 -37.5 79.5t-106.5 23.5q-144 0 -144 -101q0 -29 10.5 -50t29.5 -34t46 -19t59 -6zM309 415q64 0 92 24.5t28 66.5q0 44 -27 65t-93 21t-96 -22.5t-30 -65.5q0 -36 30 -62.5t96 -26.5z" />
    <glyph glyph-name="nine" unicode="9" 
d="M87 196q16 -19 37 -35.5t46.5 -28.5t54.5 -18t61 -4q78 5 125 61t49 162q0 20 -3 38q-18 -57 -68 -92t-122 -35q-53 0 -94.5 17t-70 47t-44 70.5t-15.5 87.5q0 58 20.5 103t55 76t80.5 47t96 16q62 0 113 -22t87 -65t56 -106.5t20 -146.5q0 -97 -21 -167t-59 -115.5
t-90 -68t-113 -25.5q-38 -1 -70 5.5t-57.5 17.5t-44.5 24t-29 24v133zM297 350q62 0 102 35.5t45 95.5q-15 51 -50 81t-95 30q-64 0 -100.5 -34.5t-36.5 -88.5q0 -52 34.5 -85.5t100.5 -33.5z" />
    <glyph glyph-name="colon" unicode=":" horiz-adv-x="337" 
d="M90 67q0 32 16.5 54.5t61.5 22.5q46 0 62.5 -22.5t16.5 -54.5t-16.5 -54.5t-62.5 -22.5q-45 0 -61.5 22.5t-16.5 54.5zM90 448q0 32 16.5 54.5t61.5 22.5q46 0 62.5 -22.5t16.5 -54.5t-16.5 -54.5t-62.5 -22.5q-45 0 -61.5 22.5t-16.5 54.5z" />
    <glyph glyph-name="semicolon" unicode=";" horiz-adv-x="346" 
d="M52 -102q52 10 83.5 36.5t36.5 55.5h-2q-45 0 -61.5 22.5t-16.5 54.5t16.5 54.5t61.5 22.5q31 0 49 -12q17 -11 28.5 -35.5t11.5 -62.5q0 -45 -15.5 -80t-39 -59.5t-50.5 -39.5t-50 -19zM88 448q0 32 16.5 54.5t61.5 22.5q46 0 62.5 -22.5t16.5 -54.5t-16.5 -54.5
t-62.5 -22.5q-45 0 -61.5 22.5t-16.5 54.5z" />
    <glyph glyph-name="less" unicode="&#x3c;" 
d="M504 615v-127l-236 -141l236 -141v-126l-430 267z" />
    <glyph glyph-name="equal" unicode="=" 
d="M520 298v-106h-420v106h420zM520 508v-106h-420v106h420z" />
    <glyph glyph-name="greater" unicode="&#x3e;" 
d="M116 79v127l236 141l-236 141v126l430 -267z" />
    <glyph glyph-name="question" unicode="?" horiz-adv-x="545" 
d="M56 633q13 14 33 27.5t47 24t60.5 16.5t72.5 6q51 -1 91.5 -12t69 -33.5t44 -57.5t15.5 -84q0 -47 -15 -79.5t-38 -55.5t-49 -40t-49 -33.5t-38 -35.5t-15 -46h-106q0 42 13.5 70.5t34 49t44.5 36.5t44.5 32.5t34 36.5t13.5 49q0 40 -27 61.5t-84 22.5q-65 0 -112 -28
t-84 -75v148zM155 67q0 32 16.5 54.5t61.5 22.5q46 0 62.5 -22.5t16.5 -54.5t-16.5 -54.5t-62.5 -22.5q-45 0 -61.5 22.5t-16.5 54.5z" />
    <glyph glyph-name="at" unicode="@" horiz-adv-x="960" 
d="M585 501h94v-302q1 -22 10.5 -35t35.5 -13q15 0 29 6t24.5 21t17.5 40.5t7 64.5q0 77 -22 138t-64 103t-102 64.5t-135 22.5q-74 0 -133.5 -22t-101.5 -64t-64.5 -102t-22.5 -136t21.5 -136.5t62 -102.5t98.5 -65t132 -24q59 -1 113 21t86 60v-124q-31 -19 -84 -33
t-115 -13q-97 1 -173.5 31.5t-129.5 85t-81 130.5t-28 169q1 92 30 168.5t83.5 131t132 84.5t174.5 30q98 0 176 -30t132 -84.5t83 -131.5t29 -170q0 -53 -13.5 -94t-38 -69.5t-58 -43.5t-73.5 -15q-56 0 -92 20.5t-41 70.5q-7 -17 -19 -33.5t-30 -29.5t-43 -20.5t-57 -7.5
q-40 0 -73.5 12t-58 38t-38 65.5t-13.5 95.5q0 63 13.5 107t39 72t60.5 40.5t79 12.5q55 0 90.5 -26t50.5 -59v81zM579 297q0 58 -30.5 89t-82.5 31q-60 0 -87.5 -32t-27.5 -107q0 -71 31 -99.5t82 -28.5q60 0 87.5 31.5t27.5 88.5v27z" />
    <glyph glyph-name="A" unicode="A" horiz-adv-x="729" 
d="M721 0h-133l-67 166h-321l-66 -166h-127l284 700h142zM475 281l-115 287l-115 -287h230z" />
    <glyph glyph-name="B" unicode="B" horiz-adv-x="703" 
d="M91 0v700h304q236 0 236 -174q0 -60 -25 -100t-79 -61q65 -11 95 -51.5t30 -109.5q0 -54 -19 -93t-54.5 -63.5t-86 -36t-114.5 -11.5h-287zM386 115q72 0 106 23.5t34 74.5t-36 72t-102 21h-172v-191h170zM377 404q60 0 94.5 25t34.5 70q0 42 -29.5 64t-96.5 22h-164
v-181h161z" />
    <glyph glyph-name="C" unicode="C" horiz-adv-x="707" 
d="M669 77q-13 -16 -36.5 -31.5t-55.5 -28t-71.5 -20.5t-84.5 -8q-86 0 -156 25t-119.5 71.5t-77 113.5t-27.5 152q0 79 27 145t77 114t120.5 74.5t157.5 26.5q83 0 142 -20.5t90 -42.5v-174q-16 23 -39.5 45t-53 39t-65 27.5t-74.5 10.5q-57 0 -103 -18t-78 -50t-49 -77.5
t-17 -100.5q0 -51 15.5 -95.5t46 -77.5t76.5 -52.5t106 -20.5q46 0 84.5 10t70 27t55.5 40t39 50v-154z" />
    <glyph glyph-name="D" unicode="D" horiz-adv-x="758" 
d="M332 700q195 0 290 -87t95 -249q0 -96 -28.5 -165t-80 -113t-123 -65t-156.5 -21h-238v700h241zM329 115q131 0 194 61t63 176q0 117 -61.5 175t-194.5 58h-114v-470h113z" />
    <glyph glyph-name="E" unicode="E" horiz-adv-x="644" 
d="M538 303h-322v-188h370v-115h-495v700h484v-115h-359v-167h322v-115z" />
    <glyph glyph-name="F" unicode="F" horiz-adv-x="622" 
d="M558 273h-342v-273h-125v700h483v-115h-358v-197h342v-115z" />
    <glyph glyph-name="G" unicode="G" horiz-adv-x="752" 
d="M420 -11q-86 1 -155.5 25.5t-119.5 71t-77 113.5t-27 152q0 79 27 145t76.5 113.5t119.5 74.5t157 27q83 0 142 -20.5t90 -42.5v-174q-16 23 -39.5 45t-53 39t-65 27.5t-74.5 10.5q-57 0 -102.5 -18t-77 -50.5t-48.5 -77.5t-17 -100q0 -51 16 -96t47 -78t77.5 -52.5
t107.5 -19.5q47 0 82 9t61 25v130h-142v115h258v-294q-12 -18 -38.5 -36t-62.5 -32t-78 -23t-84 -9z" />
    <glyph glyph-name="H" unicode="H" horiz-adv-x="815" 
d="M599 303h-383v-303h-125v700h125v-282h383v282h125v-700h-125v303z" />
    <glyph glyph-name="I" unicode="I" horiz-adv-x="308" 
d="M216 0h-125v700h125v-700z" />
    <glyph glyph-name="J" unicode="J" horiz-adv-x="461" 
d="M370 199q0 -103 -55.5 -153.5t-152.5 -50.5q-23 0 -45 3.5t-41 9.5t-34 13.5t-24 15.5v142q22 -29 55.5 -49t71.5 -20q49 0 74.5 23.5t25.5 75.5v491h125v-501z" />
    <glyph glyph-name="K" unicode="K" horiz-adv-x="749" 
d="M216 0h-125v700h125v-294h105l225 294h152l-267 -333l310 -367h-160l-254 303h-111v-303z" />
    <glyph glyph-name="L" unicode="L" horiz-adv-x="614" 
d="M216 115h380v-115h-505v700h125v-585z" />
    <glyph glyph-name="M" unicode="M" horiz-adv-x="950" 
d="M734 526l-225 -372h-63l-230 367v-521h-125v700h158l232 -381l230 381h148v-700h-125v526z" />
    <glyph glyph-name="N" unicode="N" horiz-adv-x="825" 
d="M216 507v-507h-125v700h139l379 -507v507h125v-700h-140z" />
    <glyph glyph-name="O" unicode="O" horiz-adv-x="831" 
d="M41 351q0 79 26.5 145t75.5 114t118 74.5t155 26.5q84 0 153.5 -25t118.5 -71.5t76 -113.5t27 -152q0 -79 -26.5 -145t-75.5 -114t-118.5 -74.5t-154.5 -26.5q-84 0 -153.5 24.5t-118.5 71t-76 114t-27 152.5zM173 350q0 -51 15.5 -96t46.5 -78t76.5 -52.5t105.5 -19.5
q56 0 100.5 18t76 50t48.5 77.5t17 100.5q0 51 -15.5 96t-46.5 78t-76.5 52.5t-105.5 19.5q-56 0 -101 -18t-76.5 -50.5t-48 -77.5t-16.5 -100z" />
    <glyph glyph-name="P" unicode="P" horiz-adv-x="686" 
d="M216 218v-218h-125v700h233q166 0 240.5 -59.5t74.5 -177.5q0 -123 -80 -184t-235 -61h-108zM216 585v-252h117q88 0 132 30.5t44 102.5q0 65 -41 92t-133 27h-119z" />
    <glyph glyph-name="Q" unicode="Q" horiz-adv-x="831" 
d="M555 -180l-139 169q-85 0 -154 25t-118 71.5t-76 113.5t-27 152q0 79 26.5 145t75 113.5t117.5 74.5t155 27q85 0 154 -24.5t118.5 -71t76.5 -114t27 -152.5q0 -62 -16.5 -116t-47 -98t-75 -76t-99.5 -50l160 -189h-158zM173 350q0 -51 15.5 -96t46 -78t76 -52.5
t105.5 -19.5q56 0 101 18t76.5 50t48.5 77.5t17 100.5q0 51 -15.5 95.5t-46.5 77.5t-76 52.5t-105 20.5q-56 0 -101 -18t-76.5 -50t-48.5 -77.5t-17 -100.5z" />
    <glyph glyph-name="R" unicode="R" horiz-adv-x="704" 
d="M374 221q-30 -3 -62 -3h-96v-218h-125v700h221q166 0 240.5 -59.5t74.5 -177.5q0 -156 -132 -214l179 -249h-150zM216 585v-252h105q88 0 132 30.5t44 102.5q0 65 -41 92t-133 27h-107z" />
    <glyph glyph-name="S" unicode="S" horiz-adv-x="647" 
d="M558 475q-15 23 -38.5 45t-53 39t-64 27t-73.5 10q-74 -1 -106.5 -22t-32.5 -57q0 -27 17.5 -44t45.5 -28t64 -19.5t74 -18.5t74 -24.5t64 -37.5t45.5 -58t17.5 -86q0 -44 -16 -83t-50 -67.5t-85.5 -45t-121.5 -16.5q-46 0 -86.5 8t-73.5 20.5t-57.5 28t-38.5 31.5v154
q16 -27 41 -50t57.5 -40t72.5 -27t86 -10q74 0 109 24t35 67q0 37 -29.5 55.5t-74.5 30.5t-96.5 24t-96.5 35t-74.5 63.5t-29.5 110.5q0 94 70 145.5t196 51.5q81 -1 140 -20.5t89 -42.5v-173v0z" />
    <glyph glyph-name="T" unicode="T" horiz-adv-x="621" 
d="M607 585h-236v-585h-125v585h-232v115h593v-115z" />
    <glyph glyph-name="U" unicode="U" horiz-adv-x="769" 
d="M211 286q0 -48 13.5 -82.5t37.5 -57t57 -33t72 -10.5q79 0 122.5 40t43.5 131v426h125v-413q0 -77 -20.5 -133.5t-59 -93.5t-93 -54.5t-123.5 -17.5q-77 0 -133 20.5t-93.5 58.5t-55.5 91.5t-18 120.5v421h125v-414z" />
    <glyph glyph-name="V" unicode="V" horiz-adv-x="710" 
d="M295 0l-288 700h134l218 -546l217 546h127l-284 -700h-124z" />
    <glyph glyph-name="W" unicode="W" horiz-adv-x="973" 
d="M13 700h129l132 -524l158 524h122l157 -521l127 521h123l-173 -700h-137l-160 515l-164 -515h-138z" />
    <glyph glyph-name="X" unicode="X" horiz-adv-x="702" 
d="M258 356l-237 344h150l179 -265l190 265h145l-250 -337l259 -363h-149l-199 282l-192 -282h-146z" />
    <glyph glyph-name="Y" unicode="Y" horiz-adv-x="667" 
d="M395 258v-258h-125v265l-265 435h146l188 -315l181 315h142z" />
    <glyph glyph-name="Z" unicode="Z" horiz-adv-x="633" 
d="M40 700h556l2 -95l-408 -490h405v-115h-562l-3 95l411 490h-401v115z" />
    <glyph glyph-name="bracketleft" unicode="[" horiz-adv-x="370" 
d="M71 750h259v-109h-152v-725h152v-109h-259v943z" />
    <glyph glyph-name="backslash" unicode="\" horiz-adv-x="318" 
d="M338 -193h-110l-248 943h110z" />
    <glyph glyph-name="bracketright" unicode="]" horiz-adv-x="370" 
d="M299 -193h-259v109h153v725h-153v109h259v-943z" />
    <glyph glyph-name="asciicircum" unicode="^" 
d="M47 351l182 349h162l182 -349h-120l-143 278l-142 -278h-121z" />
    <glyph glyph-name="underscore" unicode="_" horiz-adv-x="260" 
d="M0 -74h260v-106h-260v106z" />
    <glyph glyph-name="grave" unicode="`" horiz-adv-x="264" 
d="M31 750h166l80 -169h-88z" />
    <glyph glyph-name="a" unicode="a" horiz-adv-x="544" 
d="M83 465q25 19 69.5 32t109.5 13q110 0 164 -41t54 -139v-330h-110v90q-18 -44 -61.5 -71t-103.5 -27q-76 0 -118.5 40.5t-42.5 114.5q0 43 15 71t42 44.5t65 23.5t84 7h113v22q0 53 -25.5 73t-75.5 20q-69 0 -111 -24.5t-68 -64.5v146zM242 97q30 0 51.5 7.5t36.5 19
t23 25.5t10 27v41h-99q-52 0 -77 -12t-25 -46q0 -29 20.5 -45.5t59.5 -16.5z" />
    <glyph glyph-name="b" unicode="b" horiz-adv-x="609" 
d="M187 750v-334q9 18 23 35t35 30t48.5 21t62.5 8q48 0 87.5 -14.5t68 -44.5t44.5 -77t16 -113q0 -74 -16 -125.5t-45.5 -84t-71.5 -47.5t-93 -15q-66 0 -107.5 30t-58.5 70v-89h-109v750h116zM187 233q0 -68 36 -104.5t97 -36.5q71 0 103 37.5t32 126.5q0 41 -9.5 69.5
t-27 46.5t-41.5 26t-54 8q-70 0 -102 -36t-34 -99v-38z" />
    <glyph glyph-name="c" unicode="c" horiz-adv-x="505" 
d="M469 50q-17 -21 -61 -41t-105 -20q-60 0 -109 16.5t-84 49.5t-54 82t-19 115q0 64 19.5 112.5t54.5 81t84 49t109 16.5q51 -1 93 -14t67 -32v-146q-26 40 -65.5 64.5t-94.5 25.5q-72 0 -110 -38t-38 -114v-15q0 -78 39.5 -114.5t110.5 -36.5q63 0 103.5 23t59.5 56v-120
v0z" />
    <glyph glyph-name="d" unicode="d" horiz-adv-x="610" 
d="M538 750v-750h-109v100q-7 -21 -21 -40.5t-35.5 -35.5t-51 -25.5t-68.5 -9.5q-48 0 -87.5 14.5t-68 44.5t-44.5 77t-16 113q0 74 16 125.5t45.5 84t71.5 47.5t93 15q60 0 99.5 -25.5t59.5 -60.5v326h116zM289 407q-71 0 -103 -37.5t-32 -126.5q0 -41 9.5 -69.5t27 -46.5
t42 -26t54.5 -8q64 0 97 31t38 87v74q-5 59 -40.5 90.5t-92.5 31.5z" />
    <glyph glyph-name="e" unicode="e" horiz-adv-x="561" 
d="M484 50q-9 -11 -26 -21.5t-41 -19.5t-53.5 -14t-63.5 -5q-125 -1 -194 65.5t-69 196.5q0 62 18.5 110.5t52.5 81.5t80.5 50t103.5 17q109 -1 170.5 -65t61.5 -182v-48h-371q14 -125 151 -125q69 0 114.5 23t65.5 56v-120zM289 409q-57 0 -91 -28t-43 -82h252
q-2 51 -33 80.5t-85 29.5z" />
    <glyph glyph-name="f" unicode="f" horiz-adv-x="388" 
d="M101 500v61q0 52 14 89t38.5 60t58 34t72.5 11q35 0 60.5 -8.5t41.5 -17.5v-126q-14 21 -36 33.5t-54 12.5t-55 -19t-23 -69v-61h151v-103h-151v-397h-117v397h-75v103h75z" />
    <glyph glyph-name="g" unicode="g" horiz-adv-x="610" 
d="M422 83q-9 -18 -23.5 -35t-35 -30t-48 -21t-62.5 -8q-48 0 -87.5 14.5t-68 44.5t-44.5 77t-16 113q0 74 16 125.5t45.5 84t71.5 47.5t93 15q65 0 106.5 -29.5t58.5 -68.5v88h110v-450q0 -70 -17.5 -117.5t-50.5 -77t-80 -42.5t-105 -13q-70 0 -123 17.5t-74 36.5v130
q11 -15 29 -29.5t41.5 -26t53 -18.5t63.5 -7q37 0 64.5 7t46 23t27.5 42t9 64v44zM289 407q-71 0 -103 -37.5t-32 -126.5q0 -41 9.5 -69.5t27 -46.5t42 -26t54.5 -8q64 0 97 31t38 87v74q-5 59 -40.5 90.5t-92.5 31.5z" />
    <glyph glyph-name="h" unicode="h" horiz-adv-x="598" 
d="M417 302q0 54 -23 79t-75 26h-3q-128 0 -128 -129v-278h-117v750h117v-352q11 46 56.5 78.5t117.5 32.5q81 -1 126.5 -44t45.5 -131v-334h-117v302z" />
    <glyph glyph-name="i" unicode="i" horiz-adv-x="275" 
d="M68 694q0 29 19 47t51 18q31 0 49.5 -18t18.5 -47q0 -30 -18.5 -48t-49.5 -18q-32 0 -51 18t-19 48zM79 500h117v-500h-117v500z" />
    <glyph glyph-name="j" unicode="j" horiz-adv-x="274" 
d="M78 500h117v-522q0 -86 -38.5 -131t-127.5 -45q-26 0 -47 6t-35 14v114q27 -29 71 -29q30 0 45 17t15 56v520zM67 694q0 29 19 47t51 18q31 0 49.5 -18t18.5 -47q0 -30 -18.5 -48t-49.5 -18q-32 0 -51 18t-19 48z" />
    <glyph glyph-name="k" unicode="k" horiz-adv-x="555" 
d="M188 750v-445h55l140 195h130l-175 -236l203 -264h-142l-157 207h-54v-207h-117v750h117z" />
    <glyph glyph-name="l" unicode="l" horiz-adv-x="334" 
d="M319 8q-12 -7 -41 -12.5t-61 -5.5q-68 0 -107 30t-39 100v630h117v-593q0 -37 13 -49t45 -12q23 0 42 4t31 9v-101z" />
    <glyph glyph-name="m" unicode="m" horiz-adv-x="880" 
d="M385 302q0 55 -20.5 80t-68.5 25q-110 -1 -108 -129v-278h-117v500h110v-102q13 46 52.5 78.5t100.5 32.5q65 0 106 -27.5t55 -83.5q14 47 53.5 79t100.5 32q81 0 124 -43.5t43 -131.5v-334h-117v302q0 55 -20 80t-69 25q-53 0 -79.5 -30t-28.5 -87v-290h-117v302z" />
    <glyph glyph-name="n" unicode="n" horiz-adv-x="598" 
d="M417 303q0 54 -23 78.5t-75 25.5h-3q-128 0 -128 -129v-278h-117v501h110v-102q16 46 62.5 78.5t118.5 32.5q81 -1 126.5 -44.5t45.5 -131.5v-334h-117v303z" />
    <glyph glyph-name="o" unicode="o" horiz-adv-x="591" 
d="M294 -11q-59 0 -106 16.5t-81 49.5t-52 82t-18 115q0 65 19 113.5t53 81t82 48.5t107 16q58 0 105.5 -17t81 -50t51.5 -82t18 -114t-19 -113.5t-53 -80.5t-82 -48.5t-106 -16.5zM156 249q0 -83 37 -120.5t103 -37.5q67 0 103 38.5t36 118.5v3q0 83 -37.5 120.5
t-103.5 37.5q-67 -1 -102.5 -39.5t-35.5 -117.5v-3z" />
    <glyph glyph-name="p" unicode="p" horiz-adv-x="609" 
d="M71 500h110v-104q7 21 20.5 41.5t35 36.5t51.5 26t70 10q48 0 87.5 -14.5t68 -44.5t44.5 -77t16 -113q0 -74 -16 -125.5t-45.5 -84t-71.5 -47.5t-93 -15q-60 0 -100.5 26t-59.5 61v-269h-117v693zM188 233q0 -68 36 -104.5t98 -36.5q71 0 103 37.5t32 126.5
q0 82 -36.5 116t-96.5 34q-69 0 -101.5 -36t-34.5 -99v-38z" />
    <glyph glyph-name="q" unicode="q" horiz-adv-x="610" 
d="M422 83q-9 -18 -23.5 -35t-35.5 -30t-48.5 -21t-62.5 -8q-47 0 -87 14.5t-68.5 44.5t-44.5 77t-16 113q0 74 16 125.5t46 84t71.5 47.5t92.5 15q33 0 60 -8.5t48 -22.5t35.5 -32t22.5 -38v91h110v-693h-116v276zM289 407q-72 0 -104 -37.5t-32 -126.5q0 -41 9.5 -69.5
t27 -46.5t42 -26t54.5 -8q69 0 101.5 35.5t34.5 98.5v45q-2 66 -37.5 100.5t-95.5 34.5z" />
    <glyph glyph-name="r" unicode="r" horiz-adv-x="393" 
d="M311 509q15 0 31 -4.5t23 -9.5v-122q-12 14 -34.5 24t-52.5 10q-95 0 -90 -129v-278h-117v500h110v-102q4 22 15.5 42.5t28 35.5t38.5 24t48 9z" />
    <glyph glyph-name="s" unicode="s" horiz-adv-x="473" 
d="M415 319q-26 40 -65.5 64.5t-94.5 25.5h-2q-40 0 -62.5 -12t-22.5 -36q0 -19 19.5 -30.5t49 -20.5t63.5 -18.5t63.5 -27t49 -45.5t19.5 -72q0 -75 -51 -116t-145 -42q-33 0 -62.5 6t-54 14.5t-42.5 19t-27 21.5v121q22 -34 69 -58t117 -22q41 1 60 15t19 37
q0 20 -19.5 31.5t-49 21t-63.5 20t-63.5 28t-49 45.5t-19.5 72q0 66 50.5 108t153.5 42q51 -1 93 -14t67 -32v-146v0z" />
    <glyph glyph-name="t" unicode="t" horiz-adv-x="445" 
d="M228 670v-170h179v-103h-179v-217q0 -50 16.5 -68.5t58.5 -18.5q32 0 61.5 9t51.5 23v-101q-8 -7 -23 -13t-33 -10.5t-38 -7.5t-39 -3q-85 0 -128.5 35.5t-43.5 120.5v251h-91v103h91v86z" />
    <glyph glyph-name="u" unicode="u" horiz-adv-x="592" 
d="M181 198q0 -54 23 -79t75 -26q126 0 125 129v278h117v-500h-110v102q-15 -46 -60.5 -78.5t-115.5 -32.5h-2q-80 2 -124 44.5t-44 130.5v334h116v-302z" />
    <glyph glyph-name="v" unicode="v" horiz-adv-x="528" 
d="M8 500h126l134 -345l132 345h120l-205 -500h-103z" />
    <glyph glyph-name="w" unicode="w" horiz-adv-x="792" 
d="M21 500h121l84 -353l122 353h104l124 -348l82 348h113l-127 -500h-127l-118 347l-126 -347h-127z" />
    <glyph glyph-name="x" unicode="x" horiz-adv-x="528" 
d="M180 256l-158 244h137l107 -169l107 169h132l-160 -237l172 -263h-137l-119 189l-119 -189h-132z" />
    <glyph glyph-name="y" unicode="y" horiz-adv-x="520" 
d="M10 500h131l137 -343l112 343h124l-200 -553q-17 -45 -34 -73.5t-35.5 -45t-39.5 -22.5t-46 -6q-23 0 -46 6t-34 16v109q11 -11 27 -18t33 -7q27 0 47.5 20.5t34.5 71.5z" />
    <glyph glyph-name="z" unicode="z" horiz-adv-x="502" 
d="M37 0v96l290 301h-277v103h414v-96l-292 -301h293v-103h-428z" />
    <glyph glyph-name="braceleft" unicode="{" horiz-adv-x="436" 
d="M40 330q19 0 36.5 5.5t31 17.5t21.5 31t8 46v160q0 85 44 122.5t129 37.5h86v-106h-82q-38 0 -54.5 -17.5t-16.5 -53.5v-144q0 -62 -26.5 -99.5t-93.5 -51.5q67 -15 93.5 -52.5t26.5 -98.5v-143q0 -37 16.5 -54t54.5 -17h82v-106h-86q-85 0 -129 37.5t-44 122.5v159
q0 27 -8 46t-21.5 31.5t-31 18t-36.5 5.5v103z" />
    <glyph glyph-name="bar" unicode="|" horiz-adv-x="280" 
d="M87 750h106v-943h-106v943z" />
    <glyph glyph-name="braceright" unicode="}" horiz-adv-x="436" 
d="M396 227q-19 0 -36.5 -5.5t-31 -18t-21.5 -31.5t-8 -46v-159q0 -85 -44 -122.5t-129 -37.5h-86v106h82q38 0 54.5 17t16.5 54v143q0 61 26.5 98.5t93.5 52.5q-67 14 -93.5 51.5t-26.5 99.5v144q0 36 -16.5 53.5t-54.5 17.5h-82v106h86q85 0 129 -37.5t44 -122.5v-160
q0 -27 8 -46t21.5 -31t31 -17.5t36.5 -5.5v-103z" />
    <glyph glyph-name="asciitilde" unicode="~" 
d="M100 384q23 20 52 30t59 10q33 0 61.5 -13.5t55.5 -29.5t53.5 -29.5t54.5 -13.5q20 0 44 11t40 36v-115q-20 -19 -45.5 -28.5t-52.5 -9.5q-34 0 -63.5 13.5t-56.5 29.5t-52 29.5t-50 13.5q-29 0 -52 -11t-48 -32v109z" />
    <glyph glyph-name="uni00A0" unicode="&#xa0;" horiz-adv-x="260" 
 />
    <glyph glyph-name="exclamdown" unicode="&#xa1;" horiz-adv-x="345" 
d="M124.032 270.028h124.984v-469.942h-124.984v469.942zM265.015 433.008q0 -31.9961 -16.498 -54.4932t-61.4922 -22.4971q-45.9941 0 -62.4922 22.4971t-16.498 54.4932t16.498 54.4941q16.498 22.4971 62.4922 22.4971q44.9941 0 61.4922 -22.4971
q16.498 -22.498 16.498 -54.4941z" />
    <glyph glyph-name="cent" unicode="&#xa2;" horiz-adv-x="525" 
d="M479 50q-14 -18 -48.5 -35.5t-82.5 -23.5v-101h-106v106q-91 17 -143 80.5t-52 175.5q0 109 52.5 172t143.5 80v106h106v-101q39 -5 72 -17t53 -27v-146q-26 40 -65.5 64.5t-94.5 25.5q-72 0 -110 -38t-38 -114v-15q0 -78 39.5 -114.5t110.5 -36.5q63 0 103.5 23t59.5 56
v-120v0z" />
    <glyph glyph-name="sterling" unicode="&#xa3;" 
d="M144 398v76q0 60 16 104.5t46 73.5t72 43.5t93 14.5t93 -13t67 -32v-146q-26 40 -65.5 64.5t-94.5 24.5q-54 0 -82.5 -31t-28.5 -92v-87h240v-106h-240v-177h280v-115h-461v115h65v177h-64v106h64z" />
    <glyph glyph-name="currency" unicode="&#xa4;" 
d="M132 365q0 51 19 85l-82 83l75 75l91 -92q34 12 78 12q40 0 72 -12l91 91l74 -75l-87 -87q15 -33 15 -80q0 -23 -4 -42t-11 -35l88 -88l-75 -74l-90 89q-38 -15 -87 -15q-41 0 -71 10l-89 -89l-75 75l84 84q-16 33 -16 85zM228 365q0 -35 21 -54.5t59 -19.5
q36 0 55.5 18.5t19.5 55.5q0 34 -18 53t-59 19t-59.5 -19t-18.5 -53z" />
    <glyph glyph-name="yen" unicode="&#xa5;" 
d="M188 370l-193 330h140l180 -315l175 315h136l-193 -330h87v-107h-146v-66h146v-106h-146v-91h-125v91h-149v106h149v66h-149v107h88z" />
    <glyph glyph-name="brokenbar" unicode="&#xa6;" horiz-adv-x="299" 
d="M91 187h117v-380h-117v380zM91 750h117v-380h-117v380z" />
    <glyph glyph-name="section" unicode="&#xa7;" horiz-adv-x="536" 
d="M439 518q-26 40 -65.5 64.5t-94.5 25.5q-39 0 -61 -12t-22 -36q0 -20 19.5 -31t49 -20t63.5 -18.5t63.5 -27t49 -45.5t19.5 -72q0 -76 -52 -117q22 -17 35.5 -42.5t13.5 -61.5q0 -66 -49.5 -107.5t-152.5 -42.5q-51 1 -93 14t-67 32v146q26 -40 65.5 -64.5t94.5 -25.5
q41 0 63.5 12t22.5 36q0 19 -19.5 30.5t-49 20.5t-63.5 18.5t-63.5 27t-49 45t-19.5 72.5q0 76 52 117q-23 17 -36.5 42t-13.5 62q0 66 49.5 107t150.5 43q51 -1 93 -14t67 -32v-146zM194 357q0 -17 9.5 -29t25.5 -21t36.5 -16t43.5 -15q17 11 25.5 26.5t8.5 29.5
q0 16 -9.5 27.5t-26 20t-37.5 15.5t-43 15q-33 -20 -33 -53z" />
    <glyph glyph-name="dieresis" unicode="&#xa8;" horiz-adv-x="435" 
d="M257 690q0 29 18.5 46.5t50.5 17.5t50.5 -17.5t18.5 -46.5q0 -30 -18.5 -48.5t-50.5 -18.5t-50.5 18.5t-18.5 48.5zM40 690q0 29 18.5 46.5t50.5 17.5t50.5 -17.5t18.5 -46.5q0 -30 -18.5 -48.5t-50.5 -18.5t-50.5 18.5t-18.5 48.5z" />
    <glyph glyph-name="copyright" unicode="&#xa9;" horiz-adv-x="959" 
d="M60 287q1 92 30 168t83.5 130t131.5 84.5t174 30.5q99 0 177 -30t132 -85t82.5 -131.5t28.5 -170.5q-1 -92 -30.5 -168t-83.5 -130.5t-131.5 -84.5t-174.5 -30q-98 0 -176 30t-132 84.5t-82.5 131t-28.5 170.5v1zM802 284q0 77 -22.5 137.5t-64.5 102.5t-101.5 64.5
t-134.5 22.5q-74 0 -133 -22.5t-101 -64t-64.5 -101.5t-22.5 -136q0 -77 22 -138t63.5 -103t101.5 -64.5t135 -22.5q74 0 133.5 22.5t101 64.5t64.5 102t23 136zM645 114q-15 -18 -55 -35t-96 -17q-54 0 -98.5 14t-76 42.5t-49 70.5t-17.5 99q0 55 17.5 97t49.5 69.5
t76.5 42t98.5 14.5q46 -1 84 -12.5t61 -27.5v-126q-23 35 -58.5 56.5t-86.5 21.5q-66 0 -100 -32t-34 -98v-14q0 -66 36 -97.5t100 -31.5q57 0 94 19.5t54 48.5v-104z" />
    <glyph glyph-name="ordfeminine" unicode="&#xaa;" horiz-adv-x="438" 
d="M83 632q17 9 54.5 20.5t82.5 11.5q35 0 63.5 -5t48 -18.5t30 -37t10.5 -60.5v-193h-79v53q-14 -26 -44.5 -42t-72.5 -16q-54 0 -83.5 26.5t-29.5 71.5q0 52 39.5 70.5t106.5 18.5h81v1q0 27 -19 38t-61 12q-34 0 -68.5 -14t-58.5 -37v100zM201 422q48 0 67 15t22 31v13
h-79q-58 0 -58 -31q0 -14 12.5 -21t35.5 -7z" />
    <glyph glyph-name="guillemotleft" unicode="&#xab;" horiz-adv-x="505" 
d="M455 11l-222 239l222 239v-131l-96 -108l96 -109v-130zM258 11l-222 239l222 239v-131l-97 -108l97 -109v-130z" />
    <glyph glyph-name="logicalnot" unicode="&#xac;" 
d="M403 292h-303v106h420v-238h-117v132z" />
    <glyph glyph-name="uni00AD" unicode="&#xad;" horiz-adv-x="427" 
d="M79 349h268v-108h-268v108z" />
    <glyph glyph-name="registered" unicode="&#xae;" horiz-adv-x="623" 
d="M311 708q59 0 106 -18t79.5 -51t49.5 -79t17 -102q-1 -55 -18.5 -100.5t-49.5 -78.5t-78.5 -51t-104.5 -18q-59 0 -106 18t-79.5 51t-49.5 79.5t-17 102.5q0 55 17.5 100t50 77.5t79 51t104.5 18.5zM119 461q0 -94 51 -145.5t142 -51.5q89 0 140.5 51.5t51.5 143.5
q0 93 -50.5 143.5t-141.5 51.5q-90 0 -141.5 -51t-51.5 -142zM203 593h99q67 0 97.5 -23t31.5 -72q0 -54 -52 -74l67 -96h-74l-59 88h-43v-88h-67v265zM364 496q0 24 -14.5 33t-49.5 9h-30v-74h43q49 0 51 32z" />
    <glyph glyph-name="macron" unicode="&#xaf;" horiz-adv-x="389" 
d="M40 709h309v-94h-309v94z" />
    <glyph glyph-name="degree" unicode="&#xb0;" horiz-adv-x="477" 
d="M66 545q0 81 48 122t132 41q73 0 119 -39.5t46 -123.5q0 -83 -49 -124t-130 -41q-78 0 -122 41t-44 124zM161 545q0 -35 21 -54.5t59 -19.5q36 0 55.5 18.5t19.5 55.5q0 34 -18 53t-59 19t-59.5 -19t-18.5 -53z" />
    <glyph glyph-name="plusminus" unicode="&#xb1;" 
d="M253 342h-153v106h153v150h106v-150h161v-106h-161v-80h-106v80zM520 223v-106h-420v106h420z" />
    <glyph glyph-name="uni00B2" unicode="&#xb2;" horiz-adv-x="404" 
d="M358 450h-298v60q94 53 142.5 88.5t48.5 73.5q0 20 -14.5 34t-43.5 16q-33 2 -68 -12.5t-59 -37.5v100q8 4 22 10t32 11t39 8t44 3q72 -1 108 -31.5t36 -84.5q0 -19 -5.5 -37t-19.5 -37t-37.5 -40t-59.5 -46h133v-78z" />
    <glyph glyph-name="uni00B3" unicode="&#xb3;" horiz-adv-x="399" 
d="M63 772q17 9 54.5 20.5t82.5 11.5q69 -1 102.5 -26.5t33.5 -65.5q0 -29 -16.5 -49t-46.5 -30q45 -7 65 -28t20 -52q0 -49 -41 -77.5t-122 -29.5q-51 1 -86 12.5t-49 22.5v99q15 -20 50.5 -35.5t82.5 -14.5q38 0 54 9t16 25q0 12 -13 20t-51 8h-66v72h50q59 0 59 28
q0 14 -11 21t-41 8q-33 1 -68 -12.5t-59 -36.5v100v0z" />
    <glyph glyph-name="acute" unicode="&#xb4;" horiz-adv-x="326" 
d="M40 581l80 169h166l-158 -169h-88z" />
    <glyph glyph-name="uni03BC" unicode="&#xb5;" 
d="M199 198q0 -54 21.5 -78.5t72.5 -26.5h3q126 0 125 129v278h117v-500h-110v102q-15 -46 -60 -78t-114 -33q-30 0 -55 6v-190h-117v693h117v-302z" />
    <glyph glyph-name="uni03BC" unicode="&#x3bc;" 
d="M199 198q0 -54 21.5 -78.5t72.5 -26.5h3q126 0 125 129v278h117v-500h-110v102q-15 -46 -60 -78t-114 -33q-30 0 -55 6v-190h-117v693h117v-302z" />
    <glyph glyph-name="paragraph" unicode="&#xb6;" horiz-adv-x="694" 
d="M496 647h-112v-840h-106v443q-53 1 -97 14.5t-76 43.5t-50 77t-18 115q0 64 18 111t50.5 78t77.5 46t98 15h321v-943h-106v840zM153 505q0 -44 9 -72.5t25.5 -46t39.5 -25t51 -8.5v294q-58 -2 -91.5 -35t-33.5 -107z" />
    <glyph glyph-name="periodcentered" unicode="&#xb7;" horiz-adv-x="260" 
d="M52 367q0 32 16.5 54.5t61.5 22.5q46 0 62.5 -22.5t16.5 -54.5t-16.5 -54.5t-62.5 -22.5q-45 0 -61.5 22.5t-16.5 54.5z" />
    <glyph glyph-name="cedilla" unicode="&#xb8;" horiz-adv-x="301" 
d="M152 -58q52 -8 80.5 -30t28.5 -60q0 -32 -18.5 -55.5t-49.5 -38.5t-70.5 -22.5t-82.5 -7.5v51q18 0 36.5 4t33.5 11.5t24.5 18.5t9.5 26q0 24 -22 34.5t-64 12.5l45 114h77z" />
    <glyph glyph-name="uni00B9" unicode="&#xb9;" horiz-adv-x="291" 
d="M128 707l-90 -53v85l114 65h68v-354h-92v257z" />
    <glyph glyph-name="ordmasculine" unicode="&#xba;" horiz-adv-x="452" 
d="M53 505q0 81 48.5 122t132.5 41q73 0 119 -39.5t46 -123.5q0 -83 -49 -124t-130 -41q-78 0 -122.5 41t-44.5 124zM149 505q0 -35 21 -54.5t59 -19.5q36 0 55.5 18.5t19.5 55.5q0 34 -18 53t-59 19t-59.5 -19t-18.5 -53z" />
    <glyph glyph-name="guillemotright" unicode="&#xbb;" horiz-adv-x="505" 
d="M50 489l222 -239l-222 -239v131l97 108l-97 109v130zM248 489l222 -239l-222 -239v131l96 108l-96 109v130z" />
    <glyph glyph-name="onequarter" unicode="&#xbc;" horiz-adv-x="773" 
d="M169 0h-118l507 700h115zM143 607l-90 -53v85l114 65h68v-354h-92v257zM654 351v-194h59v-78h-59v-78h-92v78h-187v69l185 203h94zM562 157v97l-88 -97h88z" />
    <glyph glyph-name="onehalf" unicode="&#xbd;" horiz-adv-x="809" 
d="M169 0h-118l507 700h115zM143 607l-90 -53v85l114 65h68v-354h-92v257zM754 1h-298v60q94 53 142.5 88.5t48.5 73.5q0 20 -14.5 34t-43.5 16q-33 2 -68 -12.5t-59 -37.5v100q8 4 22 10t32 11t39 8t44 3q72 -1 108 -31.5t36 -84.5q0 -19 -5.5 -37t-19.5 -37t-37.5 -40
t-59.5 -46h133v-78z" />
    <glyph glyph-name="threequarters" unicode="&#xbe;" horiz-adv-x="828" 
d="M224 0h-118l507 700h115zM63 672q17 9 54.5 20.5t82.5 11.5q69 -1 102.5 -26.5t33.5 -65.5q0 -29 -16.5 -49t-46.5 -30q45 -7 65 -28t20 -52q0 -49 -41 -77.5t-122 -29.5q-51 1 -86 12.5t-49 22.5v99q15 -20 50.5 -35.5t82.5 -14.5q38 0 54 9t16 25q0 12 -13 20t-51 8
h-66v72h50q59 0 59 28q0 14 -11 21t-41 8q-33 1 -68 -12.5t-59 -36.5v100v0zM709 351v-194h59v-78h-59v-78h-92v78h-187v69l185 203h94zM617 157v97l-88 -97h88z" />
    <glyph glyph-name="questiondown" unicode="&#xbf;" horiz-adv-x="536" 
d="M480.007 -132.923q-12.998 -13.998 -32.9961 -27.4961q-19.9971 -13.499 -46.9941 -23.9971q-26.9971 -10.499 -60.4922 -16.498q-33.4961 -6 -72.4912 -6q-50.9941 1 -91.4893 11.999t-68.9912 33.4961q-28.4971 22.4971 -43.9951 57.4932
q-15.498 34.9951 -15.498 83.9893q0 46.9941 14.998 79.4902t37.9951 55.4932q22.998 22.9971 48.9941 39.9951q25.9971 16.998 48.9941 33.4961t37.9961 35.4951q14.998 18.998 14.998 45.9951h105.986q0 -41.9951 -13.498 -70.4912q-13.498 -28.4971 -33.9961 -48.9941
q-20.4971 -20.498 -44.4941 -36.4961t-44.4951 -32.4961q-20.4971 -16.498 -33.9951 -36.4951q-13.499 -19.998 -13.499 -48.9941q0 -39.9951 26.9971 -61.4922q26.9971 -21.498 83.9902 -22.4971q64.9912 0 111.986 27.9961q46.9941 27.9961 83.9893 74.9912v-147.982z
M381.019 433.008q0 -31.9961 -16.498 -54.4932q-16.4971 -22.4971 -61.4922 -22.4971q-45.9941 0 -62.4922 22.4971t-16.498 54.4932t16.498 54.4941q16.498 22.4971 62.4922 22.4971q44.9951 0 61.4922 -22.4971q16.498 -22.498 16.498 -54.4941z" />
    <glyph glyph-name="Agrave" unicode="&#xc0;" horiz-adv-x="729" 
d="M721 0h-133l-67 166h-321l-66 -166h-127l284 700h142zM475 281l-115 287l-115 -287h230zM117 869h176l120 -125h-103z" />
    <glyph glyph-name="Aacute" unicode="&#xc1;" horiz-adv-x="729" 
d="M721 0h-133l-67 166h-321l-66 -166h-127l284 700h142zM475 281l-115 287l-115 -287h230zM317 744l120 125h176l-193 -125h-103z" />
    <glyph glyph-name="Acircumflex" unicode="&#xc2;" horiz-adv-x="729" 
d="M721 0h-133l-67 166h-321l-66 -166h-127l284 700h142zM475 281l-115 287l-115 -287h230zM560 744h-78l-117 48l-115 -48h-78l137 125h114z" />
    <glyph glyph-name="Atilde" unicode="&#xc3;" horiz-adv-x="729" 
d="M721 0h-133l-67 166h-321l-66 -166h-127l284 700h142zM475 281l-115 287l-115 -287h230zM555 869q-9 -37 -21 -62t-27.5 -40t-35 -21t-43.5 -6q-22 0 -41.5 6t-37.5 12.5t-34 12.5t-31 6q-35 0 -51 -37h-58q10 38 25 63t31.5 39.5t34 20t34.5 5.5q18 0 36.5 -6t36 -12.5
t34 -12.5t30.5 -6q20 0 37 7.5t27 30.5h54v0z" />
    <glyph glyph-name="Adieresis" unicode="&#xc4;" horiz-adv-x="729" 
d="M721 0h-133l-67 166h-321l-66 -166h-127l284 700h142zM475 281l-115 287l-115 -287h230zM405 807q0 28 18.5 44.5t50.5 16.5t50.5 -16.5t18.5 -44.5q0 -29 -18.5 -46.5t-50.5 -17.5t-50.5 17.5t-18.5 46.5zM188 807q0 28 18.5 44.5t50.5 16.5t50.5 -16.5t18.5 -44.5
q0 -29 -18.5 -46.5t-50.5 -17.5t-50.5 17.5t-18.5 46.5z" />
    <glyph glyph-name="Aring" unicode="&#xc5;" horiz-adv-x="729" 
d="M232 784q0 45 37 70t97 25t96.5 -25t36.5 -70q0 -30 -17.5 -51.5t-48.5 -32.5l288 -700h-133l-67 166h-321l-66 -166h-127l286 701q-61 23 -61 83zM313 784q0 -14 11.5 -22t41.5 -8q29 0 40.5 8t11.5 22t-11.5 22.5t-40.5 8.5q-30 0 -41.5 -8.5t-11.5 -22.5zM475 281
l-115 287l-115 -287h230z" />
    <glyph glyph-name="AE" unicode="&#xc6;" horiz-adv-x="1022" 
d="M917 303h-302v-188h350v-115h-475v170h-259l-97 -170h-127l408 700h539v-115h-339v-167h302v-115zM297 285h193v300h-20z" />
    <glyph glyph-name="Ccedilla" unicode="&#xc7;" horiz-adv-x="707" 
d="M669 77q-12 -14 -32.5 -28.5t-47.5 -26.5t-61 -20t-73 -11l-23 -49q52 -8 80.5 -30t28.5 -60q0 -32 -18.5 -55.5t-49.5 -38.5t-70.5 -22.5t-82.5 -7.5v51q18 0 36.5 4t33.5 11.5t24.5 18.5t9.5 26q0 24 -22 34.5t-64 12.5l41 105q-77 6 -139 33t-106.5 73.5t-68.5 110
t-24 143.5q0 79 27 145t77 114t120.5 74.5t157.5 26.5q83 0 142 -20.5t90 -42.5v-174q-16 23 -39.5 45t-53 39t-65 27.5t-74.5 10.5q-57 0 -103 -18t-78 -50t-49 -77.5t-17 -100.5q0 -51 15.5 -95.5t46 -77.5t76.5 -52.5t106 -20.5q46 0 84.5 10t70 27t55.5 40t39 50v-154z
" />
    <glyph glyph-name="Egrave" unicode="&#xc8;" horiz-adv-x="644" 
d="M538 303h-322v-188h370v-115h-495v700h484v-115h-359v-167h322v-115zM100 869h176l120 -125h-103z" />
    <glyph glyph-name="Eacute" unicode="&#xc9;" horiz-adv-x="644" 
d="M538 303h-322v-188h370v-115h-495v700h484v-115h-359v-167h322v-115zM300 744l120 125h176l-193 -125h-103z" />
    <glyph glyph-name="Ecircumflex" unicode="&#xca;" horiz-adv-x="644" 
d="M538 303h-322v-188h370v-115h-495v700h484v-115h-359v-167h322v-115zM543 744h-78l-117 48l-115 -48h-78l137 125h114z" />
    <glyph glyph-name="Edieresis" unicode="&#xcb;" horiz-adv-x="644" 
d="M538 303h-322v-188h370v-115h-495v700h484v-115h-359v-167h322v-115zM388 807q0 28 18.5 44.5t50.5 16.5t50.5 -16.5t18.5 -44.5q0 -29 -18.5 -46.5t-50.5 -17.5t-50.5 17.5t-18.5 46.5zM171 807q0 28 18.5 44.5t50.5 16.5t50.5 -16.5t18.5 -44.5q0 -29 -18.5 -46.5
t-50.5 -17.5t-50.5 17.5t-18.5 46.5z" />
    <glyph glyph-name="Igrave" unicode="&#xcc;" horiz-adv-x="308" 
d="M216 0h-125v700h125v-700zM-93 869h176l120 -125h-103z" />
    <glyph glyph-name="Iacute" unicode="&#xcd;" horiz-adv-x="308" 
d="M216 0h-125v700h125v-700zM106 744l120 125h176l-193 -125h-103z" />
    <glyph glyph-name="Icircumflex" unicode="&#xce;" horiz-adv-x="308" 
d="M216 0h-125v700h125v-700zM349 744h-78l-117 48l-115 -48h-78l137 125h114z" />
    <glyph glyph-name="Idieresis" unicode="&#xcf;" horiz-adv-x="308" 
d="M216 0h-125v700h125v-700zM194 807q0 28 18.5 44.5t50.5 16.5t50.5 -16.5t18.5 -44.5q0 -29 -18.5 -46.5t-50.5 -17.5t-50.5 17.5t-18.5 46.5zM-23 807q0 28 18.5 44.5t50.5 16.5t50.5 -16.5t18.5 -44.5q0 -29 -18.5 -46.5t-50.5 -17.5t-50.5 17.5t-18.5 46.5z" />
    <glyph glyph-name="Eth" unicode="&#xd0;" horiz-adv-x="764" 
d="M337 700q195 0 290.5 -87.5t95.5 -248.5q0 -96 -28.5 -165t-80 -113t-123 -65t-156.5 -21h-238v303h-84v115h84v282h240zM377 303h-155v-188h112q131 0 194.5 61t63.5 176q0 118 -61.5 175.5t-195.5 57.5h-113v-167h155v-115z" />
    <glyph glyph-name="Ntilde" unicode="&#xd1;" horiz-adv-x="825" 
d="M216 507v-507h-125v700h139l379 -507v507h125v-700h-140zM603 869q-9 -37 -21 -62t-27.5 -40t-35 -21t-43.5 -6q-22 0 -41.5 6t-37.5 12.5t-34 12.5t-31 6q-35 0 -51 -37h-58q10 38 25 63t31.5 39.5t34 20t34.5 5.5q18 0 36.5 -6t36 -12.5t34 -12.5t30.5 -6q20 0 37 7.5
t27 30.5h54v0z" />
    <glyph glyph-name="Ograve" unicode="&#xd2;" horiz-adv-x="831" 
d="M41 351q0 79 26.5 145t75.5 114t118 74.5t155 26.5q84 0 153.5 -25t118.5 -71.5t76 -113.5t27 -152q0 -79 -26.5 -145t-75.5 -114t-118.5 -74.5t-154.5 -26.5q-84 0 -153.5 24.5t-118.5 71t-76 114t-27 152.5zM173 350q0 -51 15.5 -96t46.5 -78t76.5 -52.5t105.5 -19.5
q56 0 100.5 18t76 50t48.5 77.5t17 100.5q0 51 -15.5 96t-46.5 78t-76.5 52.5t-105.5 19.5q-56 0 -101 -18t-76.5 -50.5t-48 -77.5t-16.5 -100zM168 869h176l120 -125h-103z" />
    <glyph glyph-name="Oacute" unicode="&#xd3;" horiz-adv-x="831" 
d="M41 351q0 79 26.5 145t75.5 114t118 74.5t155 26.5q84 0 153.5 -25t118.5 -71.5t76 -113.5t27 -152q0 -79 -26.5 -145t-75.5 -114t-118.5 -74.5t-154.5 -26.5q-84 0 -153.5 24.5t-118.5 71t-76 114t-27 152.5zM173 350q0 -51 15.5 -96t46.5 -78t76.5 -52.5t105.5 -19.5
q56 0 100.5 18t76 50t48.5 77.5t17 100.5q0 51 -15.5 96t-46.5 78t-76.5 52.5t-105.5 19.5q-56 0 -101 -18t-76.5 -50.5t-48 -77.5t-16.5 -100zM368 744l120 125h176l-193 -125h-103z" />
    <glyph glyph-name="Ocircumflex" unicode="&#xd4;" horiz-adv-x="831" 
d="M41 351q0 79 26.5 145t75.5 114t118 74.5t155 26.5q84 0 153.5 -25t118.5 -71.5t76 -113.5t27 -152q0 -79 -26.5 -145t-75.5 -114t-118.5 -74.5t-154.5 -26.5q-84 0 -153.5 24.5t-118.5 71t-76 114t-27 152.5zM173 350q0 -51 15.5 -96t46.5 -78t76.5 -52.5t105.5 -19.5
q56 0 100.5 18t76 50t48.5 77.5t17 100.5q0 51 -15.5 96t-46.5 78t-76.5 52.5t-105.5 19.5q-56 0 -101 -18t-76.5 -50.5t-48 -77.5t-16.5 -100zM611 744h-78l-117 48l-115 -48h-78l137 125h114z" />
    <glyph glyph-name="Otilde" unicode="&#xd5;" horiz-adv-x="831" 
d="M41 351q0 79 26.5 145t75.5 114t118 74.5t155 26.5q84 0 153.5 -25t118.5 -71.5t76 -113.5t27 -152q0 -79 -26.5 -145t-75.5 -114t-118.5 -74.5t-154.5 -26.5q-84 0 -153.5 24.5t-118.5 71t-76 114t-27 152.5zM173 350q0 -51 15.5 -96t46.5 -78t76.5 -52.5t105.5 -19.5
q56 0 100.5 18t76 50t48.5 77.5t17 100.5q0 51 -15.5 96t-46.5 78t-76.5 52.5t-105.5 19.5q-56 0 -101 -18t-76.5 -50.5t-48 -77.5t-16.5 -100zM606 869q-9 -37 -21 -62t-27.5 -40t-35 -21t-43.5 -6q-22 0 -41.5 6t-37.5 12.5t-34 12.5t-31 6q-35 0 -51 -37h-58q10 38 25 63
t31.5 39.5t34 20t34.5 5.5q18 0 36.5 -6t36 -12.5t34 -12.5t30.5 -6q20 0 37 7.5t27 30.5h54v0z" />
    <glyph glyph-name="Odieresis" unicode="&#xd6;" horiz-adv-x="831" 
d="M41 351q0 79 26.5 145t75.5 114t118 74.5t155 26.5q84 0 153.5 -25t118.5 -71.5t76 -113.5t27 -152q0 -79 -26.5 -145t-75.5 -114t-118.5 -74.5t-154.5 -26.5q-84 0 -153.5 24.5t-118.5 71t-76 114t-27 152.5zM173 350q0 -51 15.5 -96t46.5 -78t76.5 -52.5t105.5 -19.5
q56 0 100.5 18t76 50t48.5 77.5t17 100.5q0 51 -15.5 96t-46.5 78t-76.5 52.5t-105.5 19.5q-56 0 -101 -18t-76.5 -50.5t-48 -77.5t-16.5 -100zM456 807q0 28 18.5 44.5t50.5 16.5t50.5 -16.5t18.5 -44.5q0 -29 -18.5 -46.5t-50.5 -17.5t-50.5 17.5t-18.5 46.5zM239 807
q0 28 18.5 44.5t50.5 16.5t50.5 -16.5t18.5 -44.5q0 -29 -18.5 -46.5t-50.5 -17.5t-50.5 17.5t-18.5 46.5z" />
    <glyph glyph-name="multiply" unicode="&#xd7;" 
d="M310 270l-111 -111l-75 75l111 111l-111 111l75 75l111 -111l111 111l75 -75l-111 -111l111 -111l-75 -75z" />
    <glyph glyph-name="Oslash" unicode="&#xd8;" horiz-adv-x="831" 
d="M245 20q-96 40 -150 124t-54 207q0 79 26.5 145t75 113.5t117.5 74.5t155 27q41 0 79 -6l34 94l100 -37l-32 -87q92 -41 143.5 -124t51.5 -202q0 -79 -26.5 -145t-75.5 -114t-118.5 -74.5t-154.5 -26.5q-18 0 -34.5 1.5t-33.5 3.5l-43 -118l-99 36zM173 350
q0 -70 28.5 -126.5t85.5 -88.5l166 458q-18 3 -37 3q-56 0 -101 -18t-76.5 -50t-48.5 -77.5t-17 -100.5zM389 105q7 -1 13 -1h14q56 0 101 18t76.5 50t48.5 77.5t17 100.5q0 67 -26.5 122t-78.5 87z" />
    <glyph glyph-name="Ugrave" unicode="&#xd9;" horiz-adv-x="769" 
d="M211 286q0 -48 13.5 -82.5t37.5 -57t57 -33t72 -10.5q79 0 122.5 40t43.5 131v426h125v-413q0 -77 -20.5 -133.5t-59 -93.5t-93 -54.5t-123.5 -17.5q-77 0 -133 20.5t-93.5 58.5t-55.5 91.5t-18 120.5v421h125v-414zM137 869h176l120 -125h-103z" />
    <glyph glyph-name="Uacute" unicode="&#xda;" horiz-adv-x="769" 
d="M211 286q0 -48 13.5 -82.5t37.5 -57t57 -33t72 -10.5q79 0 122.5 40t43.5 131v426h125v-413q0 -77 -20.5 -133.5t-59 -93.5t-93 -54.5t-123.5 -17.5q-77 0 -133 20.5t-93.5 58.5t-55.5 91.5t-18 120.5v421h125v-414zM337 744l120 125h176l-193 -125h-103z" />
    <glyph glyph-name="Ucircumflex" unicode="&#xdb;" horiz-adv-x="769" 
d="M211 286q0 -48 13.5 -82.5t37.5 -57t57 -33t72 -10.5q79 0 122.5 40t43.5 131v426h125v-413q0 -77 -20.5 -133.5t-59 -93.5t-93 -54.5t-123.5 -17.5q-77 0 -133 20.5t-93.5 58.5t-55.5 91.5t-18 120.5v421h125v-414zM580 744h-78l-117 48l-115 -48h-78l137 125h114z" />
    <glyph glyph-name="Udieresis" unicode="&#xdc;" horiz-adv-x="769" 
d="M211 286q0 -48 13.5 -82.5t37.5 -57t57 -33t72 -10.5q79 0 122.5 40t43.5 131v426h125v-413q0 -77 -20.5 -133.5t-59 -93.5t-93 -54.5t-123.5 -17.5q-77 0 -133 20.5t-93.5 58.5t-55.5 91.5t-18 120.5v421h125v-414zM425 807q0 28 18.5 44.5t50.5 16.5t50.5 -16.5
t18.5 -44.5q0 -29 -18.5 -46.5t-50.5 -17.5t-50.5 17.5t-18.5 46.5zM208 807q0 28 18.5 44.5t50.5 16.5t50.5 -16.5t18.5 -44.5q0 -29 -18.5 -46.5t-50.5 -17.5t-50.5 17.5t-18.5 46.5z" />
    <glyph glyph-name="Yacute" unicode="&#xdd;" horiz-adv-x="667" 
d="M395 258v-258h-125v265l-265 435h146l188 -315l181 315h142zM286 744l120 125h176l-193 -125h-103z" />
    <glyph glyph-name="Thorn" unicode="&#xde;" horiz-adv-x="669" 
d="M216 609h91q166 0 240.5 -59.5t74.5 -177.5q0 -123 -80 -184t-235 -61h-91v-127h-125v700h125v-91zM216 494v-252h100q88 0 132 30.5t44 102.5q0 64 -41 91.5t-133 27.5h-102z" />
    <glyph glyph-name="germandbls" unicode="&#xdf;" horiz-adv-x="662" 
d="M413 412q-11 -11 -22.5 -20.5t-11.5 -26.5q0 -22 18.5 -35t45.5 -23t59.5 -21t59.5 -28.5t45.5 -45t18.5 -70.5q0 -71 -49.5 -111.5t-136.5 -41.5q-59 0 -102.5 18t-61.5 41v123q19 -34 59.5 -57t94.5 -23q42 0 60.5 14t18.5 38q0 20 -18 31.5t-45.5 21t-59.5 20.5
t-59.5 29t-45.5 46t-18 73q0 43 22 74.5t56 47.5l-1 1q42 20 62.5 39.5t20.5 54.5q0 32 -23 52t-77 20q-40 0 -66 -9.5t-41 -28.5t-21.5 -48t-6.5 -68v-499h-117v500q0 59 12.5 106t42 80t78.5 51t122 18q57 0 98 -15t67 -39t38 -55t12 -63q0 -38 -11 -65t-28.5 -46.5
t-40 -34t-46.5 -26.5z" />
    <glyph glyph-name="agrave" unicode="&#xe0;" horiz-adv-x="544" 
d="M83 465q25 19 69.5 32t109.5 13q110 0 164 -41t54 -139v-330h-110v90q-18 -44 -61.5 -71t-103.5 -27q-76 0 -118.5 40.5t-42.5 114.5q0 43 15 71t42 44.5t65 23.5t84 7h113v22q0 53 -25.5 73t-75.5 20q-69 0 -111 -24.5t-68 -64.5v146zM242 97q30 0 51.5 7.5t36.5 19
t23 25.5t10 27v41h-99q-52 0 -77 -12t-25 -46q0 -29 20.5 -45.5t59.5 -16.5zM81 750h166l80 -169h-88z" />
    <glyph glyph-name="aacute" unicode="&#xe1;" horiz-adv-x="544" 
d="M83 465q25 19 69.5 32t109.5 13q110 0 164 -41t54 -139v-330h-110v90q-18 -44 -61.5 -71t-103.5 -27q-76 0 -118.5 40.5t-42.5 114.5q0 43 15 71t42 44.5t65 23.5t84 7h113v22q0 53 -25.5 73t-75.5 20q-69 0 -111 -24.5t-68 -64.5v146zM242 97q30 0 51.5 7.5t36.5 19
t23 25.5t10 27v41h-99q-52 0 -77 -12t-25 -46q0 -29 20.5 -45.5t59.5 -16.5zM209 581l80 169h166l-158 -169h-88z" />
    <glyph glyph-name="acircumflex" unicode="&#xe2;" horiz-adv-x="544" 
d="M83 465q25 19 69.5 32t109.5 13q110 0 164 -41t54 -139v-330h-110v90q-18 -44 -61.5 -71t-103.5 -27q-76 0 -118.5 40.5t-42.5 114.5q0 43 15 71t42 44.5t65 23.5t84 7h113v22q0 53 -25.5 73t-75.5 20q-69 0 -111 -24.5t-68 -64.5v146zM242 97q30 0 51.5 7.5t36.5 19
t23 25.5t10 27v41h-99q-52 0 -77 -12t-25 -46q0 -29 20.5 -45.5t59.5 -16.5zM319 750l137 -164h-73l-110 73l-112 -73h-73l137 164h94z" />
    <glyph glyph-name="atilde" unicode="&#xe3;" horiz-adv-x="544" 
d="M83 465q25 19 69.5 32t109.5 13q110 0 164 -41t54 -139v-330h-110v90q-18 -44 -61.5 -71t-103.5 -27q-76 0 -118.5 40.5t-42.5 114.5q0 43 15 71t42 44.5t65 23.5t84 7h113v22q0 53 -25.5 73t-75.5 20q-69 0 -111 -24.5t-68 -64.5v146zM242 97q30 0 51.5 7.5t36.5 19
t23 25.5t10 27v41h-99q-52 0 -77 -12t-25 -46q0 -29 20.5 -45.5t59.5 -16.5zM458 743q-8 -43 -20 -71t-28 -45t-35 -24t-40 -7q-22 0 -41 6.5t-36.5 14.5t-33.5 14.5t-31 6.5q-18 0 -29 -11t-19 -31h-59q9 44 22.5 72t30 44.5t34.5 23t34 6.5q19 0 37.5 -6.5t35.5 -14.5
t32.5 -14.5t29.5 -6.5q40 0 57 43h59v0z" />
    <glyph glyph-name="adieresis" unicode="&#xe4;" horiz-adv-x="544" 
d="M83 465q25 19 69.5 32t109.5 13q110 0 164 -41t54 -139v-330h-110v90q-18 -44 -61.5 -71t-103.5 -27q-76 0 -118.5 40.5t-42.5 114.5q0 43 15 71t42 44.5t65 23.5t84 7h113v22q0 53 -25.5 73t-75.5 20q-69 0 -111 -24.5t-68 -64.5v146zM242 97q30 0 51.5 7.5t36.5 19
t23 25.5t10 27v41h-99q-52 0 -77 -12t-25 -46q0 -29 20.5 -45.5t59.5 -16.5zM312 690q0 29 18.5 46.5t50.5 17.5t50.5 -17.5t18.5 -46.5q0 -30 -18.5 -48.5t-50.5 -18.5t-50.5 18.5t-18.5 48.5zM95 690q0 29 18.5 46.5t50.5 17.5t50.5 -17.5t18.5 -46.5q0 -30 -18.5 -48.5
t-50.5 -18.5t-50.5 18.5t-18.5 48.5z" />
    <glyph glyph-name="aring" unicode="&#xe5;" horiz-adv-x="544" 
d="M83 465q25 19 69.5 32t109.5 13q110 0 164 -41t54 -139v-330h-110v90q-18 -44 -61.5 -71t-103.5 -27q-76 0 -118.5 40.5t-42.5 114.5q0 43 15 71t42 44.5t65 23.5t84 7h113v22q0 53 -25.5 73t-75.5 20q-69 0 -111 -24.5t-68 -64.5v146zM242 97q30 0 51.5 7.5t36.5 19
t23 25.5t10 27v41h-99q-52 0 -77 -12t-25 -46q0 -29 20.5 -45.5t59.5 -16.5zM154 691q0 48 31.5 78.5t86.5 30.5t86.5 -30.5t31.5 -78.5t-31.5 -79t-86.5 -31t-86.5 31t-31.5 79zM228 691q0 -22 12 -34.5t32 -12.5t32 12.5t12 34.5q0 21 -11.5 33.5t-32.5 12.5
q-20 0 -32 -12.5t-12 -33.5z" />
    <glyph glyph-name="ae" unicode="&#xe6;" horiz-adv-x="856" 
d="M779 50q-9 -11 -26 -21.5t-40.5 -19.5t-53 -14t-63.5 -5q-78 0 -135 26t-90 78q-17 -45 -60.5 -73.5t-105.5 -28.5q-77 0 -119.5 40.5t-42.5 114.5q0 43 15 71t42 44.5t65 23.5t85 7h74v10q0 48 -18 71t-59 28q-55 5 -99 -20.5t-73 -67.5v151q29 19 76 32.5t100 12.5
q113 0 158 -60q69 61 178 61q110 0 171 -64t61 -183v-48h-371q14 -125 152 -125q69 0 114 23t65 56v-120zM584 409q-57 0 -91 -28t-43 -82h253q-2 51 -33.5 80.5t-85.5 29.5zM241 97q42 0 67.5 13.5t39.5 31.5q-11 35 -15 75h-69q-52 0 -77 -12t-25 -46q0 -29 20 -45.5
t59 -16.5z" />
    <glyph glyph-name="ccedilla" unicode="&#xe7;" horiz-adv-x="505" 
d="M469 50q-14 -18 -49 -35.5t-83 -23.5l-23 -49q52 -8 80.5 -30t28.5 -60q0 -32 -18.5 -55.5t-49.5 -38.5t-70.5 -22.5t-82.5 -7.5v51q18 0 36.5 4t33.5 11.5t24.5 18.5t9.5 26q0 24 -22 34.5t-64 12.5l41 105q-102 10 -163 75.5t-61 185.5q0 64 19.5 112.5t54.5 81t84 49
t109 16.5q51 -1 93 -14t67 -32v-146q-26 40 -65.5 64.5t-94.5 25.5q-72 0 -110 -38t-38 -114v-15q0 -78 39.5 -114.5t110.5 -36.5q63 0 103.5 23t59.5 56v-120v0z" />
    <glyph glyph-name="egrave" unicode="&#xe8;" horiz-adv-x="561" 
d="M484 50q-9 -11 -26 -21.5t-41 -19.5t-53.5 -14t-63.5 -5q-125 -1 -194 65.5t-69 196.5q0 62 18.5 110.5t52.5 81.5t80.5 50t103.5 17q109 -1 170.5 -65t61.5 -182v-48h-371q14 -125 151 -125q69 0 114.5 23t65.5 56v-120zM289 409q-57 0 -91 -28t-43 -82h252
q-2 51 -33 80.5t-85 29.5zM102 750h166l80 -169h-88z" />
    <glyph glyph-name="eacute" unicode="&#xe9;" horiz-adv-x="561" 
d="M484 50q-9 -11 -26 -21.5t-41 -19.5t-53.5 -14t-63.5 -5q-125 -1 -194 65.5t-69 196.5q0 62 18.5 110.5t52.5 81.5t80.5 50t103.5 17q109 -1 170.5 -65t61.5 -182v-48h-371q14 -125 151 -125q69 0 114.5 23t65.5 56v-120zM289 409q-57 0 -91 -28t-43 -82h252
q-2 51 -33 80.5t-85 29.5zM230 581l80 169h166l-158 -169h-88z" />
    <glyph glyph-name="ecircumflex" unicode="&#xea;" horiz-adv-x="561" 
d="M484 50q-9 -11 -26 -21.5t-41 -19.5t-53.5 -14t-63.5 -5q-125 -1 -194 65.5t-69 196.5q0 62 18.5 110.5t52.5 81.5t80.5 50t103.5 17q109 -1 170.5 -65t61.5 -182v-48h-371q14 -125 151 -125q69 0 114.5 23t65.5 56v-120zM289 409q-57 0 -91 -28t-43 -82h252
q-2 51 -33 80.5t-85 29.5zM340 750l137 -164h-73l-110 73l-112 -73h-73l137 164h94z" />
    <glyph glyph-name="edieresis" unicode="&#xeb;" horiz-adv-x="561" 
d="M484 50q-9 -11 -26 -21.5t-41 -19.5t-53.5 -14t-63.5 -5q-125 -1 -194 65.5t-69 196.5q0 62 18.5 110.5t52.5 81.5t80.5 50t103.5 17q109 -1 170.5 -65t61.5 -182v-48h-371q14 -125 151 -125q69 0 114.5 23t65.5 56v-120zM289 409q-57 0 -91 -28t-43 -82h252
q-2 51 -33 80.5t-85 29.5zM333 690q0 29 18.5 46.5t50.5 17.5t50.5 -17.5t18.5 -46.5q0 -30 -18.5 -48.5t-50.5 -18.5t-50.5 18.5t-18.5 48.5zM116 690q0 29 18.5 46.5t50.5 17.5t50.5 -17.5t18.5 -46.5q0 -30 -18.5 -48.5t-50.5 -18.5t-50.5 18.5t-18.5 48.5z" />
    <glyph glyph-name="igrave" unicode="&#xec;" horiz-adv-x="275" 
d="M79 500h117v-500h-117v500zM-52 750h166l80 -169h-88z" />
    <glyph glyph-name="iacute" unicode="&#xed;" horiz-adv-x="275" 
d="M79 500h117v-500h-117v500zM75 581l80 169h166l-158 -169h-88z" />
    <glyph glyph-name="icircumflex" unicode="&#xee;" horiz-adv-x="275" 
d="M79 500h117v-500h-117v500zM186 750l137 -164h-73l-110 73l-112 -73h-73l137 164h94z" />
    <glyph glyph-name="idieresis" unicode="&#xef;" horiz-adv-x="275" 
d="M79 500h117v-500h-117v500zM178 690q0 29 18.5 46.5t50.5 17.5t50.5 -17.5t18.5 -46.5q0 -30 -18.5 -48.5t-50.5 -18.5t-50.5 18.5t-18.5 48.5zM-39 690q0 29 18.5 46.5t50.5 17.5t50.5 -17.5t18.5 -46.5q0 -30 -18.5 -48.5t-50.5 -18.5t-50.5 18.5t-18.5 48.5z" />
    <glyph glyph-name="eth" unicode="&#xf0;" horiz-adv-x="591" 
d="M154 602l99 50q-23 20 -41.5 33.5t-30.5 20.5l39 51q21 -7 50 -23t61 -42l98 50l39 -76l-71 -36q51 -54 92 -128.5t56 -168.5q5 -20 7.5 -41t2.5 -44q0 -65 -19 -113.5t-53.5 -80.5t-82.5 -48.5t-106 -16.5q-59 0 -106 16.5t-81 49.5t-52 82t-18 115q0 65 19 113.5t53 81
t82 48.5t107 16q42 0 80 -9q-28 48 -62 87l-123 -63zM156 249q0 -83 37 -120.5t103 -37.5q67 0 103 38.5t36 118.5v3q0 82 -37 119.5t-103 38.5q-67 0 -103 -38.5t-36 -118.5v-3z" />
    <glyph glyph-name="ntilde" unicode="&#xf1;" horiz-adv-x="598" 
d="M417 303q0 54 -23 78.5t-75 25.5h-3q-128 0 -128 -129v-278h-117v501h110v-102q16 46 62.5 78.5t118.5 32.5q81 -1 126.5 -44.5t45.5 -131.5v-334h-117v303zM485 743q-8 -43 -20 -71t-28 -45t-35 -24t-40 -7q-22 0 -41 6.5t-36.5 14.5t-33.5 14.5t-31 6.5q-18 0 -29 -11
t-19 -31h-59q9 44 22.5 72t30 44.5t34.5 23t34 6.5q19 0 37.5 -6.5t35.5 -14.5t32.5 -14.5t29.5 -6.5q40 0 57 43h59v0z" />
    <glyph glyph-name="ograve" unicode="&#xf2;" horiz-adv-x="591" 
d="M294 -11q-59 0 -106 16.5t-81 49.5t-52 82t-18 115q0 65 19 113.5t53 81t82 48.5t107 16q58 0 105.5 -17t81 -50t51.5 -82t18 -114t-19 -113.5t-53 -80.5t-82 -48.5t-106 -16.5zM156 249q0 -83 37 -120.5t103 -37.5q67 0 103 38.5t36 118.5v3q0 83 -37.5 120.5
t-103.5 37.5q-67 -1 -102.5 -39.5t-35.5 -117.5v-3zM105 750h166l80 -169h-88z" />
    <glyph glyph-name="oacute" unicode="&#xf3;" horiz-adv-x="591" 
d="M294 -11q-59 0 -106 16.5t-81 49.5t-52 82t-18 115q0 65 19 113.5t53 81t82 48.5t107 16q58 0 105.5 -17t81 -50t51.5 -82t18 -114t-19 -113.5t-53 -80.5t-82 -48.5t-106 -16.5zM156 249q0 -83 37 -120.5t103 -37.5q67 0 103 38.5t36 118.5v3q0 83 -37.5 120.5
t-103.5 37.5q-67 -1 -102.5 -39.5t-35.5 -117.5v-3zM233 581l80 169h166l-158 -169h-88z" />
    <glyph glyph-name="ocircumflex" unicode="&#xf4;" horiz-adv-x="591" 
d="M294 -11q-59 0 -106 16.5t-81 49.5t-52 82t-18 115q0 65 19 113.5t53 81t82 48.5t107 16q58 0 105.5 -17t81 -50t51.5 -82t18 -114t-19 -113.5t-53 -80.5t-82 -48.5t-106 -16.5zM156 249q0 -83 37 -120.5t103 -37.5q67 0 103 38.5t36 118.5v3q0 83 -37.5 120.5
t-103.5 37.5q-67 -1 -102.5 -39.5t-35.5 -117.5v-3zM343 750l137 -164h-73l-110 73l-112 -73h-73l137 164h94z" />
    <glyph glyph-name="otilde" unicode="&#xf5;" horiz-adv-x="591" 
d="M294 -11q-59 0 -106 16.5t-81 49.5t-52 82t-18 115q0 65 19 113.5t53 81t82 48.5t107 16q58 0 105.5 -17t81 -50t51.5 -82t18 -114t-19 -113.5t-53 -80.5t-82 -48.5t-106 -16.5zM156 249q0 -83 37 -120.5t103 -37.5q67 0 103 38.5t36 118.5v3q0 83 -37.5 120.5
t-103.5 37.5q-67 -1 -102.5 -39.5t-35.5 -117.5v-3zM482 743q-8 -43 -20 -71t-28 -45t-35 -24t-40 -7q-22 0 -41 6.5t-36.5 14.5t-33.5 14.5t-31 6.5q-18 0 -29 -11t-19 -31h-59q9 44 22.5 72t30 44.5t34.5 23t34 6.5q19 0 37.5 -6.5t35.5 -14.5t32.5 -14.5t29.5 -6.5
q40 0 57 43h59v0z" />
    <glyph glyph-name="odieresis" unicode="&#xf6;" horiz-adv-x="591" 
d="M294 -11q-59 0 -106 16.5t-81 49.5t-52 82t-18 115q0 65 19 113.5t53 81t82 48.5t107 16q58 0 105.5 -17t81 -50t51.5 -82t18 -114t-19 -113.5t-53 -80.5t-82 -48.5t-106 -16.5zM156 249q0 -83 37 -120.5t103 -37.5q67 0 103 38.5t36 118.5v3q0 83 -37.5 120.5
t-103.5 37.5q-67 -1 -102.5 -39.5t-35.5 -117.5v-3zM335 690q0 29 18.5 46.5t50.5 17.5t50.5 -17.5t18.5 -46.5q0 -30 -18.5 -48.5t-50.5 -18.5t-50.5 18.5t-18.5 48.5zM118 690q0 29 18.5 46.5t50.5 17.5t50.5 -17.5t18.5 -46.5q0 -30 -18.5 -48.5t-50.5 -18.5t-50.5 18.5
t-18.5 48.5z" />
    <glyph glyph-name="divide" unicode="&#xf7;" 
d="M520 398v-106h-420v106h420zM241 518q0 29 19 47t51 18q31 0 49.5 -18t18.5 -47q0 -30 -18.5 -48t-49.5 -18q-32 0 -51 18t-19 48zM241 173q0 29 19 47t51 18q31 0 49.5 -18t18.5 -47q0 -30 -18.5 -48t-49.5 -18q-32 0 -51 18t-19 48z" />
    <glyph glyph-name="oslash" unicode="&#xf8;" horiz-adv-x="591" 
d="M297 511q14 0 26.5 -1t24.5 -3l32 87l82 -29l-30 -83q58 -29 90.5 -87.5t32.5 -146.5q0 -65 -19 -113.5t-53.5 -81t-83 -48.5t-106.5 -16q-11 0 -20.5 0.5t-19.5 1.5l-35 -96l-81 29l32 88q-63 28 -97.5 87.5t-34.5 152.5q0 64 18.5 112.5t53 81t82 49t106.5 16.5z
M156 249q0 -95 51 -132l105 291q-5 0 -9 0.5t-9 0.5q-67 -1 -102.5 -39.5t-35.5 -117.5v-3zM296 91q67 0 103 38.5t36 118.5v3q0 85 -42 125l-104 -285h7z" />
    <glyph glyph-name="ugrave" unicode="&#xf9;" horiz-adv-x="592" 
d="M181 198q0 -54 23 -79t75 -26q126 0 125 129v278h117v-500h-110v102q-15 -46 -60.5 -78.5t-115.5 -32.5h-2q-80 2 -124 44.5t-44 130.5v334h116v-302zM105 750h166l80 -169h-88z" />
    <glyph glyph-name="uacute" unicode="&#xfa;" horiz-adv-x="592" 
d="M181 198q0 -54 23 -79t75 -26q126 0 125 129v278h117v-500h-110v102q-15 -46 -60.5 -78.5t-115.5 -32.5h-2q-80 2 -124 44.5t-44 130.5v334h116v-302zM233 581l80 169h166l-158 -169h-88z" />
    <glyph glyph-name="ucircumflex" unicode="&#xfb;" horiz-adv-x="592" 
d="M181 198q0 -54 23 -79t75 -26q126 0 125 129v278h117v-500h-110v102q-15 -46 -60.5 -78.5t-115.5 -32.5h-2q-80 2 -124 44.5t-44 130.5v334h116v-302zM343 750l137 -164h-73l-110 73l-112 -73h-73l137 164h94z" />
    <glyph glyph-name="udieresis" unicode="&#xfc;" horiz-adv-x="592" 
d="M181 198q0 -54 23 -79t75 -26q126 0 125 129v278h117v-500h-110v102q-15 -46 -60.5 -78.5t-115.5 -32.5h-2q-80 2 -124 44.5t-44 130.5v334h116v-302zM336 690q0 29 18.5 46.5t50.5 17.5t50.5 -17.5t18.5 -46.5q0 -30 -18.5 -48.5t-50.5 -18.5t-50.5 18.5t-18.5 48.5z
M119 690q0 29 18.5 46.5t50.5 17.5t50.5 -17.5t18.5 -46.5q0 -30 -18.5 -48.5t-50.5 -18.5t-50.5 18.5t-18.5 48.5z" />
    <glyph glyph-name="yacute" unicode="&#xfd;" horiz-adv-x="520" 
d="M10 500h131l137 -343l112 343h124l-200 -553q-17 -45 -34 -73.5t-35.5 -45t-39.5 -22.5t-46 -6q-23 0 -46 6t-34 16v109q11 -11 27 -18t33 -7q27 0 47.5 20.5t34.5 71.5zM197 581l80 169h166l-158 -169h-88z" />
    <glyph glyph-name="thorn" unicode="&#xfe;" horiz-adv-x="610" 
d="M188 750v-334q9 18 23 35t35 30t48.5 21t62.5 8q48 0 87.5 -14.5t68 -44.5t44.5 -77t16 -113q0 -74 -16 -125.5t-45.5 -84t-71.5 -47.5t-93 -15q-60 0 -99.5 25t-59.5 60v-267h-117v943h117zM188 233q0 -68 36 -104.5t97 -36.5q71 0 103 37.5t32 126.5q0 41 -9.5 69.5
t-27 46.5t-41.5 26t-54 8q-69 0 -101.5 -36t-34.5 -99v-38z" />
    <glyph glyph-name="ydieresis" unicode="&#xff;" horiz-adv-x="520" 
d="M10 500h131l137 -343l112 343h124l-200 -553q-17 -45 -34 -73.5t-35.5 -45t-39.5 -22.5t-46 -6q-23 0 -46 6t-34 16v109q11 -11 27 -18t33 -7q27 0 47.5 20.5t34.5 71.5zM300 690q0 29 18.5 46.5t50.5 17.5t50.5 -17.5t18.5 -46.5q0 -30 -18.5 -48.5t-50.5 -18.5
t-50.5 18.5t-18.5 48.5zM83 690q0 29 18.5 46.5t50.5 17.5t50.5 -17.5t18.5 -46.5q0 -30 -18.5 -48.5t-50.5 -18.5t-50.5 18.5t-18.5 48.5z" />
    <glyph glyph-name="Amacron" unicode="&#x100;" horiz-adv-x="729" 
d="M721 0h-133l-67 166h-321l-66 -166h-127l284 700h142zM475 281l-115 287l-115 -287h230zM211 854h309v-94h-309v94z" />
    <glyph glyph-name="amacron" unicode="&#x101;" horiz-adv-x="544" 
d="M83 465q25 19 69.5 32t109.5 13q110 0 164 -41t54 -139v-330h-110v90q-18 -44 -61.5 -71t-103.5 -27q-76 0 -118.5 40.5t-42.5 114.5q0 43 15 71t42 44.5t65 23.5t84 7h113v22q0 53 -25.5 73t-75.5 20q-69 0 -111 -24.5t-68 -64.5v146zM242 97q30 0 51.5 7.5t36.5 19
t23 25.5t10 27v41h-99q-52 0 -77 -12t-25 -46q0 -29 20.5 -45.5t59.5 -16.5zM118 709h309v-94h-309v94z" />
    <glyph glyph-name="Abreve" unicode="&#x102;" horiz-adv-x="729" 
d="M721 0h-133l-67 166h-321l-66 -166h-127l284 700h142zM475 281l-115 287l-115 -287h230zM365 744q-74 0 -119 36t-62 89h60q23 -21 51 -31t70 -10t73.5 10t47.5 31h60q-18 -59 -65.5 -92t-115.5 -33z" />
    <glyph glyph-name="abreve" unicode="&#x103;" horiz-adv-x="544" 
d="M83 465q25 19 69.5 32t109.5 13q110 0 164 -41t54 -139v-330h-110v90q-18 -44 -61.5 -71t-103.5 -27q-76 0 -118.5 40.5t-42.5 114.5q0 43 15 71t42 44.5t65 23.5t84 7h113v22q0 53 -25.5 73t-75.5 20q-69 0 -111 -24.5t-68 -64.5v146zM242 97q30 0 51.5 7.5t36.5 19
t23 25.5t10 27v41h-99q-52 0 -77 -12t-25 -46q0 -29 20.5 -45.5t59.5 -16.5zM272 581q-39 0 -69 13t-52 35.5t-35.5 53.5t-18.5 67h64q14 -32 41.5 -51.5t69.5 -19.5t69.5 19.5t41.5 51.5h64q-5 -36 -19.5 -67t-37 -53.5t-52.5 -35.5t-66 -13z" />
    <glyph glyph-name="Aogonek" unicode="&#x104;" horiz-adv-x="729" 
d="M721 0h-6q-38 -29 -63.5 -61.5t-25.5 -69.5q0 -31 19 -48t58 -17h10.5t10.5 1v-58q-14 -8 -40.5 -13.5t-55.5 -5.5q-35 0 -60.5 8.5t-42.5 23.5t-25 34.5t-8 41.5q0 45 33.5 86.5t90.5 77.5h-28l-67 166h-321l-66 -166h-127l284 700h142zM475 281l-115 287l-115 -287h230
z" />
    <glyph glyph-name="aogonek" unicode="&#x105;" horiz-adv-x="544" 
d="M83 465q25 19 69.5 32t109.5 13q110 0 164 -41t54 -139v-330h-4q-37 -29 -63 -61.5t-26 -69.5q0 -31 19.5 -48t58.5 -17h10.5t10.5 1v-58q-14 -8 -40.5 -13.5t-55.5 -5.5q-35 0 -60.5 8.5t-42.5 23.5t-25 34.5t-8 41.5q0 45 33 86.5t90 77.5h-7v90q-18 -44 -61.5 -71
t-103.5 -27q-76 0 -118.5 40.5t-42.5 114.5q0 43 15 71t42 44.5t65 23.5t84 7h113v22q0 53 -25.5 73t-75.5 20q-69 0 -111 -24.5t-68 -64.5v146zM242 97q30 0 51.5 7.5t36.5 19t23 25.5t10 27v41h-99q-52 0 -77 -12t-25 -46q0 -29 20.5 -45.5t59.5 -16.5z" />
    <glyph glyph-name="Cacute" unicode="&#x106;" horiz-adv-x="707" 
d="M669 77q-13 -16 -36.5 -31.5t-55.5 -28t-71.5 -20.5t-84.5 -8q-86 0 -156 25t-119.5 71.5t-77 113.5t-27.5 152q0 79 27 145t77 114t120.5 74.5t157.5 26.5q83 0 142 -20.5t90 -42.5v-174q-16 23 -39.5 45t-53 39t-65 27.5t-74.5 10.5q-57 0 -103 -18t-78 -50t-49 -77.5
t-17 -100.5q0 -51 15.5 -95.5t46 -77.5t76.5 -52.5t106 -20.5q46 0 84.5 10t70 27t55.5 40t39 50v-154zM374 744l120 125h176l-193 -125h-103z" />
    <glyph glyph-name="cacute" unicode="&#x107;" horiz-adv-x="505" 
d="M469 50q-17 -21 -61 -41t-105 -20q-60 0 -109 16.5t-84 49.5t-54 82t-19 115q0 64 19.5 112.5t54.5 81t84 49t109 16.5q51 -1 93 -14t67 -32v-146q-26 40 -65.5 64.5t-94.5 25.5q-72 0 -110 -38t-38 -114v-15q0 -78 39.5 -114.5t110.5 -36.5q63 0 103.5 23t59.5 56v-120
v0zM240 581l80 169h166l-158 -169h-88z" />
    <glyph glyph-name="Ccircumflex" unicode="&#x108;" horiz-adv-x="707" 
d="M669 77q-13 -16 -36.5 -31.5t-55.5 -28t-71.5 -20.5t-84.5 -8q-86 0 -156 25t-119.5 71.5t-77 113.5t-27.5 152q0 79 27 145t77 114t120.5 74.5t157.5 26.5q83 0 142 -20.5t90 -42.5v-174q-16 23 -39.5 45t-53 39t-65 27.5t-74.5 10.5q-57 0 -103 -18t-78 -50t-49 -77.5
t-17 -100.5q0 -51 15.5 -95.5t46 -77.5t76.5 -52.5t106 -20.5q46 0 84.5 10t70 27t55.5 40t39 50v-154zM617 744h-78l-117 48l-115 -48h-78l137 125h114z" />
    <glyph glyph-name="ccircumflex" unicode="&#x109;" horiz-adv-x="505" 
d="M469 50q-17 -21 -61 -41t-105 -20q-60 0 -109 16.5t-84 49.5t-54 82t-19 115q0 64 19.5 112.5t54.5 81t84 49t109 16.5q51 -1 93 -14t67 -32v-146q-26 40 -65.5 64.5t-94.5 25.5q-72 0 -110 -38t-38 -114v-15q0 -78 39.5 -114.5t110.5 -36.5q63 0 103.5 23t59.5 56v-120
v0zM350 750l137 -164h-73l-110 73l-112 -73h-73l137 164h94z" />
    <glyph glyph-name="Cdotaccent" unicode="&#x10a;" horiz-adv-x="707" 
d="M669 77q-13 -16 -36.5 -31.5t-55.5 -28t-71.5 -20.5t-84.5 -8q-86 0 -156 25t-119.5 71.5t-77 113.5t-27.5 152q0 79 27 145t77 114t120.5 74.5t157.5 26.5q83 0 142 -20.5t90 -42.5v-174q-16 23 -39.5 45t-53 39t-65 27.5t-74.5 10.5q-57 0 -103 -18t-78 -50t-49 -77.5
t-17 -100.5q0 -51 15.5 -95.5t46 -77.5t76.5 -52.5t106 -20.5q46 0 84.5 10t70 27t55.5 40t39 50v-154zM353 807q0 28 19 44.5t51 16.5q31 0 49.5 -16.5t18.5 -44.5q0 -29 -18.5 -46.5t-49.5 -17.5q-32 0 -51 17.5t-19 46.5z" />
    <glyph glyph-name="cdotaccent" unicode="&#x10b;" horiz-adv-x="505" 
d="M469 50q-17 -21 -61 -41t-105 -20q-60 0 -109 16.5t-84 49.5t-54 82t-19 115q0 64 19.5 112.5t54.5 81t84 49t109 16.5q51 -1 93 -14t67 -32v-146q-26 40 -65.5 64.5t-94.5 25.5q-72 0 -110 -38t-38 -114v-15q0 -78 39.5 -114.5t110.5 -36.5q63 0 103.5 23t59.5 56v-120
v0zM234 690q0 29 19 46.5t51 17.5q31 0 49.5 -17.5t18.5 -46.5q0 -30 -18.5 -48.5t-49.5 -18.5q-32 0 -51 18.5t-19 48.5z" />
    <glyph glyph-name="Ccaron" unicode="&#x10c;" horiz-adv-x="707" 
d="M669 77q-13 -16 -36.5 -31.5t-55.5 -28t-71.5 -20.5t-84.5 -8q-86 0 -156 25t-119.5 71.5t-77 113.5t-27.5 152q0 79 27 145t77 114t120.5 74.5t157.5 26.5q83 0 142 -20.5t90 -42.5v-174q-16 23 -39.5 45t-53 39t-65 27.5t-74.5 10.5q-57 0 -103 -18t-78 -50t-49 -77.5
t-17 -100.5q0 -51 15.5 -95.5t46 -77.5t76.5 -52.5t106 -20.5q46 0 84.5 10t70 27t55.5 40t39 50v-154zM365 744l-137 125h78l115 -48l117 48h78l-137 -125h-114z" />
    <glyph glyph-name="ccaron" unicode="&#x10d;" horiz-adv-x="505" 
d="M469 50q-17 -21 -61 -41t-105 -20q-60 0 -109 16.5t-84 49.5t-54 82t-19 115q0 64 19.5 112.5t54.5 81t84 49t109 16.5q51 -1 93 -14t67 -32v-146q-26 40 -65.5 64.5t-94.5 25.5q-72 0 -110 -38t-38 -114v-15q0 -78 39.5 -114.5t110.5 -36.5q63 0 103.5 23t59.5 56v-120
v0zM256 586l-137 164h73l110 -73l112 73h73l-137 -164h-94z" />
    <glyph glyph-name="Dcaron" unicode="&#x10e;" horiz-adv-x="758" 
d="M332 700q195 0 290 -87t95 -249q0 -96 -28.5 -165t-80 -113t-123 -65t-156.5 -21h-238v700h241zM329 115q131 0 194 61t63 176q0 117 -61.5 175t-194.5 58h-114v-470h113zM322 744l-137 125h78l115 -48l117 48h78l-137 -125h-114z" />
    <glyph glyph-name="dcaron" unicode="&#x10f;" horiz-adv-x="650" 
d="M538 750v-750h-109v100q-7 -21 -21 -40.5t-35.5 -35.5t-51 -25.5t-68.5 -9.5q-48 0 -87.5 14.5t-68 44.5t-44.5 77t-16 113q0 74 16 125.5t45.5 84t71.5 47.5t93 15q60 0 99.5 -25.5t59.5 -60.5v326h116zM289 407q-71 0 -103 -37.5t-32 -126.5q0 -41 9.5 -69.5t27 -46.5
t42 -26t54.5 -8q64 0 97 31t38 87v74q-5 59 -40.5 90.5t-92.5 31.5zM612 750h124l-86 -200h-84z" />
    <glyph glyph-name="Dcroat" unicode="&#x110;" horiz-adv-x="764" 
d="M337 700q195 0 290.5 -87.5t95.5 -248.5q0 -96 -28.5 -165t-80 -113t-123 -65t-156.5 -21h-238v303h-84v115h84v282h240zM377 303h-155v-188h112q131 0 194.5 61t63.5 176q0 118 -61.5 175.5t-195.5 57.5h-113v-167h155v-115z" />
    <glyph glyph-name="dcroat" unicode="&#x111;" horiz-adv-x="611" 
d="M538 750v-91h59v-94h-59v-565h-109v100q-7 -21 -21 -40.5t-35.5 -35.5t-51 -25.5t-68.5 -9.5q-48 0 -87.5 14.5t-68 44.5t-44.5 77t-16 113q0 74 16 125.5t45.5 84t71.5 47.5t93 15q60 0 99.5 -25.5t59.5 -60.5v141h-169v94h169v91h116zM422 266q0 69 -36 105t-97 36
q-71 0 -103 -37.5t-32 -126.5q0 -41 9.5 -69.5t27 -46.5t41.5 -26t54 -8q69 0 101.5 35.5t34.5 98.5v39z" />
    <glyph glyph-name="Emacron" unicode="&#x112;" horiz-adv-x="644" 
d="M538 303h-322v-188h370v-115h-495v700h484v-115h-359v-167h322v-115zM194 854h309v-94h-309v94z" />
    <glyph glyph-name="emacron" unicode="&#x113;" horiz-adv-x="561" 
d="M484 50q-9 -11 -26 -21.5t-41 -19.5t-53.5 -14t-63.5 -5q-125 -1 -194 65.5t-69 196.5q0 62 18.5 110.5t52.5 81.5t80.5 50t103.5 17q109 -1 170.5 -65t61.5 -182v-48h-371q14 -125 151 -125q69 0 114.5 23t65.5 56v-120zM289 409q-57 0 -91 -28t-43 -82h252
q-2 51 -33 80.5t-85 29.5zM139 709h309v-94h-309v94z" />
    <glyph glyph-name="Edotaccent" unicode="&#x116;" horiz-adv-x="644" 
d="M538 303h-322v-188h370v-115h-495v700h484v-115h-359v-167h322v-115zM279 807q0 28 19 44.5t51 16.5q31 0 49.5 -16.5t18.5 -44.5q0 -29 -18.5 -46.5t-49.5 -17.5q-32 0 -51 17.5t-19 46.5z" />
    <glyph glyph-name="edotaccent" unicode="&#x117;" horiz-adv-x="561" 
d="M484 50q-9 -11 -26 -21.5t-41 -19.5t-53.5 -14t-63.5 -5q-125 -1 -194 65.5t-69 196.5q0 62 18.5 110.5t52.5 81.5t80.5 50t103.5 17q109 -1 170.5 -65t61.5 -182v-48h-371q14 -125 151 -125q69 0 114.5 23t65.5 56v-120zM289 409q-57 0 -91 -28t-43 -82h252
q-2 51 -33 80.5t-85 29.5zM224 690q0 29 19 46.5t51 17.5q31 0 49.5 -17.5t18.5 -46.5q0 -30 -18.5 -48.5t-49.5 -18.5q-32 0 -51 18.5t-19 48.5z" />
    <glyph glyph-name="Eogonek" unicode="&#x118;" horiz-adv-x="644" 
d="M538 303h-322v-188h370v-115h-4q-38 -29 -63.5 -61.5t-25.5 -69.5q0 -31 19 -48t58 -17h10.5t10.5 1v-58q-14 -8 -40.5 -13.5t-55.5 -5.5q-35 0 -60.5 8.5t-42.5 23.5t-25 34.5t-8 41.5q0 45 33.5 86.5t90.5 77.5h-392v700h484v-115h-359v-167h322v-115z" />
    <glyph glyph-name="eogonek" unicode="&#x119;" horiz-adv-x="561" 
d="M484 50q-14 -16 -44 -31t-73 -23q-35 -28 -59 -60t-24 -67q0 -31 19.5 -48t58.5 -17h10.5t10.5 1v-58q-14 -8 -40.5 -13.5t-55.5 -5.5q-35 0 -60.5 8.5t-42.5 23.5t-25 34.5t-8 41.5q0 42 29.5 81.5t80.5 74.5q-106 9 -165 75t-59 185q0 62 18.5 110.5t52.5 81.5t80.5 50
t103.5 17q109 0 170.5 -64.5t61.5 -182.5v-48h-371q14 -125 151 -125q69 0 114.5 23t65.5 56v-120zM289 409q-57 0 -91 -28t-43 -82h252q-2 51 -33 80.5t-85 29.5z" />
    <glyph glyph-name="Ecaron" unicode="&#x11a;" horiz-adv-x="644" 
d="M538 303h-322v-188h370v-115h-495v700h484v-115h-359v-167h322v-115zM291 744l-137 125h78l115 -48l117 48h78l-137 -125h-114z" />
    <glyph glyph-name="ecaron" unicode="&#x11b;" horiz-adv-x="561" 
d="M484 50q-9 -11 -26 -21.5t-41 -19.5t-53.5 -14t-63.5 -5q-125 -1 -194 65.5t-69 196.5q0 62 18.5 110.5t52.5 81.5t80.5 50t103.5 17q109 -1 170.5 -65t61.5 -182v-48h-371q14 -125 151 -125q69 0 114.5 23t65.5 56v-120zM289 409q-57 0 -91 -28t-43 -82h252
q-2 51 -33 80.5t-85 29.5zM246 586l-137 164h73l110 -73l112 73h73l-137 -164h-94z" />
    <glyph glyph-name="Gcircumflex" unicode="&#x11c;" horiz-adv-x="752" 
d="M420 -11q-86 1 -155.5 25.5t-119.5 71t-77 113.5t-27 152q0 79 27 145t76.5 113.5t119.5 74.5t157 27q83 0 142 -20.5t90 -42.5v-174q-16 23 -39.5 45t-53 39t-65 27.5t-74.5 10.5q-57 0 -102.5 -18t-77 -50.5t-48.5 -77.5t-17 -100q0 -51 16 -96t47 -78t77.5 -52.5
t107.5 -19.5q47 0 82 9t61 25v130h-142v115h258v-294q-12 -18 -38.5 -36t-62.5 -32t-78 -23t-84 -9zM613 744h-78l-117 48l-115 -48h-78l137 125h114z" />
    <glyph glyph-name="gcircumflex" unicode="&#x11d;" horiz-adv-x="610" 
d="M422 83q-9 -18 -23.5 -35t-35 -30t-48 -21t-62.5 -8q-48 0 -87.5 14.5t-68 44.5t-44.5 77t-16 113q0 74 16 125.5t45.5 84t71.5 47.5t93 15q65 0 106.5 -29.5t58.5 -68.5v88h110v-450q0 -70 -17.5 -117.5t-50.5 -77t-80 -42.5t-105 -13q-70 0 -123 17.5t-74 36.5v130
q11 -15 29 -29.5t41.5 -26t53 -18.5t63.5 -7q37 0 64.5 7t46 23t27.5 42t9 64v44zM289 407q-71 0 -103 -37.5t-32 -126.5q0 -41 9.5 -69.5t27 -46.5t42 -26t54.5 -8q64 0 97 31t38 87v74q-5 59 -40.5 90.5t-92.5 31.5zM352 750l137 -164h-73l-110 73l-112 -73h-73l137 164
h94z" />
    <glyph glyph-name="Gbreve" unicode="&#x11e;" horiz-adv-x="752" 
d="M420 -11q-86 1 -155.5 25.5t-119.5 71t-77 113.5t-27 152q0 79 27 145t76.5 113.5t119.5 74.5t157 27q83 0 142 -20.5t90 -42.5v-174q-16 23 -39.5 45t-53 39t-65 27.5t-74.5 10.5q-57 0 -102.5 -18t-77 -50.5t-48.5 -77.5t-17 -100q0 -51 16 -96t47 -78t77.5 -52.5
t107.5 -19.5q47 0 82 9t61 25v130h-142v115h258v-294q-12 -18 -38.5 -36t-62.5 -32t-78 -23t-84 -9zM418 744q-74 0 -119 36t-62 89h60q23 -21 51 -31t70 -10t73.5 10t47.5 31h60q-18 -59 -65.5 -92t-115.5 -33z" />
    <glyph glyph-name="gbreve" unicode="&#x11f;" horiz-adv-x="610" 
d="M422 83q-9 -18 -23.5 -35t-35 -30t-48 -21t-62.5 -8q-48 0 -87.5 14.5t-68 44.5t-44.5 77t-16 113q0 74 16 125.5t45.5 84t71.5 47.5t93 15q65 0 106.5 -29.5t58.5 -68.5v88h110v-450q0 -70 -17.5 -117.5t-50.5 -77t-80 -42.5t-105 -13q-70 0 -123 17.5t-74 36.5v130
q11 -15 29 -29.5t41.5 -26t53 -18.5t63.5 -7q37 0 64.5 7t46 23t27.5 42t9 64v44zM289 407q-71 0 -103 -37.5t-32 -126.5q0 -41 9.5 -69.5t27 -46.5t42 -26t54.5 -8q64 0 97 31t38 87v74q-5 59 -40.5 90.5t-92.5 31.5zM305 581q-39 0 -69 13t-52 35.5t-35.5 53.5t-18.5 67
h64q14 -32 41.5 -51.5t69.5 -19.5t69.5 19.5t41.5 51.5h64q-5 -36 -19.5 -67t-37 -53.5t-52.5 -35.5t-66 -13z" />
    <glyph glyph-name="Gdotaccent" unicode="&#x120;" horiz-adv-x="752" 
d="M420 -11q-86 1 -155.5 25.5t-119.5 71t-77 113.5t-27 152q0 79 27 145t76.5 113.5t119.5 74.5t157 27q83 0 142 -20.5t90 -42.5v-174q-16 23 -39.5 45t-53 39t-65 27.5t-74.5 10.5q-57 0 -102.5 -18t-77 -50.5t-48.5 -77.5t-17 -100q0 -51 16 -96t47 -78t77.5 -52.5
t107.5 -19.5q47 0 82 9t61 25v130h-142v115h258v-294q-12 -18 -38.5 -36t-62.5 -32t-78 -23t-84 -9zM349 807q0 28 19 44.5t51 16.5q31 0 49.5 -16.5t18.5 -44.5q0 -29 -18.5 -46.5t-49.5 -17.5q-32 0 -51 17.5t-19 46.5z" />
    <glyph glyph-name="gdotaccent" unicode="&#x121;" horiz-adv-x="610" 
d="M422 83q-9 -18 -23.5 -35t-35 -30t-48 -21t-62.5 -8q-48 0 -87.5 14.5t-68 44.5t-44.5 77t-16 113q0 74 16 125.5t45.5 84t71.5 47.5t93 15q65 0 106.5 -29.5t58.5 -68.5v88h110v-450q0 -70 -17.5 -117.5t-50.5 -77t-80 -42.5t-105 -13q-70 0 -123 17.5t-74 36.5v130
q11 -15 29 -29.5t41.5 -26t53 -18.5t63.5 -7q37 0 64.5 7t46 23t27.5 42t9 64v44zM289 407q-71 0 -103 -37.5t-32 -126.5q0 -41 9.5 -69.5t27 -46.5t42 -26t54.5 -8q64 0 97 31t38 87v74q-5 59 -40.5 90.5t-92.5 31.5zM236 690q0 29 19 46.5t51 17.5q31 0 49.5 -17.5
t18.5 -46.5q0 -30 -18.5 -48.5t-49.5 -18.5q-32 0 -51 18.5t-19 48.5z" />
    <glyph glyph-name="uni0122" unicode="&#x122;" horiz-adv-x="752" 
d="M420 -11q-86 1 -155.5 25.5t-119.5 71t-77 113.5t-27 152q0 79 27 145t76.5 113.5t119.5 74.5t157 27q83 0 142 -20.5t90 -42.5v-174q-16 23 -39.5 45t-53 39t-65 27.5t-74.5 10.5q-57 0 -102.5 -18t-77 -50.5t-48.5 -77.5t-17 -100q0 -51 16 -96t47 -78t77.5 -52.5
t107.5 -19.5q47 0 82 9t61 25v130h-142v115h258v-294q-12 -18 -38.5 -36t-62.5 -32t-78 -23t-84 -9zM327 -258q45 8 72.5 29t32.5 44h-1q-40 0 -54.5 17.5t-14.5 42.5q0 26 14.5 44t54.5 18q25 0 43 -10q15 -8 25 -27.5t10 -50.5q0 -35 -14 -62.5t-34.5 -47t-44.5 -31
t-44 -15.5l-45 49v0z" />
    <glyph glyph-name="uni0123" unicode="&#x123;" horiz-adv-x="610" 
d="M422 83q-9 -18 -23.5 -35t-35 -30t-48 -21t-62.5 -8q-48 0 -87.5 14.5t-68 44.5t-44.5 77t-16 113q0 74 16 125.5t45.5 84t71.5 47.5t93 15q65 0 106.5 -29.5t58.5 -68.5v88h110v-450q0 -70 -17.5 -117.5t-50.5 -77t-80 -42.5t-105 -13q-70 0 -123 17.5t-74 36.5v130
q11 -15 29 -29.5t41.5 -26t53 -18.5t63.5 -7q37 0 64.5 7t46 23t27.5 42t9 64v44zM289 407q-71 0 -103 -37.5t-32 -126.5q0 -41 9.5 -69.5t27 -46.5t42 -26t54.5 -8q64 0 97 31t38 87v74q-5 59 -40.5 90.5t-92.5 31.5zM396.005 797.969q-44.9941 -7.99902 -72.4912 -28.9971
q-27.4961 -20.9971 -32.4961 -43.9941h1q39.9951 0 54.4932 -17.498t14.498 -42.4951q0 -25.9961 -14.498 -43.9941t-54.4932 -17.998q-24.9971 0 -42.9951 9.99902q-14.998 7.99902 -24.9971 27.4961q-9.99805 19.498 -9.99805 50.4941q0 34.9961 13.998 62.4922
q13.998 27.4971 34.4961 46.9941q20.4971 19.498 44.4941 30.9971q23.9971 11.498 43.9951 15.498l44.9941 -48.9941v0z" />
    <glyph glyph-name="Hcircumflex" unicode="&#x124;" horiz-adv-x="815" 
d="M599 303h-383v-303h-125v700h125v-282h383v282h125v-700h-125v303zM603 744h-78l-117 48l-115 -48h-78l137 125h114z" />
    <glyph glyph-name="hcircumflex" unicode="&#x125;" horiz-adv-x="598" 
d="M417 302q0 54 -23 79t-75 26h-3q-128 0 -128 -129v-278h-117v750h117v-352q11 46 56.5 78.5t117.5 32.5q81 -1 126.5 -44t45.5 -131v-334h-117v302zM177 920l137 -164h-73l-110 73l-112 -73h-73l137 164h94z" />
    <glyph glyph-name="Hbar" unicode="&#x126;" horiz-adv-x="806" 
d="M20 603h67v97h125v-97h382v97h125v-97h68v-109h-68v-494h-125v303h-382v-303h-125v494h-67v109zM212 418h382v76h-382v-76z" />
    <glyph glyph-name="hbar" unicode="&#x127;" horiz-adv-x="600" 
d="M419 302q0 54 -22.5 79t-75.5 26h-3q-128 0 -128 -129v-278h-117v565h-63v94h63v91h117v-91h164v-94h-164v-167q11 46 56 78t117 33h1h2q81 -1 125.5 -44t44.5 -131v-334h-117v302z" />
    <glyph glyph-name="Imacron" unicode="&#x12a;" horiz-adv-x="308" 
d="M216 0h-125v700h125v-700zM0 854h309v-94h-309v94z" />
    <glyph glyph-name="imacron" unicode="&#x12b;" horiz-adv-x="275" 
d="M79 500h117v-500h-117v500zM-16 709h309v-94h-309v94z" />
    <glyph glyph-name="Iogonek" unicode="&#x12e;" horiz-adv-x="308" 
d="M216 0h-3q-38 -29 -63.5 -61.5t-25.5 -69.5q0 -31 19 -48t58 -17h10.5t10.5 1v-58q-14 -8 -40.5 -13.5t-55.5 -5.5q-35 0 -60.5 8.5t-42.5 23.5t-25 34.5t-8 41.5q0 45 33.5 86.5t90.5 77.5h-23v700h125v-700z" />
    <glyph glyph-name="iogonek" unicode="&#x12f;" horiz-adv-x="275" 
d="M79 500h117v-500h-6q-37 -29 -63 -61.5t-26 -69.5q0 -31 19.5 -48t58.5 -17h10.5t10.5 1v-58q-14 -8 -40.5 -13.5t-55.5 -5.5q-35 0 -60.5 8.5t-42.5 23.5t-25 34.5t-8 41.5q0 45 33 86.5t90 77.5h-12v500zM68 694q0 29 19 47t51 18q31 0 49.5 -18t18.5 -47
q0 -30 -18.5 -48t-49.5 -18q-32 0 -51 18t-19 48z" />
    <glyph glyph-name="Idotaccent" unicode="&#x130;" horiz-adv-x="308" 
d="M216 0h-125v700h125v-700zM85 807q0 28 19 44.5t51 16.5q31 0 49.5 -16.5t18.5 -44.5q0 -29 -18.5 -46.5t-49.5 -17.5q-32 0 -51 17.5t-19 46.5z" />
    <glyph glyph-name="dotlessi" unicode="&#x131;" horiz-adv-x="275" 
d="M79 500h117v-500h-117v500z" />
    <glyph glyph-name="Jcircumflex" unicode="&#x134;" horiz-adv-x="461" 
d="M370 199q0 -103 -55.5 -153.5t-152.5 -50.5q-23 0 -45 3.5t-41 9.5t-34 13.5t-24 15.5v142q22 -29 55.5 -49t71.5 -20q49 0 74.5 23.5t25.5 75.5v491h125v-501zM506 744h-78l-117 48l-115 -48h-78l137 125h114z" />
    <glyph glyph-name="jcircumflex" unicode="&#x135;" horiz-adv-x="266" 
d="M78 500h117v-523q0 -86 -38.5 -131t-127.5 -45q-26 0 -47 5.5t-35 13.5v115q26 -29 71 -29q30 0 45 16.5t15 56.5v521zM181 750l137 -164h-73l-110 73l-112 -73h-73l137 164h94z" />
    <glyph glyph-name="uni0136" unicode="&#x136;" horiz-adv-x="749" 
d="M216 0h-125v700h125v-294h105l225 294h152l-267 -333l310 -367h-160l-254 303h-111v-303zM284 -258q45 8 72.5 29t32.5 44h-1q-40 0 -54.5 17.5t-14.5 42.5q0 26 14.5 44t54.5 18q25 0 43 -10q15 -8 25 -27.5t10 -50.5q0 -35 -14 -62.5t-34.5 -47t-44.5 -31t-44 -15.5
l-45 49v0z" />
    <glyph glyph-name="uni0137" unicode="&#x137;" horiz-adv-x="555" 
d="M188 750v-445h55l140 195h130l-175 -236l203 -264h-142l-157 207h-54v-207h-117v750h117zM187 -258q45 8 72.5 29t32.5 44h-1q-40 0 -54.5 17.5t-14.5 42.5q0 26 14.5 44t54.5 18q25 0 43 -10q15 -8 25 -27.5t10 -50.5q0 -35 -14 -62.5t-34.5 -47t-44.5 -31t-44 -15.5
l-45 49v0z" />
    <glyph glyph-name="Lacute" unicode="&#x139;" horiz-adv-x="614" 
d="M216 115h380v-115h-505v700h125v-585zM108 744l120 125h176l-193 -125h-103z" />
    <glyph glyph-name="lacute" unicode="&#x13a;" horiz-adv-x="334" 
d="M319 8q-12 -7 -41 -12.5t-61 -5.5q-68 0 -107 30t-39 100v630h117v-593q0 -37 13 -49t45 -12q23 0 42 4t31 9v-101zM83 804l120 125h176l-193 -125h-103z" />
    <glyph glyph-name="Lcommaaccent" unicode="&#x13b;" horiz-adv-x="614" 
d="M216 115h380v-115h-505v700h125v-585zM216 -258q45 8 72.5 29t32.5 44h-1q-40 0 -54.5 17.5t-14.5 42.5q0 26 14.5 44t54.5 18q25 0 43 -10q15 -8 25 -27.5t10 -50.5q0 -35 -14 -62.5t-34.5 -47t-44.5 -31t-44 -15.5l-45 49v0z" />
    <glyph glyph-name="lcommaaccent" unicode="&#x13c;" horiz-adv-x="334" 
d="M319 8q-12 -7 -41 -12.5t-61 -5.5q-68 0 -107 30t-39 100v630h117v-593q0 -37 13 -49t45 -12q23 0 42 4t31 9v-101zM76 -258q45 8 72.5 29t32.5 44h-1q-40 0 -54.5 17.5t-14.5 42.5q0 26 14.5 44t54.5 18q25 0 43 -10q15 -8 25 -27.5t10 -50.5q0 -35 -14 -62.5t-34.5 -47
t-44.5 -31t-44 -15.5l-45 49v0z" />
    <glyph glyph-name="Lcaron" unicode="&#x13d;" horiz-adv-x="614" 
d="M216 115h380v-115h-505v700h125v-585zM431 700h124l-86 -200h-84z" />
    <glyph glyph-name="lcaron" unicode="&#x13e;" horiz-adv-x="334" 
d="M319 8q-12 -7 -41 -12.5t-61 -5.5q-68 0 -107 30t-39 100v630h117v-593q0 -37 13 -49t45 -12q23 0 42 4t31 9v-101zM272 750h124l-86 -200h-84z" />
    <glyph glyph-name="Ldot" unicode="&#x13f;" horiz-adv-x="616" 
d="M216 115h380v-115h-505v700h125v-585zM380 374q0 29 19 47t51 18q31 0 49.5 -18t18.5 -47q0 -30 -18.5 -48t-49.5 -18q-32 0 -51 18t-19 48z" />
    <glyph glyph-name="ldot" unicode="&#x140;" horiz-adv-x="353" 
d="M319 8q-12 -7 -41 -12.5t-61 -5.5q-68 0 -107 30t-39 100v630h117v-593q0 -37 13 -49t45 -12q23 0 42 4t31 9v-101zM233 384q0 29 19 47t51 18q31 0 50 -18t19 -47q0 -30 -19 -48t-50 -18q-32 0 -51 18t-19 48z" />
    <glyph glyph-name="Lslash" unicode="&#x141;" horiz-adv-x="616" 
d="M362 417l-146 -114v-188h380v-115h-505v206l-77 -60l-1 117l78 61v376h125v-277l146 115v-121z" />
    <glyph glyph-name="lslash" unicode="&#x142;" horiz-adv-x="337" 
d="M290 426l-100 -90v-179q0 -37 13 -49t45 -12q23 0 42.5 4t31.5 9v-101q-12 -7 -41.5 -12.5t-61.5 -5.5q-68 0 -107 30t-39 100v110l-62 -56l-1 116l63 58v402h117v-295l100 92v-121z" />
    <glyph glyph-name="Nacute" unicode="&#x143;" horiz-adv-x="825" 
d="M216 507v-507h-125v700h139l379 -507v507h125v-700h-140zM365 744l120 125h176l-193 -125h-103z" />
    <glyph glyph-name="nacute" unicode="&#x144;" horiz-adv-x="598" 
d="M417 303q0 54 -23 78.5t-75 25.5h-3q-128 0 -128 -129v-278h-117v501h110v-102q16 46 62.5 78.5t118.5 32.5q81 -1 126.5 -44.5t45.5 -131.5v-334h-117v303zM236 581l80 169h166l-158 -169h-88z" />
    <glyph glyph-name="Ncommaaccent" unicode="&#x145;" horiz-adv-x="825" 
d="M216 507v-507h-125v700h139l379 -507v507h125v-700h-140zM322 -258q45 8 72.5 29t32.5 44h-1q-40 0 -54.5 17.5t-14.5 42.5q0 26 14.5 44t54.5 18q25 0 43 -10q15 -8 25 -27.5t10 -50.5q0 -35 -14 -62.5t-34.5 -47t-44.5 -31t-44 -15.5l-45 49v0z" />
    <glyph glyph-name="ncommaaccent" unicode="&#x146;" horiz-adv-x="598" 
d="M417 303q0 54 -23 78.5t-75 25.5h-3q-128 0 -128 -129v-278h-117v501h110v-102q16 46 62.5 78.5t118.5 32.5q81 -1 126.5 -44.5t45.5 -131.5v-334h-117v303zM208 -258q45 8 72.5 29t32.5 44h-1q-40 0 -54.5 17.5t-14.5 42.5q0 26 14.5 44t54.5 18q25 0 43 -10
q15 -8 25 -27.5t10 -50.5q0 -35 -14 -62.5t-34.5 -47t-44.5 -31t-44 -15.5l-45 49v0z" />
    <glyph glyph-name="Ncaron" unicode="&#x147;" horiz-adv-x="825" 
d="M216 507v-507h-125v700h139l379 -507v507h125v-700h-140zM356 744l-137 125h78l115 -48l117 48h78l-137 -125h-114z" />
    <glyph glyph-name="ncaron" unicode="&#x148;" horiz-adv-x="598" 
d="M417 303q0 54 -23 78.5t-75 25.5h-3q-128 0 -128 -129v-278h-117v501h110v-102q16 46 62.5 78.5t118.5 32.5q81 -1 126.5 -44.5t45.5 -131.5v-334h-117v303zM252 586l-137 164h73l110 -73l112 73h73l-137 -164h-94z" />
    <glyph glyph-name="Omacron" unicode="&#x14c;" horiz-adv-x="831" 
d="M41 351q0 79 26.5 145t75.5 114t118 74.5t155 26.5q84 0 153.5 -25t118.5 -71.5t76 -113.5t27 -152q0 -79 -26.5 -145t-75.5 -114t-118.5 -74.5t-154.5 -26.5q-84 0 -153.5 24.5t-118.5 71t-76 114t-27 152.5zM173 350q0 -51 15.5 -96t46.5 -78t76.5 -52.5t105.5 -19.5
q56 0 100.5 18t76 50t48.5 77.5t17 100.5q0 51 -15.5 96t-46.5 78t-76.5 52.5t-105.5 19.5q-56 0 -101 -18t-76.5 -50.5t-48 -77.5t-16.5 -100zM262 854h309v-94h-309v94z" />
    <glyph glyph-name="omacron" unicode="&#x14d;" horiz-adv-x="591" 
d="M294 -11q-59 0 -106 16.5t-81 49.5t-52 82t-18 115q0 65 19 113.5t53 81t82 48.5t107 16q58 0 105.5 -17t81 -50t51.5 -82t18 -114t-19 -113.5t-53 -80.5t-82 -48.5t-106 -16.5zM156 249q0 -83 37 -120.5t103 -37.5q67 0 103 38.5t36 118.5v3q0 83 -37.5 120.5
t-103.5 37.5q-67 -1 -102.5 -39.5t-35.5 -117.5v-3zM142 709h309v-94h-309v94z" />
    <glyph glyph-name="Ohungarumlaut" unicode="&#x150;" horiz-adv-x="831" 
d="M41 351q0 79 26.5 145t75.5 114t118 74.5t155 26.5q84 0 153.5 -25t118.5 -71.5t76 -113.5t27 -152q0 -79 -26.5 -145t-75.5 -114t-118.5 -74.5t-154.5 -26.5q-84 0 -153.5 24.5t-118.5 71t-76 114t-27 152.5zM173 350q0 -51 15.5 -96t46.5 -78t76.5 -52.5t105.5 -19.5
q56 0 100.5 18t76 50t48.5 77.5t17 100.5q0 51 -15.5 96t-46.5 78t-76.5 52.5t-105.5 19.5q-56 0 -101 -18t-76.5 -50.5t-48 -77.5t-16.5 -100zM291 744l70 125h145l-118 -125h-97zM458 744l117 125h166l-185 -125h-98z" />
    <glyph glyph-name="ohungarumlaut" unicode="&#x151;" horiz-adv-x="591" 
d="M294 -11q-59 0 -106 16.5t-81 49.5t-52 82t-18 115q0 65 19 113.5t53 81t82 48.5t107 16q58 0 105.5 -17t81 -50t51.5 -82t18 -114t-19 -113.5t-53 -80.5t-82 -48.5t-106 -16.5zM156 249q0 -83 37 -120.5t103 -37.5q67 0 103 38.5t36 118.5v3q0 83 -37.5 120.5
t-103.5 37.5q-67 -1 -102.5 -39.5t-35.5 -117.5v-3zM151 581l60 169h135l-108 -169h-87zM318 581l107 169h156l-175 -169h-88z" />
    <glyph glyph-name="OE" unicode="&#x152;" horiz-adv-x="1078" 
d="M972 303h-321v-188h369v-115h-593q-195 0 -290.5 87.5t-95.5 248.5q0 96 28.5 165t80 113t122.5 65t157 21h580v-115h-358v-167h321v-115zM172 348q0 -117 62 -175t195 -58h97v470h-96q-131 0 -194.5 -61t-63.5 -176z" />
    <glyph glyph-name="oe" unicode="&#x153;" horiz-adv-x="890" 
d="M620 511q110 0 171.5 -64t61.5 -183v-48h-371q14 -125 151 -125q69 0 114.5 23t65.5 56v-120q-9 -11 -26 -21.5t-41 -19.5t-53.5 -14t-63.5 -5q-131 0 -199 71q-23 -31 -64.5 -51.5t-101.5 -20.5q-49 0 -90.5 14.5t-71.5 45.5t-46.5 77.5t-16.5 111.5q0 73 16.5 124.5
t47.5 84.5t73.5 48t95.5 15q54 0 96 -20t65 -50q69 71 187 71zM291 407q-71 0 -103 -37.5t-32 -126.5q0 -41 9.5 -69.5t27 -46.5t42 -26t54.5 -8q65 0 98 35q-21 52 -21 124q0 67 21 117q-35 38 -96 38zM736 299q-2 51 -33 80.5t-85 29.5q-57 0 -91 -28t-43 -82h252z" />
    <glyph glyph-name="Racute" unicode="&#x154;" horiz-adv-x="704" 
d="M374 221q-30 -3 -62 -3h-96v-218h-125v700h221q166 0 240.5 -59.5t74.5 -177.5q0 -156 -132 -214l179 -249h-150zM216 585v-252h105q88 0 132 30.5t44 102.5q0 65 -41 92t-133 27h-107zM304 744l120 125h176l-193 -125h-103z" />
    <glyph glyph-name="racute" unicode="&#x155;" horiz-adv-x="393" 
d="M311 509q15 0 31 -4.5t23 -9.5v-122q-12 14 -34.5 24t-52.5 10q-95 0 -90 -129v-278h-117v500h110v-102q4 22 15.5 42.5t28 35.5t38.5 24t48 9zM163 581l80 169h166l-158 -169h-88z" />
    <glyph glyph-name="Rcommaaccent" unicode="&#x156;" horiz-adv-x="704" 
d="M374 221q-30 -3 -62 -3h-96v-218h-125v700h221q166 0 240.5 -59.5t74.5 -177.5q0 -156 -132 -214l179 -249h-150zM216 585v-252h105q88 0 132 30.5t44 102.5q0 65 -41 92t-133 27h-107zM261 -258q45 8 72.5 29t32.5 44h-1q-40 0 -54.5 17.5t-14.5 42.5q0 26 14.5 44
t54.5 18q25 0 43 -10q15 -8 25 -27.5t10 -50.5q0 -35 -14 -62.5t-34.5 -47t-44.5 -31t-44 -15.5l-45 49v0z" />
    <glyph glyph-name="rcommaaccent" unicode="&#x157;" horiz-adv-x="393" 
d="M311 509q15 0 31 -4.5t23 -9.5v-122q-12 14 -34.5 24t-52.5 10q-95 0 -90 -129v-278h-117v500h110v-102q4 22 15.5 42.5t28 35.5t38.5 24t48 9zM56 -258q45 8 72.5 29t32.5 44h-1q-40 0 -54.5 17.5t-14.5 42.5q0 26 14.5 44t54.5 18q25 0 43 -10q15 -8 25 -27.5t10 -50.5
q0 -35 -14 -62.5t-34.5 -47t-44.5 -31t-44 -15.5l-45 49v0z" />
    <glyph glyph-name="Rcaron" unicode="&#x158;" horiz-adv-x="704" 
d="M374 221q-30 -3 -62 -3h-96v-218h-125v700h221q166 0 240.5 -59.5t74.5 -177.5q0 -156 -132 -214l179 -249h-150zM216 585v-252h105q88 0 132 30.5t44 102.5q0 65 -41 92t-133 27h-107zM295 744l-137 125h78l115 -48l117 48h78l-137 -125h-114z" />
    <glyph glyph-name="rcaron" unicode="&#x159;" horiz-adv-x="393" 
d="M311 509q15 0 31 -4.5t23 -9.5v-122q-12 14 -34.5 24t-52.5 10q-95 0 -90 -129v-278h-117v500h110v-102q4 22 15.5 42.5t28 35.5t38.5 24t48 9zM179 586l-137 164h73l110 -73l112 73h73l-137 -164h-94z" />
    <glyph glyph-name="Sacute" unicode="&#x15a;" horiz-adv-x="647" 
d="M558 475q-15 23 -38.5 45t-53 39t-64 27t-73.5 10q-74 -1 -106.5 -22t-32.5 -57q0 -27 17.5 -44t45.5 -28t64 -19.5t74 -18.5t74 -24.5t64 -37.5t45.5 -58t17.5 -86q0 -44 -16 -83t-50 -67.5t-85.5 -45t-121.5 -16.5q-46 0 -86.5 8t-73.5 20.5t-57.5 28t-38.5 31.5v154
q16 -27 41 -50t57.5 -40t72.5 -27t86 -10q74 0 109 24t35 67q0 37 -29.5 55.5t-74.5 30.5t-96.5 24t-96.5 35t-74.5 63.5t-29.5 110.5q0 94 70 145.5t196 51.5q81 -1 140 -20.5t89 -42.5v-173v0zM276 744l120 125h176l-193 -125h-103z" />
    <glyph glyph-name="sacute" unicode="&#x15b;" horiz-adv-x="473" 
d="M415 319q-26 40 -65.5 64.5t-94.5 25.5h-2q-40 0 -62.5 -12t-22.5 -36q0 -19 19.5 -30.5t49 -20.5t63.5 -18.5t63.5 -27t49 -45.5t19.5 -72q0 -75 -51 -116t-145 -42q-33 0 -62.5 6t-54 14.5t-42.5 19t-27 21.5v121q22 -34 69 -58t117 -22q41 1 60 15t19 37
q0 20 -19.5 31.5t-49 21t-63.5 20t-63.5 28t-49 45.5t-19.5 72q0 66 50.5 108t153.5 42q51 -1 93 -14t67 -32v-146v0zM174 581l80 169h166l-158 -169h-88z" />
    <glyph glyph-name="Scircumflex" unicode="&#x15c;" horiz-adv-x="647" 
d="M558 475q-15 23 -38.5 45t-53 39t-64 27t-73.5 10q-74 -1 -106.5 -22t-32.5 -57q0 -27 17.5 -44t45.5 -28t64 -19.5t74 -18.5t74 -24.5t64 -37.5t45.5 -58t17.5 -86q0 -44 -16 -83t-50 -67.5t-85.5 -45t-121.5 -16.5q-46 0 -86.5 8t-73.5 20.5t-57.5 28t-38.5 31.5v154
q16 -27 41 -50t57.5 -40t72.5 -27t86 -10q74 0 109 24t35 67q0 37 -29.5 55.5t-74.5 30.5t-96.5 24t-96.5 35t-74.5 63.5t-29.5 110.5q0 94 70 145.5t196 51.5q81 -1 140 -20.5t89 -42.5v-173v0zM519 744h-78l-117 48l-115 -48h-78l137 125h114z" />
    <glyph glyph-name="scircumflex" unicode="&#x15d;" horiz-adv-x="473" 
d="M415 319q-26 40 -65.5 64.5t-94.5 25.5h-2q-40 0 -62.5 -12t-22.5 -36q0 -19 19.5 -30.5t49 -20.5t63.5 -18.5t63.5 -27t49 -45.5t19.5 -72q0 -75 -51 -116t-145 -42q-33 0 -62.5 6t-54 14.5t-42.5 19t-27 21.5v121q22 -34 69 -58t117 -22q41 1 60 15t19 37
q0 20 -19.5 31.5t-49 21t-63.5 20t-63.5 28t-49 45.5t-19.5 72q0 66 50.5 108t153.5 42q51 -1 93 -14t67 -32v-146v0zM284 750l137 -164h-73l-110 73l-112 -73h-73l137 164h94z" />
    <glyph glyph-name="Scedilla" unicode="&#x15e;" horiz-adv-x="647" 
d="M558 475q-15 23 -38.5 45t-53 39t-64 27t-73.5 10q-74 -1 -106.5 -22t-32.5 -57q0 -27 17.5 -44t45.5 -28t64 -19.5t74 -18.5t74 -24.5t64 -37.5t45.5 -58t17.5 -86q0 -41 -14 -77.5t-43 -64.5t-73.5 -46t-104.5 -22l-23 -49q52 -8 80.5 -30t28.5 -60q0 -32 -18.5 -55.5
t-49.5 -38.5t-70.5 -22.5t-82.5 -7.5v51q18 0 36.5 4t33.5 11.5t24.5 18.5t9.5 26q0 24 -22 34.5t-64 12.5l41 105q-39 3 -73.5 11.5t-62.5 20.5t-49 26t-33 28v154q16 -27 41 -50t57.5 -40t72.5 -27t86 -10q74 0 109 24t35 67q0 37 -29.5 55.5t-74.5 30.5t-96.5 24
t-96.5 35t-74.5 63.5t-29.5 110.5q0 94 70 145.5t196 51.5q81 -1 140 -20.5t89 -42.5v-173v0z" />
    <glyph glyph-name="scedilla" unicode="&#x15f;" horiz-adv-x="473" 
d="M415 319q-26 40 -65.5 64.5t-94.5 25.5h-2q-40 0 -62.5 -12t-22.5 -36q0 -19 19.5 -30.5t49 -20.5t63.5 -18.5t63.5 -27t49 -45.5t19.5 -72q0 -67 -41.5 -107.5t-119.5 -48.5l-23 -49q52 -8 80.5 -30t28.5 -60q0 -32 -18.5 -55.5t-49.5 -38.5t-70.5 -22.5t-82.5 -7.5v51
q18 0 36.5 4t33.5 11.5t24.5 18.5t9.5 26q0 24 -22 34.5t-64 12.5l41 106q-52 6 -90.5 23t-54.5 35v121q22 -34 69 -58t117 -22q41 1 60 15t19 37q0 20 -19.5 31.5t-49 21t-63.5 20t-63.5 28t-49 45.5t-19.5 72q0 66 50.5 108t153.5 42q51 -1 93 -14t67 -32v-146v0z" />
    <glyph glyph-name="Scaron" unicode="&#x160;" horiz-adv-x="647" 
d="M558 475q-15 23 -38.5 45t-53 39t-64 27t-73.5 10q-74 -1 -106.5 -22t-32.5 -57q0 -27 17.5 -44t45.5 -28t64 -19.5t74 -18.5t74 -24.5t64 -37.5t45.5 -58t17.5 -86q0 -44 -16 -83t-50 -67.5t-85.5 -45t-121.5 -16.5q-46 0 -86.5 8t-73.5 20.5t-57.5 28t-38.5 31.5v154
q16 -27 41 -50t57.5 -40t72.5 -27t86 -10q74 0 109 24t35 67q0 37 -29.5 55.5t-74.5 30.5t-96.5 24t-96.5 35t-74.5 63.5t-29.5 110.5q0 94 70 145.5t196 51.5q81 -1 140 -20.5t89 -42.5v-173v0zM267 744l-137 125h78l115 -48l117 48h78l-137 -125h-114z" />
    <glyph glyph-name="scaron" unicode="&#x161;" horiz-adv-x="473" 
d="M415 319q-26 40 -65.5 64.5t-94.5 25.5h-2q-40 0 -62.5 -12t-22.5 -36q0 -19 19.5 -30.5t49 -20.5t63.5 -18.5t63.5 -27t49 -45.5t19.5 -72q0 -75 -51 -116t-145 -42q-33 0 -62.5 6t-54 14.5t-42.5 19t-27 21.5v121q22 -34 69 -58t117 -22q41 1 60 15t19 37
q0 20 -19.5 31.5t-49 21t-63.5 20t-63.5 28t-49 45.5t-19.5 72q0 66 50.5 108t153.5 42q51 -1 93 -14t67 -32v-146v0zM190 586l-137 164h73l110 -73l112 73h73l-137 -164h-94z" />
    <glyph glyph-name="Tcommaaccent" unicode="&#x162;" horiz-adv-x="621" 
d="M607 585h-236v-585h-22l-28 -58q52 -8 80.5 -30t28.5 -60q0 -32 -18.5 -55.5t-49.5 -38.5t-70.5 -22.5t-82.5 -7.5v51q18 0 36.5 4t33.5 11.5t24.5 18.5t9.5 26q0 24 -22 34.5t-64 12.5l45 114h-26v585h-232v115h593v-115z" />
    <glyph glyph-name="tcommaaccent" unicode="&#x163;" horiz-adv-x="445" 
d="M228 670v-170h179v-103h-179v-217q0 -50 16.5 -68.5t58.5 -18.5q32 0 61.5 9t51.5 23v-101q-13 -11 -40.5 -19t-58.5 -12l-24 -51q52 -8 80.5 -30t28.5 -60q0 -32 -18.5 -55.5t-49.5 -38.5t-70.5 -22.5t-82.5 -7.5v51q18 0 36.5 4t33.5 11.5t24.5 18.5t9.5 26
q0 24 -22 34.5t-64 12.5l42 107q-64 8 -97 43.5t-33 109.5v251h-91v103h91v86z" />
    <glyph glyph-name="Tcaron" unicode="&#x164;" horiz-adv-x="621" 
d="M607 585h-236v-585h-125v585h-232v115h593v-115zM254 744l-137 125h78l115 -48l117 48h78l-137 -125h-114z" />
    <glyph glyph-name="tcaron" unicode="&#x165;" horiz-adv-x="445" 
d="M228 670v-170h179v-103h-179v-217q0 -50 16.5 -68.5t58.5 -18.5q32 0 61.5 9t51.5 23v-101q-8 -7 -23 -13t-33 -10.5t-38 -7.5t-39 -3q-85 0 -128.5 35.5t-43.5 120.5v251h-91v103h91v86zM352 750h124l-86 -200h-84z" />
    <glyph glyph-name="Umacron" unicode="&#x16a;" horiz-adv-x="769" 
d="M211 286q0 -48 13.5 -82.5t37.5 -57t57 -33t72 -10.5q79 0 122.5 40t43.5 131v426h125v-413q0 -77 -20.5 -133.5t-59 -93.5t-93 -54.5t-123.5 -17.5q-77 0 -133 20.5t-93.5 58.5t-55.5 91.5t-18 120.5v421h125v-414zM231 854h309v-94h-309v94z" />
    <glyph glyph-name="umacron" unicode="&#x16b;" horiz-adv-x="592" 
d="M181 198q0 -54 23 -79t75 -26q126 0 125 129v278h117v-500h-110v102q-15 -46 -60.5 -78.5t-115.5 -32.5h-2q-80 2 -124 44.5t-44 130.5v334h116v-302zM142 709h309v-94h-309v94z" />
    <glyph glyph-name="Ubreve" unicode="&#x16c;" horiz-adv-x="769" 
d="M211 286q0 -48 13.5 -82.5t37.5 -57t57 -33t72 -10.5q79 0 122.5 40t43.5 131v426h125v-413q0 -77 -20.5 -133.5t-59 -93.5t-93 -54.5t-123.5 -17.5q-77 0 -133 20.5t-93.5 58.5t-55.5 91.5t-18 120.5v421h125v-414zM385 744q-74 0 -119 36t-62 89h60q23 -21 51 -31
t70 -10t73.5 10t47.5 31h60q-18 -59 -65.5 -92t-115.5 -33z" />
    <glyph glyph-name="ubreve" unicode="&#x16d;" horiz-adv-x="592" 
d="M181 198q0 -54 23 -79t75 -26q126 0 125 129v278h117v-500h-110v102q-15 -46 -60.5 -78.5t-115.5 -32.5h-2q-80 2 -124 44.5t-44 130.5v334h116v-302zM296 581q-39 0 -69 13t-52 35.5t-35.5 53.5t-18.5 67h64q14 -32 41.5 -51.5t69.5 -19.5t69.5 19.5t41.5 51.5h64
q-5 -36 -19.5 -67t-37 -53.5t-52.5 -35.5t-66 -13z" />
    <glyph glyph-name="Uring" unicode="&#x16e;" horiz-adv-x="769" 
d="M211 286q0 -48 13.5 -82.5t37.5 -57t57 -33t72 -10.5q79 0 122.5 40t43.5 131v426h125v-413q0 -77 -20.5 -133.5t-59 -93.5t-93 -54.5t-123.5 -17.5q-77 0 -133 20.5t-93.5 58.5t-55.5 91.5t-18 120.5v421h125v-414zM252 784q0 45 37 70t97 25t96.5 -25t36.5 -70
t-36.5 -69.5t-96.5 -24.5t-97 24.5t-37 69.5zM333 784q0 -14 11.5 -22t41.5 -8q29 0 40.5 8t11.5 22t-11.5 22.5t-40.5 8.5q-30 0 -41.5 -8.5t-11.5 -22.5z" />
    <glyph glyph-name="uring" unicode="&#x16f;" horiz-adv-x="592" 
d="M181 198q0 -54 23 -79t75 -26q126 0 125 129v278h117v-500h-110v102q-15 -46 -60.5 -78.5t-115.5 -32.5h-2q-80 2 -124 44.5t-44 130.5v334h116v-302zM178 691q0 48 31.5 78.5t86.5 30.5t86.5 -30.5t31.5 -78.5t-31.5 -79t-86.5 -31t-86.5 31t-31.5 79zM252 691
q0 -22 12 -34.5t32 -12.5t32 12.5t12 34.5q0 21 -11.5 33.5t-32.5 12.5q-20 0 -32 -12.5t-12 -33.5z" />
    <glyph glyph-name="Uhungarumlaut" unicode="&#x170;" horiz-adv-x="769" 
d="M211 286q0 -48 13.5 -82.5t37.5 -57t57 -33t72 -10.5q79 0 122.5 40t43.5 131v426h125v-413q0 -77 -20.5 -133.5t-59 -93.5t-93 -54.5t-123.5 -17.5q-77 0 -133 20.5t-93.5 58.5t-55.5 91.5t-18 120.5v421h125v-414zM260 744l70 125h145l-118 -125h-97zM427 744l117 125
h166l-185 -125h-98z" />
    <glyph glyph-name="uhungarumlaut" unicode="&#x171;" horiz-adv-x="592" 
d="M181 198q0 -54 23 -79t75 -26q126 0 125 129v278h117v-500h-110v102q-15 -46 -60.5 -78.5t-115.5 -32.5h-2q-80 2 -124 44.5t-44 130.5v334h116v-302zM151 581l60 169h135l-108 -169h-87zM318 581l107 169h156l-175 -169h-88z" />
    <glyph glyph-name="Uogonek" unicode="&#x172;" horiz-adv-x="769" 
d="M211 286q0 -48 13.5 -82.5t37.5 -57t57 -33t72 -10.5q79 0 122.5 40t43.5 131v426h125v-413q0 -126 -52.5 -196t-146.5 -92q-37 -29 -62 -61t-25 -69q0 -31 19 -48t58 -17h10.5t10.5 1v-58q-14 -8 -40.5 -13.5t-55.5 -5.5q-35 0 -60.5 8.5t-42.5 23.5t-25 34.5t-8 41.5
q0 41 28.5 79.5t77.5 72.5q-72 3 -125 24.5t-88 59t-52 90t-17 117.5v421h125v-414z" />
    <glyph glyph-name="uogonek" unicode="&#x173;" horiz-adv-x="592" 
d="M181 198q0 -54 23 -79.5t75 -25.5q65 0 95 32t30 97v278h117v-500h-5q-37 -29 -63 -61.5t-26 -69.5q0 -31 19.5 -48t58.5 -17h10.5t10.5 1v-58q-14 -8 -40.5 -13.5t-55.5 -5.5q-35 0 -60.5 8.5t-42.5 23.5t-25 34.5t-8 41.5q0 45 33 86.5t90 77.5h-6v102
q-15 -46 -60.5 -78.5t-115.5 -32.5h-2q-80 2 -124 44.5t-44 130.5v334h116v-302z" />
    <glyph glyph-name="Ydieresis" unicode="&#x178;" horiz-adv-x="667" 
d="M395 258v-258h-125v265l-265 435h146l188 -315l181 315h142zM374 807q0 28 18.5 44.5t50.5 16.5t50.5 -16.5t18.5 -44.5q0 -29 -18.5 -46.5t-50.5 -17.5t-50.5 17.5t-18.5 46.5zM157 807q0 28 18.5 44.5t50.5 16.5t50.5 -16.5t18.5 -44.5q0 -29 -18.5 -46.5t-50.5 -17.5
t-50.5 17.5t-18.5 46.5z" />
    <glyph glyph-name="Zacute" unicode="&#x179;" horiz-adv-x="633" 
d="M40 700h556l2 -95l-408 -490h405v-115h-562l-3 95l411 490h-401v115zM269 744l120 125h176l-193 -125h-103z" />
    <glyph glyph-name="zacute" unicode="&#x17a;" horiz-adv-x="502" 
d="M37 0v96l290 301h-277v103h414v-96l-292 -301h293v-103h-428zM188 581l80 169h166l-158 -169h-88z" />
    <glyph glyph-name="Zdotaccent" unicode="&#x17b;" horiz-adv-x="633" 
d="M40 700h556l2 -95l-408 -490h405v-115h-562l-3 95l411 490h-401v115zM248 807q0 28 19 44.5t51 16.5q31 0 49.5 -16.5t18.5 -44.5q0 -29 -18.5 -46.5t-49.5 -17.5q-32 0 -51 17.5t-19 46.5z" />
    <glyph glyph-name="zdotaccent" unicode="&#x17c;" horiz-adv-x="502" 
d="M37 0v96l290 301h-277v103h414v-96l-292 -301h293v-103h-428zM182 690q0 29 19 46.5t51 17.5q31 0 49.5 -17.5t18.5 -46.5q0 -30 -18.5 -48.5t-49.5 -18.5q-32 0 -51 18.5t-19 48.5z" />
    <glyph glyph-name="Zcaron" unicode="&#x17d;" horiz-adv-x="633" 
d="M40 700h556l2 -95l-408 -490h405v-115h-562l-3 95l411 490h-401v115zM260 744l-137 125h78l115 -48l117 48h78l-137 -125h-114z" />
    <glyph glyph-name="zcaron" unicode="&#x17e;" horiz-adv-x="502" 
d="M37 0v96l290 301h-277v103h414v-96l-292 -301h293v-103h-428zM204 586l-137 164h73l110 -73l112 73h73l-137 -164h-94z" />
    <glyph glyph-name="uni018F" unicode="&#x18f;" horiz-adv-x="783" 
d="M149 648q31 22 90 42t142 21q81 0 148 -24.5t114.5 -71t73.5 -114t26 -152.5q0 -79 -25 -145t-71 -114t-112 -74.5t-148 -26.5q-73 0 -136 21.5t-109.5 65.5t-73.5 111t-27 159v63h569q-8 40 -26 74.5t-46.5 59t-68 39t-88.5 14.5q-39 0 -74.5 -10.5t-65 -27.5t-53 -39
t-39.5 -45v174zM387 104q94 0 154 50.5t72 148.5h-439q1 -43 16.5 -79.5t42.5 -63t66 -41.5t88 -15z" />
    <glyph glyph-name="florin" unicode="&#x192;" horiz-adv-x="429" 
d="M117 493l8 75q11 104 57.5 149t124.5 45q36 0 61.5 -8.5t41.5 -17.5v-126q-14 21 -36.5 33.5t-54.5 12.5t-52.5 -18.5t-25.5 -69.5l-8 -75h153v-102h-164l-42 -409q-5 -42 -15 -75t-29 -55.5t-49 -34t-74 -11.5q-26 0 -47.5 6t-35.5 14v114q29 -29 71 -29q31 0 45 17
t18 56l42 407h-64v102h75z" />
    <glyph glyph-name="uni01DD" unicode="&#x1dd;" horiz-adv-x="568" 
d="M80 458q11 9 30 18.5t42.5 17t51 12t56.5 4.5q124 1 194 -66t70 -196q0 -62 -18.5 -110.5t-52.5 -81.5t-80.5 -50t-103.5 -17q-110 0 -171 64t-61 184v47h370q-14 125 -151 125q-60 0 -105 -23.5t-71 -60.5v133zM272 91q56 0 90 28t43 82h-252q2 -51 33.5 -80.5
t85.5 -29.5z" />
    <glyph glyph-name="Gcaron" unicode="&#x1e6;" horiz-adv-x="752" 
d="M420 -11q-86 1 -155.5 25.5t-119.5 71t-77 113.5t-27 152q0 79 27 145t76.5 113.5t119.5 74.5t157 27q83 0 142 -20.5t90 -42.5v-174q-16 23 -39.5 45t-53 39t-65 27.5t-74.5 10.5q-57 0 -102.5 -18t-77 -50.5t-48.5 -77.5t-17 -100q0 -51 16 -96t47 -78t77.5 -52.5
t107.5 -19.5q47 0 82 9t61 25v130h-142v115h258v-294q-12 -18 -38.5 -36t-62.5 -32t-78 -23t-84 -9zM361 744l-137 125h78l115 -48l117 48h78l-137 -125h-114z" />
    <glyph glyph-name="gcaron" unicode="&#x1e7;" horiz-adv-x="610" 
d="M422 83q-9 -18 -23.5 -35t-35 -30t-48 -21t-62.5 -8q-48 0 -87.5 14.5t-68 44.5t-44.5 77t-16 113q0 74 16 125.5t45.5 84t71.5 47.5t93 15q65 0 106.5 -29.5t58.5 -68.5v88h110v-450q0 -70 -17.5 -117.5t-50.5 -77t-80 -42.5t-105 -13q-70 0 -123 17.5t-74 36.5v130
q11 -15 29 -29.5t41.5 -26t53 -18.5t63.5 -7q37 0 64.5 7t46 23t27.5 42t9 64v44zM289 407q-71 0 -103 -37.5t-32 -126.5q0 -41 9.5 -69.5t27 -46.5t42 -26t54.5 -8q64 0 97 31t38 87v74q-5 59 -40.5 90.5t-92.5 31.5zM258 586l-137 164h73l110 -73l112 73h73l-137 -164h-94
z" />
    <glyph glyph-name="Scommaaccent" unicode="&#x218;" horiz-adv-x="647" 
d="M558 475q-15 23 -38.5 45t-53 39t-64 27t-73.5 10q-74 -1 -106.5 -22t-32.5 -57q0 -27 17.5 -44t45.5 -28t64 -19.5t74 -18.5t74 -24.5t64 -37.5t45.5 -58t17.5 -86q0 -44 -16 -83t-50 -67.5t-85.5 -45t-121.5 -16.5q-46 0 -86.5 8t-73.5 20.5t-57.5 28t-38.5 31.5v154
q16 -27 41 -50t57.5 -40t72.5 -27t86 -10q74 0 109 24t35 67q0 37 -29.5 55.5t-74.5 30.5t-96.5 24t-96.5 35t-74.5 63.5t-29.5 110.5q0 94 70 145.5t196 51.5q81 -1 140 -20.5t89 -42.5v-173v0zM233 -258q45 8 72.5 29t32.5 44h-1q-40 0 -54.5 17.5t-14.5 42.5
q0 26 14.5 44t54.5 18q25 0 43 -10q15 -8 25 -27.5t10 -50.5q0 -35 -14 -62.5t-34.5 -47t-44.5 -31t-44 -15.5l-45 49v0z" />
    <glyph glyph-name="scommaaccent" unicode="&#x219;" horiz-adv-x="473" 
d="M415 319q-26 40 -65.5 64.5t-94.5 25.5h-2q-40 0 -62.5 -12t-22.5 -36q0 -19 19.5 -30.5t49 -20.5t63.5 -18.5t63.5 -27t49 -45.5t19.5 -72q0 -75 -51 -116t-145 -42q-33 0 -62.5 6t-54 14.5t-42.5 19t-27 21.5v121q22 -34 69 -58t117 -22q41 1 60 15t19 37
q0 20 -19.5 31.5t-49 21t-63.5 20t-63.5 28t-49 45.5t-19.5 72q0 66 50.5 108t153.5 42q51 -1 93 -14t67 -32v-146v0zM146 -258q45 8 72.5 29t32.5 44h-1q-40 0 -54.5 17.5t-14.5 42.5q0 26 14.5 44t54.5 18q25 0 43 -10q15 -8 25 -27.5t10 -50.5q0 -35 -14 -62.5t-34.5 -47
t-44.5 -31t-44 -15.5l-45 49v0z" />
    <glyph glyph-name="uni021A" unicode="&#x21a;" horiz-adv-x="621" 
d="M607 585h-236v-585h-125v585h-232v115h593v-115zM220 -258q45 8 72.5 29t32.5 44h-1q-40 0 -54.5 17.5t-14.5 42.5q0 26 14.5 44t54.5 18q25 0 43 -10q15 -8 25 -27.5t10 -50.5q0 -35 -14 -62.5t-34.5 -47t-44.5 -31t-44 -15.5l-45 49v0z" />
    <glyph glyph-name="uni021B" unicode="&#x21b;" horiz-adv-x="445" 
d="M228 670v-170h179v-103h-179v-217q0 -50 16.5 -68.5t58.5 -18.5q32 0 61.5 9t51.5 23v-101q-8 -7 -23 -13t-33 -10.5t-38 -7.5t-39 -3q-85 0 -128.5 35.5t-43.5 120.5v251h-91v103h91v86zM191 -258q45 8 72.5 29t32.5 44h-1q-40 0 -54.5 17.5t-14.5 42.5q0 26 14.5 44
t54.5 18q25 0 43 -10q15 -8 25 -27.5t10 -50.5q0 -35 -14 -62.5t-34.5 -47t-44.5 -31t-44 -15.5l-45 49v0z" />
    <glyph glyph-name="uni0237" unicode="&#x237;" horiz-adv-x="266" 
d="M78 500h117v-523q0 -86 -38.5 -131t-127.5 -45q-26 0 -47 5.5t-35 13.5v115q26 -29 71 -29q30 0 45 16.5t15 56.5v521z" />
    <glyph glyph-name="uni0259" unicode="&#x259;" horiz-adv-x="568" 
d="M80 458q11 9 30 18.5t42.5 17t51 12t56.5 4.5q124 1 194 -66t70 -196q0 -62 -18.5 -110.5t-52.5 -81.5t-80.5 -50t-103.5 -17q-110 0 -171 64t-61 184v47h370q-14 125 -151 125q-60 0 -105 -23.5t-71 -60.5v133zM272 91q56 0 90 28t43 82h-252q2 -51 33.5 -80.5
t85.5 -29.5z" />
    <glyph glyph-name="afii57929" unicode="&#x2bc;" horiz-adv-x="225" 
d="M91 700h124l-86 -200h-84z" />
    <glyph glyph-name="circumflex" unicode="&#x2c6;" horiz-adv-x="448" 
d="M271 750l137 -164h-73l-110 73l-112 -73h-73l137 164h94z" />
    <glyph glyph-name="caron" unicode="&#x2c7;" horiz-adv-x="448" 
d="M177 586l-137 164h73l110 -73l112 73h73l-137 -164h-94z" />
    <glyph glyph-name="breve" unicode="&#x2d8;" horiz-adv-x="430" 
d="M215 581q-39 0 -69 13t-52 35.5t-35.5 53.5t-18.5 67h64q14 -32 41.5 -51.5t69.5 -19.5t69.5 19.5t41.5 51.5h64q-5 -36 -19.5 -67t-37 -53.5t-52.5 -35.5t-66 -13z" />
    <glyph glyph-name="dotaccent" unicode="&#x2d9;" horiz-adv-x="218" 
d="M40 690q0 29 19 46.5t51 17.5q31 0 49.5 -17.5t18.5 -46.5q0 -30 -18.5 -48.5t-49.5 -18.5q-32 0 -51 18.5t-19 48.5z" />
    <glyph glyph-name="ring" unicode="&#x2da;" horiz-adv-x="316" 
d="M40 691q0 48 31.5 78.5t86.5 30.5t86.5 -30.5t31.5 -78.5t-31.5 -79t-86.5 -31t-86.5 31t-31.5 79zM114 691q0 -22 12 -34.5t32 -12.5t32 12.5t12 34.5q0 21 -11.5 33.5t-32.5 12.5q-20 0 -32 -12.5t-12 -33.5z" />
    <glyph glyph-name="ogonek" unicode="&#x2db;" horiz-adv-x="312" 
d="M262 0q-37 -29 -63 -61.5t-26 -69.5q0 -31 19.5 -48t58.5 -17h10.5t10.5 1v-58q-14 -8 -40.5 -13.5t-55.5 -5.5q-35 0 -60.5 8.5t-42.5 23.5t-25 34.5t-8 41.5q0 55 51 106t132 92l39 -34v0z" />
    <glyph glyph-name="tilde" unicode="&#x2dc;" horiz-adv-x="452" 
d="M412 743q-8 -43 -20 -71t-28 -45t-35 -24t-40 -7q-22 0 -41 6.5t-36.5 14.5t-33.5 14.5t-31 6.5q-18 0 -29 -11t-19 -31h-59q9 44 22.5 72t30 44.5t34.5 23t34 6.5q19 0 37.5 -6.5t35.5 -14.5t32.5 -14.5t29.5 -6.5q40 0 57 43h59v0z" />
    <glyph glyph-name="hungarumlaut" unicode="&#x2dd;" horiz-adv-x="510" 
d="M40 581l60 169h135l-108 -169h-87zM207 581l107 169h156l-175 -169h-88z" />
    <glyph glyph-name="acutecomb" unicode="&#x301;" horiz-adv-x="0" 
d="M-313 581l80 169h166l-158 -169h-88z" />
    <glyph glyph-name="Delta" unicode="&#x394;" horiz-adv-x="694" 
d="M685 0h-674l269 700h135zM174 115h346l-173 449z" />
    <glyph glyph-name="Delta" unicode="&#x2206;" horiz-adv-x="694" 
d="M685 0h-674l269 700h135zM174 115h346l-173 449z" />
    <glyph glyph-name="Omega" unicode="&#x3a9;" horiz-adv-x="831" 
d="M36 115h106q-54 42 -82.5 106.5t-28.5 152.5q0 74 26 136t75.5 106.5t121 69.5t162.5 25q90 0 161 -23.5t121 -67t76.5 -106t26.5 -142.5q0 -84 -29.5 -149t-86.5 -108h113v-115h-353v115q103 7 163.5 65.5t60.5 169.5q0 51 -15.5 96t-47 78t-79.5 52.5t-112 19.5
q-60 0 -107 -18t-79 -50.5t-49 -77.5t-17 -100q0 -103 56.5 -165t168.5 -70v-115h-352v115z" />
    <glyph glyph-name="Omega" unicode="&#x2126;" horiz-adv-x="831" 
d="M36 115h106q-54 42 -82.5 106.5t-28.5 152.5q0 74 26 136t75.5 106.5t121 69.5t162.5 25q90 0 161 -23.5t121 -67t76.5 -106t26.5 -142.5q0 -84 -29.5 -149t-86.5 -108h113v-115h-353v115q103 7 163.5 65.5t60.5 169.5q0 51 -15.5 96t-47 78t-79.5 52.5t-112 19.5
q-60 0 -107 -18t-79 -50.5t-49 -77.5t-17 -100q0 -103 56.5 -165t168.5 -70v-115h-352v115z" />
    <glyph glyph-name="pi" unicode="&#x3c0;" horiz-adv-x="695" 
d="M669 8q-12 -7 -41 -12.5t-61 -5.5q-68 0 -107 30t-39 100v277h-199v-397h-116v397h-70v103h578v-103h-76v-240q0 -37 13 -49t45 -12q23 0 42 4t31 9v-101z" />
    <glyph glyph-name="afii10023" unicode="&#x401;" horiz-adv-x="644" 
d="M538 303h-322v-188h370v-115h-495v700h484v-115h-359v-167h322v-115zM388 807q0 28 18.5 44.5t50.5 16.5t50.5 -16.5t18.5 -44.5q0 -29 -18.5 -46.5t-50.5 -17.5t-50.5 17.5t-18.5 46.5zM171 807q0 28 18.5 44.5t50.5 16.5t50.5 -16.5t18.5 -44.5q0 -29 -18.5 -46.5
t-50.5 -17.5t-50.5 17.5t-18.5 46.5z" />
    <glyph glyph-name="afii10051" unicode="&#x402;" horiz-adv-x="846" 
d="M14 700h593v-115h-234v-138q32 13 78 22t95 9q70 0 119.5 -14.5t80.5 -41t45.5 -64.5t14.5 -85v-76q0 -103 -55.5 -153.5t-152.5 -50.5q-23 0 -45 3.5t-41 9.5t-34 13.5t-24 15.5v142q22 -29 55.5 -49t71.5 -20q49 0 74.5 23.5t25.5 75.5v33q0 31 -7.5 54.5t-25.5 39.5
t-48.5 23.5t-75.5 7.5q-41 0 -81 -8t-70 -22v-335h-125v585h-234v115z" />
    <glyph glyph-name="afii10052" unicode="&#x403;" horiz-adv-x="585" 
d="M566 585h-350v-585h-125v700h475v-115zM245 744l120 125h176l-193 -125h-103z" />
    <glyph glyph-name="afii10053" unicode="&#x404;" horiz-adv-x="707" 
d="M494 303h-315q7 -42 25.5 -78.5t48.5 -63t72 -41.5t95 -16q46 0 84.5 10t70 27t55.5 40t39 50v-154q-13 -16 -36.5 -31.5t-55.5 -28t-71.5 -20.5t-84.5 -8q-86 0 -156 25t-119.5 71.5t-77 113.5t-27.5 152q0 79 27 145t77 114t120.5 74.5t157.5 26.5q83 0 142 -20.5
t90 -42.5v-174q-16 23 -39.5 45t-53 39t-65 27.5t-74.5 10.5q-97 0 -159 -48.5t-81 -129.5h311v-115z" />
    <glyph glyph-name="afii10054" unicode="&#x405;" horiz-adv-x="647" 
d="M558 475q-15 23 -38.5 45t-53 39t-64 27t-73.5 10q-74 -1 -106.5 -22t-32.5 -57q0 -27 17.5 -44t45.5 -28t64 -19.5t74 -18.5t74 -24.5t64 -37.5t45.5 -58t17.5 -86q0 -44 -16 -83t-50 -67.5t-85.5 -45t-121.5 -16.5q-46 0 -86.5 8t-73.5 20.5t-57.5 28t-38.5 31.5v154
q16 -27 41 -50t57.5 -40t72.5 -27t86 -10q74 0 109 24t35 67q0 37 -29.5 55.5t-74.5 30.5t-96.5 24t-96.5 35t-74.5 63.5t-29.5 110.5q0 94 70 145.5t196 51.5q81 -1 140 -20.5t89 -42.5v-173v0z" />
    <glyph glyph-name="afii10055" unicode="&#x406;" horiz-adv-x="308" 
d="M216 0h-125v700h125v-700z" />
    <glyph glyph-name="afii10056" unicode="&#x407;" horiz-adv-x="308" 
d="M216 0h-125v700h125v-700zM194 807q0 28 18.5 44.5t50.5 16.5t50.5 -16.5t18.5 -44.5q0 -29 -18.5 -46.5t-50.5 -17.5t-50.5 17.5t-18.5 46.5zM-23 807q0 28 18.5 44.5t50.5 16.5t50.5 -16.5t18.5 -44.5q0 -29 -18.5 -46.5t-50.5 -17.5t-50.5 17.5t-18.5 46.5z" />
    <glyph glyph-name="afii10057" unicode="&#x408;" horiz-adv-x="461" 
d="M370 199q0 -103 -55.5 -153.5t-152.5 -50.5q-23 0 -45 3.5t-41 9.5t-34 13.5t-24 15.5v142q22 -29 55.5 -49t71.5 -20q49 0 74.5 23.5t25.5 75.5v491h125v-501z" />
    <glyph glyph-name="afii10058" unicode="&#x409;" horiz-adv-x="1090" 
d="M536 585h-246l-2 -33q-7 -127 -19 -218t-27.5 -153.5t-35 -100t-41.5 -57.5t-46.5 -26t-49.5 -6q-35 0 -56 10v126q8 -3 15.5 -4t14.5 -1q12 0 24.5 4t25 18.5t23.5 43t21 76.5t18 119t13 172l7 145h486v-218h74q166 0 240 -59.5t74 -177.5q0 -123 -79.5 -184t-234.5 -61
h-199v585zM661 367v-252h82q88 0 132.5 30.5t44.5 102.5q0 65 -41 92t-133 27h-85z" />
    <glyph glyph-name="afii10059" unicode="&#x40a;" horiz-adv-x="1152" 
d="M570 322h-354v-322h-125v700h125v-263h354v263h125v-262h127q144 0 217 -50t73 -165q0 -58 -21 -100t-59 -69.5t-92 -40.5t-121 -13h-249v322zM695 323v-208h123q37 0 67.5 4.5t52 16.5t33 33.5t11.5 56.5q0 31 -10.5 50.5t-31 29.5t-51.5 13.5t-71 3.5h-123z" />
    <glyph glyph-name="afii10060" unicode="&#x40b;" horiz-adv-x="838" 
d="M607 585h-234v-135q32 12 75.5 20t89.5 8q70 0 119.5 -14.5t80.5 -41t45.5 -64.5t14.5 -85v-273h-125v240q0 31 -7.5 54.5t-25.5 39.5t-48.5 23.5t-75.5 7.5q-38 0 -76 -6.5t-67 -19.5v-339h-125v585h-234v115h593v-115z" />
    <glyph glyph-name="afii10061" unicode="&#x40c;" horiz-adv-x="749" 
d="M216 0h-125v700h125v-294h105l225 294h152l-267 -333l310 -367h-160l-254 303h-111v-303zM307 744l120 125h176l-193 -125h-103z" />
    <glyph glyph-name="afii10062" unicode="&#x40e;" horiz-adv-x="713" 
d="M257 110q20 0 36 9t28 33l-306 548h145l225 -406l184 406h131l-257 -554q-21 -46 -42 -75.5t-43 -47t-45.5 -24.5t-50.5 -7q-24 0 -45.5 5t-35.5 11v130q14 -13 34 -20.5t42 -7.5zM562 880q-8 -74 -61 -110t-139 -36q-42 0 -78.5 6t-64 22.5t-45.5 45t-22 72.5h118
q5 -27 26 -42.5t64 -15.5q45 0 63.5 16t22.5 42h116z" />
    <glyph glyph-name="afii10145" unicode="&#x40f;" horiz-adv-x="802" 
d="M91 700h125v-585h370v585h125v-700h-251v-130h-118v130h-251v700z" />
    <glyph glyph-name="afii10017" unicode="&#x410;" horiz-adv-x="729" 
d="M721 0h-133l-67 166h-321l-66 -166h-127l284 700h142zM475 281l-115 287l-115 -287h230z" />
    <glyph glyph-name="afii10018" unicode="&#x411;" horiz-adv-x="689" 
d="M91 700h497v-115h-372v-125h137q145 0 217.5 -55t72.5 -171q0 -58 -20.5 -101.5t-59 -73t-92.5 -44.5t-121 -15h-259v700zM216 345v-230h133q37 0 67.5 6t52 20t33 37.5t11.5 58.5q0 63 -41.5 85.5t-122.5 22.5h-133z" />
    <glyph glyph-name="afii10019" unicode="&#x412;" horiz-adv-x="703" 
d="M91 0v700h304q236 0 236 -174q0 -60 -25 -100t-79 -61q65 -11 95 -51.5t30 -109.5q0 -54 -19 -93t-54.5 -63.5t-86 -36t-114.5 -11.5h-287zM386 115q72 0 106 23.5t34 74.5t-36 72t-102 21h-172v-191h170zM377 404q60 0 94.5 25t34.5 70q0 42 -29.5 64t-96.5 22h-164
v-181h161z" />
    <glyph glyph-name="afii10020" unicode="&#x413;" horiz-adv-x="585" 
d="M566 585h-350v-585h-125v700h475v-115z" />
    <glyph glyph-name="afii10021" unicode="&#x414;" horiz-adv-x="755" 
d="M83 115q15 36 27.5 79t22 96.5t15.5 119t7 145.5l2 145h492v-585h81v-245h-117v130h-489v-130h-117v245h76zM271 552q-6 -272 -66 -437h319v470h-253v-33z" />
    <glyph glyph-name="afii10022" unicode="&#x415;" horiz-adv-x="644" 
d="M538 303h-322v-188h370v-115h-495v700h484v-115h-359v-167h322v-115z" />
    <glyph glyph-name="afii10024" unicode="&#x416;" horiz-adv-x="1012" 
d="M568 405h104l159 295h135l-185 -334l216 -366h-149l-175 305h-105v-305h-125v305h-103l-176 -305h-149l215 356l-187 344h142l154 -295h104v295h125v-295z" />
    <glyph glyph-name="afii10025" unicode="&#x417;" horiz-adv-x="650" 
d="M69 648q30 22 89 42t143 20q59 0 107 -10.5t82.5 -32t53 -54.5t18.5 -79q0 -121 -124 -165q160 -24 160 -164q0 -45 -18 -84.5t-54 -68t-89.5 -45.5t-123.5 -17q-48 0 -89.5 7.5t-75 20t-58 28t-38.5 31.5v154q16 -27 41 -50t58 -40t74.5 -26.5t89.5 -9.5q32 0 60 7
t48.5 20.5t32.5 33.5t12 47q0 47 -36.5 69t-118.5 22h-106v103h105q34 0 57 7.5t37 20.5t20.5 30t6.5 37q0 24 -10 41.5t-28 28.5t-42 16.5t-52 6.5q-40 1 -75.5 -9t-65 -27.5t-53 -39.5t-38.5 -45v174z" />
    <glyph glyph-name="afii10026" unicode="&#x418;" horiz-adv-x="825" 
d="M216 177l382 523h136v-700h-125v531l-384 -531h-134v700h125v-523z" />
    <glyph glyph-name="afii10027" unicode="&#x419;" horiz-adv-x="825" 
d="M216 177l382 523h136v-700h-125v531l-384 -531h-134v700h125v-523zM618 880q-8 -74 -61 -110t-139 -36q-42 0 -78.5 6t-64 22.5t-45.5 45t-22 72.5h118q5 -27 26 -42.5t64 -15.5q45 0 63.5 16t22.5 42h116z" />
    <glyph glyph-name="afii10028" unicode="&#x41a;" horiz-adv-x="749" 
d="M216 0h-125v700h125v-294h105l225 294h152l-267 -333l310 -367h-160l-254 303h-111v-303z" />
    <glyph glyph-name="afii10029" unicode="&#x41b;" horiz-adv-x="772" 
d="M556 585h-266l-2 -33q-7 -127 -19 -218t-27.5 -153.5t-35 -100t-41.5 -57.5t-46.5 -26t-49.5 -6q-35 0 -56 10v126q8 -3 15.5 -4t14.5 -1q12 0 24.5 4t25 18.5t23.5 43t21 76.5t18 119t13 172l7 145h506v-700h-125v585z" />
    <glyph glyph-name="afii10030" unicode="&#x41c;" horiz-adv-x="950" 
d="M734 526l-225 -372h-63l-230 367v-521h-125v700h158l232 -381l230 381h148v-700h-125v526z" />
    <glyph glyph-name="afii10031" unicode="&#x41d;" horiz-adv-x="815" 
d="M599 303h-383v-303h-125v700h125v-282h383v282h125v-700h-125v303z" />
    <glyph glyph-name="afii10032" unicode="&#x41e;" horiz-adv-x="831" 
d="M41 351q0 79 26.5 145t75.5 114t118 74.5t155 26.5q84 0 153.5 -25t118.5 -71.5t76 -113.5t27 -152q0 -79 -26.5 -145t-75.5 -114t-118.5 -74.5t-154.5 -26.5q-84 0 -153.5 24.5t-118.5 71t-76 114t-27 152.5zM173 350q0 -51 15.5 -96t46.5 -78t76.5 -52.5t105.5 -19.5
q56 0 100.5 18t76 50t48.5 77.5t17 100.5q0 51 -15.5 96t-46.5 78t-76.5 52.5t-105.5 19.5q-56 0 -101 -18t-76.5 -50.5t-48 -77.5t-16.5 -100z" />
    <glyph glyph-name="afii10033" unicode="&#x41f;" horiz-adv-x="805" 
d="M589 585h-373v-585h-125v700h623v-700h-125v585z" />
    <glyph glyph-name="afii10034" unicode="&#x420;" horiz-adv-x="686" 
d="M216 218v-218h-125v700h233q166 0 240.5 -59.5t74.5 -177.5q0 -123 -80 -184t-235 -61h-108zM216 585v-252h117q88 0 132 30.5t44 102.5q0 65 -41 92t-133 27h-119z" />
    <glyph glyph-name="afii10035" unicode="&#x421;" horiz-adv-x="707" 
d="M669 77q-13 -16 -36.5 -31.5t-55.5 -28t-71.5 -20.5t-84.5 -8q-86 0 -156 25t-119.5 71.5t-77 113.5t-27.5 152q0 79 27 145t77 114t120.5 74.5t157.5 26.5q83 0 142 -20.5t90 -42.5v-174q-16 23 -39.5 45t-53 39t-65 27.5t-74.5 10.5q-57 0 -103 -18t-78 -50t-49 -77.5
t-17 -100.5q0 -51 15.5 -95.5t46 -77.5t76.5 -52.5t106 -20.5q46 0 84.5 10t70 27t55.5 40t39 50v-154z" />
    <glyph glyph-name="afii10036" unicode="&#x422;" horiz-adv-x="621" 
d="M607 585h-236v-585h-125v585h-232v115h593v-115z" />
    <glyph glyph-name="afii10037" unicode="&#x423;" horiz-adv-x="713" 
d="M257 110q20 0 36 9t28 33l-306 548h145l225 -406l184 406h131l-257 -554q-21 -46 -42 -75.5t-43 -47t-45.5 -24.5t-50.5 -7q-24 0 -45.5 5t-35.5 11v130q14 -13 34 -20.5t42 -7.5z" />
    <glyph glyph-name="afii10038" unicode="&#x424;" horiz-adv-x="921" 
d="M523 667h26q80 0 142 -21t104.5 -61t64.5 -97.5t22 -129.5q0 -77 -23 -135t-67 -97t-107.5 -59t-144.5 -20h-17v-67h-125v67h-26q-161 0 -247 82t-86 227q0 77 23 135t67 97t107.5 59t144.5 20h17v53h125v-53zM171 360q0 -55 16 -94t43.5 -63.5t65 -35.5t81.5 -11h21v402
h-19q-106 0 -157 -48.5t-51 -149.5zM523 558v-402h19q106 0 157 48.5t51 149.5q0 55 -16 94t-43.5 63.5t-65.5 35.5t-81 11h-21z" />
    <glyph glyph-name="afii10039" unicode="&#x425;" horiz-adv-x="702" 
d="M258 356l-237 344h150l179 -265l190 265h145l-250 -337l259 -363h-149l-199 282l-192 -282h-146z" />
    <glyph glyph-name="afii10040" unicode="&#x426;" horiz-adv-x="808" 
d="M91 700h125v-585h361v585h125v-585h81v-245h-117v130h-575v700z" />
    <glyph glyph-name="afii10041" unicode="&#x427;" horiz-adv-x="709" 
d="M188 476q0 -31 7.5 -54.5t25.5 -39t48.5 -23.5t76.5 -8q39 0 78 7t69 21v321h125v-700h-125v268q-32 -13 -76.5 -21t-92.5 -8q-71 0 -120.5 14.5t-80.5 41t-45.5 64t-14.5 84.5v257h125v-224z" />
    <glyph glyph-name="afii10042" unicode="&#x428;" horiz-adv-x="1033" 
d="M579 115h238v585h125v-700h-851v700h125v-585h238v585h125v-585z" />
    <glyph glyph-name="afii10043" unicode="&#x429;" horiz-adv-x="1048" 
d="M579 115h238v585h125v-585h81v-245h-117v130h-815v700h125v-585h238v585h125v-585z" />
    <glyph glyph-name="afii10044" unicode="&#x42a;" horiz-adv-x="752" 
d="M19 700h285v-218h93q166 0 240 -59.5t74 -177.5q0 -123 -79.5 -184t-234.5 -61h-218v585h-160v115zM304 367v-252h101q88 0 132.5 30.5t44.5 102.5q0 65 -41 92t-133 27h-104z" />
    <glyph glyph-name="afii10045" unicode="&#x42b;" horiz-adv-x="909" 
d="M216 482h83q166 0 240.5 -59.5t74.5 -177.5q0 -123 -80 -184t-234 -61h-209v700h125v-218zM693 700h125v-700h-125v700zM216 367v-252h92q88 0 132.5 30.5t44.5 102.5q0 65 -41 92t-134 27h-94z" />
    <glyph glyph-name="afii10046" unicode="&#x42c;" horiz-adv-x="666" 
d="M216 482h95q166 0 240.5 -59.5t74.5 -177.5q0 -123 -80 -184t-234 -61h-221v700h125v-218zM216 367v-252h104q88 0 132.5 30.5t44.5 102.5q0 65 -41.5 92t-133.5 27h-106z" />
    <glyph glyph-name="afii10047" unicode="&#x42d;" horiz-adv-x="723" 
d="M58 648q32 22 94.5 42t149.5 21q85 0 155 -24.5t120 -71t78 -114t28 -152.5q0 -79 -26 -145t-75 -114t-119.5 -74.5t-159.5 -26.5q-45 0 -85 8t-72.5 20.5t-56 28t-36.5 31.5v154q15 -27 39 -50t56 -40t71.5 -27t86.5 -10q109 1 171.5 54.5t73.5 146.5h-343v109h341
q-7 39 -25 72t-49 57.5t-74 38.5t-99 14q-42 0 -79 -10.5t-68 -27.5t-56 -39t-41 -45v174z" />
    <glyph glyph-name="afii10048" unicode="&#x42e;" horiz-adv-x="1092" 
d="M216 0h-125v700h125v-282h109q10 66 39 120t74.5 92.5t106 59.5t132.5 21q84 0 153 -25t118 -71.5t76 -113.5t27 -152q0 -79 -26.5 -145t-75.5 -114t-118.5 -74.5t-154.5 -26.5q-75 0 -137 21.5t-107.5 62t-74 98.5t-35.5 132h-106v-303zM920 350q0 51 -15.5 96t-46.5 78
t-77 52.5t-106 19.5q-53 0 -95.5 -18t-72.5 -50.5t-46 -77.5t-16 -100q0 -51 14.5 -96t44 -78t72.5 -52t100 -20q57 0 102 18t76.5 50t48.5 77.5t17 100.5z" />
    <glyph glyph-name="afii10049" unicode="&#x42f;" horiz-adv-x="709" 
d="M493 218h-116q-15 0 -28.5 0.5t-26.5 1.5l-142 -220h-146l164 243q-71 26 -103.5 79t-32.5 133q0 123 80 184t234 61h242v-700h-125v218zM192 452q0 -64 41 -91.5t133 -27.5h127v252h-125q-88 0 -132 -30.5t-44 -102.5z" />
    <glyph glyph-name="afii10065" unicode="&#x430;" horiz-adv-x="544" 
d="M83 465q25 19 69.5 32t109.5 13q110 0 164 -41t54 -139v-330h-110v90q-18 -44 -61.5 -71t-103.5 -27q-76 0 -118.5 40.5t-42.5 114.5q0 43 15 71t42 44.5t65 23.5t84 7h113v22q0 53 -25.5 73t-75.5 20q-69 0 -111 -24.5t-68 -64.5v146zM242 97q30 0 51.5 7.5t36.5 19
t23 25.5t10 27v41h-99q-52 0 -77 -12t-25 -46q0 -29 20.5 -45.5t59.5 -16.5z" />
    <glyph glyph-name="afii10066" unicode="&#x431;" horiz-adv-x="595" 
d="M512 655q-15 -8 -56 -15t-103 -12q-60 -6 -98.5 -21t-61.5 -41.5t-33.5 -65.5t-15.5 -93q29 42 75.5 67.5t114.5 25.5q46 0 87 -12.5t71.5 -41t48.5 -75t18 -114.5q0 -134 -66.5 -200.5t-185.5 -66.5q-128 0 -196.5 79.5t-68.5 252.5q0 103 14.5 177t45 123.5t77 76.5
t111.5 38q29 5 61.5 8.5t63 7.5t56.5 9t41 13v-120zM162 256q0 -70 34.5 -115t102.5 -45q30 0 55 8.5t43.5 26.5t29 46.5t10.5 69.5q0 78 -35 113.5t-98 35.5q-66 0 -104 -35t-38 -105z" />
    <glyph glyph-name="afii10067" unicode="&#x432;" horiz-adv-x="550" 
d="M71 500h252q90 0 128 -29.5t38 -86.5q0 -45 -22.5 -74.5t-63.5 -39.5q24 -3 44.5 -10.5t35 -21.5t23 -36t8.5 -54q0 -72 -47.5 -110t-146.5 -38h-249v500zM309 97q47 0 68 14.5t21 44.5q0 33 -20.5 45.5t-61.5 12.5h-128v-117h121zM295 298q35 0 56 12.5t21 44.5
q0 28 -19 38t-57 10l-108 -1v-104h107z" />
    <glyph glyph-name="afii10068" unicode="&#x433;" horiz-adv-x="473" 
d="M71 500h359v-103h-242v-397h-117v500z" />
    <glyph glyph-name="afii10069" unicode="&#x434;" horiz-adv-x="598" 
d="M73 106q10 27 18.5 59.5t14.5 73.5t9 91.5t3 112.5v57h384v-394h76v-236h-106v130h-351v-130h-106v236h58zM227 385q-2 -87 -11 -153.5t-30 -125.5h199v291h-158v-12z" />
    <glyph glyph-name="afii10070" unicode="&#x435;" horiz-adv-x="561" 
d="M484 50q-9 -11 -26 -21.5t-41 -19.5t-53.5 -14t-63.5 -5q-125 -1 -194 65.5t-69 196.5q0 62 18.5 110.5t52.5 81.5t80.5 50t103.5 17q109 -1 170.5 -65t61.5 -182v-48h-371q14 -125 151 -125q69 0 114.5 23t65.5 56v-120zM289 409q-57 0 -91 -28t-43 -82h252
q-2 51 -33 80.5t-85 29.5z" />
    <glyph glyph-name="afii10072" unicode="&#x436;" horiz-adv-x="774" 
d="M329 207h-68l-114 -207h-131l148 259l-134 241h130l100 -195h69v195h116v-195h67l106 195h124l-132 -237l148 -263h-133l-111 207h-69v-207h-116v207z" />
    <glyph glyph-name="afii10073" unicode="&#x437;" horiz-adv-x="498" 
d="M46 171q22 -33 70 -56t119 -23q50 0 79 15t29 47q0 29 -23 42t-74 13h-86v85h71q41 0 65.5 13.5t24.5 45.5q0 26 -18.5 40t-64.5 15q-63 0 -108.5 -24.5t-74.5 -64.5v146q29 19 77 32t106 13h4q104 0 151 -35.5t47 -94.5q0 -48 -22.5 -74t-60.5 -42q51 -10 77.5 -36.5
t26.5 -77.5q0 -39 -16.5 -69t-46 -50.5t-71 -30.5t-92.5 -10q-33 0 -63 5.5t-55 14.5t-43.5 19.5t-27.5 21.5v120z" />
    <glyph glyph-name="afii10074" unicode="&#x438;" horiz-adv-x="610" 
d="M72 500h116v-339l240 339h111v-500h-116v343l-240 -343h-111v500z" />
    <glyph glyph-name="afii10075" unicode="&#x439;" horiz-adv-x="610" 
d="M72 500h116v-339l240 339h111v-500h-116v343l-240 -343h-111v500zM480 749q0 -42 -14.5 -71.5t-38.5 -48t-54.5 -27t-62.5 -8.5q-37 0 -70 8.5t-57.5 27t-38.5 48t-14 71.5h108q0 -32 16.5 -50t53.5 -18q30 0 47 15t17 53h108z" />
    <glyph glyph-name="afii10076" unicode="&#x43a;" horiz-adv-x="581" 
d="M71 500h117v-195h81l140 195h130l-175 -236l203 -264h-142l-157 207h-80v-207h-117v500z" />
    <glyph glyph-name="afii10077" unicode="&#x43b;" horiz-adv-x="583" 
d="M395 397h-162l-3 -63q-5 -117 -20.5 -185t-38.5 -102.5t-51 -43.5t-57 -9q-14 0 -27.5 1.5t-21.5 3.5v121q12 -4 26 -4q16 0 30.5 6.5t25.5 33.5t18.5 82t10.5 153l4 109h382v-500h-116v397z" />
    <glyph glyph-name="afii10078" unicode="&#x43c;" horiz-adv-x="702" 
d="M514 336l-144 -212h-37l-145 213v-337h-117v500h121l163 -234l158 234h118v-500h-117v336z" />
    <glyph glyph-name="afii10079" unicode="&#x43d;" horiz-adv-x="602" 
d="M414 202h-226v-202h-117v500h117v-195h226v195h117v-500h-117v202z" />
    <glyph glyph-name="afii10080" unicode="&#x43e;" horiz-adv-x="591" 
d="M294 -11q-59 0 -106 16.5t-81 49.5t-52 82t-18 115q0 65 19 113.5t53 81t82 48.5t107 16q58 0 105.5 -17t81 -50t51.5 -82t18 -114t-19 -113.5t-53 -80.5t-82 -48.5t-106 -16.5zM156 249q0 -83 37 -120.5t103 -37.5q67 0 103 38.5t36 118.5v3q0 83 -37.5 120.5
t-103.5 37.5q-67 -1 -102.5 -39.5t-35.5 -117.5v-3z" />
    <glyph glyph-name="afii10081" unicode="&#x43f;" horiz-adv-x="594" 
d="M406 397h-218v-397h-117v500h452v-500h-117v397z" />
    <glyph glyph-name="afii10082" unicode="&#x440;" horiz-adv-x="609" 
d="M71 500h110v-104q7 21 20.5 41.5t35 36.5t51.5 26t70 10q48 0 87.5 -14.5t68 -44.5t44.5 -77t16 -113q0 -74 -16 -125.5t-45.5 -84t-71.5 -47.5t-93 -15q-60 0 -100.5 26t-59.5 61v-269h-117v693zM188 233q0 -68 36 -104.5t98 -36.5q71 0 103 37.5t32 126.5
q0 82 -36.5 116t-96.5 34q-69 0 -101.5 -36t-34.5 -99v-38z" />
    <glyph glyph-name="afii10083" unicode="&#x441;" horiz-adv-x="505" 
d="M469 50q-17 -21 -61 -41t-105 -20q-60 0 -109 16.5t-84 49.5t-54 82t-19 115q0 64 19.5 112.5t54.5 81t84 49t109 16.5q51 -1 93 -14t67 -32v-146q-26 40 -65.5 64.5t-94.5 25.5q-72 0 -110 -38t-38 -114v-15q0 -78 39.5 -114.5t110.5 -36.5q63 0 103.5 23t59.5 56v-120
v0z" />
    <glyph glyph-name="afii10084" unicode="&#x442;" horiz-adv-x="488" 
d="M185 397h-160v103h438v-103h-162v-397h-116v397z" />
    <glyph glyph-name="afii10085" unicode="&#x443;" horiz-adv-x="520" 
d="M10 500h131l137 -343l112 343h124l-200 -553q-17 -45 -34 -73.5t-35.5 -45t-39.5 -22.5t-46 -6q-23 0 -46 6t-34 16v109q11 -11 27 -18t33 -7q27 0 47.5 20.5t34.5 71.5z" />
    <glyph glyph-name="afii10086" unicode="&#x444;" horiz-adv-x="723" 
d="M420 750v-250h19q54 0 99 -13.5t78 -43.5t51.5 -77.5t18.5 -115.5q0 -64 -18 -111t-50.5 -78t-77.5 -46t-98 -15h-22v-193h-117v193h-19q-54 0 -99 13.5t-78 43.5t-51.5 77.5t-18.5 115.5q0 64 18 111t50.5 78t77.5 46t98 15h22v250h117zM153 255q0 -45 9.5 -74t27 -46.5
t41.5 -24.5t54 -7h18v294h-17q-62 0 -97.5 -32.5t-35.5 -109.5zM420 397v-294h16q62 0 97.5 32.5t35.5 109.5q0 45 -9.5 74t-27 46.5t-41.5 24.5t-53 7h-18z" />
    <glyph glyph-name="afii10087" unicode="&#x445;" horiz-adv-x="528" 
d="M180 256l-158 244h137l107 -169l107 169h132l-160 -237l172 -263h-137l-119 189l-119 -189h-132z" />
    <glyph glyph-name="afii10088" unicode="&#x446;" horiz-adv-x="612" 
d="M71 500h117v-394h212v394h117v-394h75v-236h-106v130h-415v500z" />
    <glyph glyph-name="afii10089" unicode="&#x447;" horiz-adv-x="562" 
d="M374 176q-26 -15 -60 -22t-69 -7q-90 0 -141 42t-51 132v179h117v-161q0 -45 24.5 -66.5t71.5 -21.5q62 0 108 23v226h117v-500h-117v176z" />
    <glyph glyph-name="afii10090" unicode="&#x448;" horiz-adv-x="800" 
d="M71 500h117v-394h154v394h116v-394h154v394h117v-500h-658v500z" />
    <glyph glyph-name="afii10091" unicode="&#x449;" horiz-adv-x="822" 
d="M71 500h117v-394h154v394h116v-394h154v394h117v-394h73v-236h-105v130h-626v500z" />
    <glyph glyph-name="afii10092" unicode="&#x44a;" horiz-adv-x="600" 
d="M139 397h-114v103h231v-148h97q51 0 90.5 -8t66 -27.5t40.5 -52.5t14 -82q-1 -96 -54 -139t-170 -43h-201v397zM337 103q59 0 84.5 17t26.5 62q-1 40 -23.5 53.5t-80.5 13.5h-88v-146h81z" />
    <glyph glyph-name="afii10093" unicode="&#x44b;" horiz-adv-x="730" 
d="M71 500h117v-148h86q51 0 90.5 -8t66 -27.5t40.5 -52.5t14 -82q-1 -96 -54 -139t-170 -43h-190v500zM542 500h117v-500h-117v500zM257 103q60 0 85 17t26 62q-1 40 -23 53.5t-80 13.5h-77v-146h69z" />
    <glyph glyph-name="afii10094" unicode="&#x44c;" horiz-adv-x="532" 
d="M497 182q-1 -96 -54 -139t-171 -43h-201v500h117v-148h97q51 0 90.5 -8t66.5 -27.5t41 -52.5t14 -82zM380 183q-2 39 -24.5 52.5t-79.5 13.5h-88v-146h81q60 0 85.5 17.5t25.5 62.5z" />
    <glyph glyph-name="afii10095" unicode="&#x44d;" horiz-adv-x="528" 
d="M50 466q26 19 72.5 32t103.5 13q61 0 110 -16.5t83.5 -49t53 -81.5t18.5 -113q0 -65 -19 -114t-54 -82t-83.5 -49t-106.5 -16q-33 0 -61.5 5t-52 14t-40.5 19.5t-26 21.5v120q20 -33 64.5 -56t112.5 -23q133 2 148 117h-213v90h212q-9 57 -47 84t-103 27q-60 0 -102 -25
t-70 -64v146z" />
    <glyph glyph-name="afii10096" unicode="&#x44e;" horiz-adv-x="806" 
d="M71 500h117v-195h76q15 102 81.5 153t166.5 51q58 0 105.5 -16.5t81 -49.5t52 -82t18.5 -115q0 -65 -19 -113.5t-53 -80.5t-82.5 -48.5t-106.5 -16.5q-103 0 -167.5 53.5t-77.5 161.5h-75v-202h-117v500zM511 89q67 0 102.5 38.5t35.5 118.5v3q0 82 -36.5 119.5
t-102.5 38.5q-65 0 -99.5 -38.5t-34.5 -118.5v-3q0 -83 36 -120.5t99 -37.5z" />
    <glyph glyph-name="afii10097" unicode="&#x44f;" horiz-adv-x="563" 
d="M375 165h-116l-101 -165h-129l116 181q-45 18 -68 53.5t-23 84.5q0 94 54 137.5t171 43.5h213v-500h-117v165zM282 397q-59 0 -85 -17t-26 -61q1 -31 22 -47.5t67 -16.5h115v142h-93z" />
    <glyph glyph-name="afii10071" unicode="&#x451;" horiz-adv-x="561" 
d="M484 50q-9 -11 -26 -21.5t-41 -19.5t-53.5 -14t-63.5 -5q-125 -1 -194 65.5t-69 196.5q0 62 18.5 110.5t52.5 81.5t80.5 50t103.5 17q109 -1 170.5 -65t61.5 -182v-48h-371q14 -125 151 -125q69 0 114.5 23t65.5 56v-120zM289 409q-57 0 -91 -28t-43 -82h252
q-2 51 -33 80.5t-85 29.5zM333 690q0 29 18.5 46.5t50.5 17.5t50.5 -17.5t18.5 -46.5q0 -30 -18.5 -48.5t-50.5 -18.5t-50.5 18.5t-18.5 48.5zM116 690q0 29 18.5 46.5t50.5 17.5t50.5 -17.5t18.5 -46.5q0 -30 -18.5 -48.5t-50.5 -18.5t-50.5 18.5t-18.5 48.5z" />
    <glyph glyph-name="afii10099" unicode="&#x452;" horiz-adv-x="600" 
d="M432 202q0 54 -22.5 79t-74.5 26h-3h-1q-128 -1 -126 -129v-178h-117v473h-68v103h68v174h117v-174h159v-103h-159v-175q9 46 54.5 78t117.5 33h1h2q80 -1 124.5 -44t44.5 -131v-257q0 -86 -38 -131t-127 -45q-26 0 -47.5 5.5t-35.5 13.5v115q27 -29 72 -29q30 0 45 16.5
t15 56.5z" />
    <glyph glyph-name="afii10100" unicode="&#x453;" horiz-adv-x="473" 
d="M71 500h359v-103h-242v-397h-117v500zM174 581l80 169h166l-158 -169h-88z" />
    <glyph glyph-name="afii10101" unicode="&#x454;" horiz-adv-x="503" 
d="M350 205h-192q10 -59 48 -86.5t100 -27.5q63 0 103.5 23t59.5 56v-120q-17 -21 -61 -41t-105 -20q-60 0 -109 16.5t-84 49.5t-54 82t-19 115q0 64 19.5 112.5t54.5 81t84 49t109 16.5q51 -1 93 -14t67 -32v-146q-26 40 -65.5 64.5t-94.5 25.5q-123 0 -144 -107h190v-97z
" />
    <glyph glyph-name="afii10102" unicode="&#x455;" horiz-adv-x="473" 
d="M415 319q-26 40 -65.5 64.5t-94.5 25.5h-2q-40 0 -62.5 -12t-22.5 -36q0 -19 19.5 -30.5t49 -20.5t63.5 -18.5t63.5 -27t49 -45.5t19.5 -72q0 -75 -51 -116t-145 -42q-33 0 -62.5 6t-54 14.5t-42.5 19t-27 21.5v121q22 -34 69 -58t117 -22q41 1 60 15t19 37
q0 20 -19.5 31.5t-49 21t-63.5 20t-63.5 28t-49 45.5t-19.5 72q0 66 50.5 108t153.5 42q51 -1 93 -14t67 -32v-146v0z" />
    <glyph glyph-name="afii10103" unicode="&#x456;" horiz-adv-x="275" 
d="M68 694q0 29 19 47t51 18q31 0 49.5 -18t18.5 -47q0 -30 -18.5 -48t-49.5 -18q-32 0 -51 18t-19 48zM79 500h117v-500h-117v500z" />
    <glyph glyph-name="afii10104" unicode="&#x457;" horiz-adv-x="275" 
d="M79 500h117v-500h-117v500zM178 690q0 29 18.5 46.5t50.5 17.5t50.5 -17.5t18.5 -46.5q0 -30 -18.5 -48.5t-50.5 -18.5t-50.5 18.5t-18.5 48.5zM-39 690q0 29 18.5 46.5t50.5 17.5t50.5 -17.5t18.5 -46.5q0 -30 -18.5 -48.5t-50.5 -18.5t-50.5 18.5t-18.5 48.5z" />
    <glyph glyph-name="afii10105" unicode="&#x458;" horiz-adv-x="274" 
d="M78 500h117v-522q0 -86 -38.5 -131t-127.5 -45q-26 0 -47 6t-35 14v114q27 -29 71 -29q30 0 45 17t15 56v520zM67 694q0 29 19 47t51 18q31 0 49.5 -18t18.5 -47q0 -30 -18.5 -48t-49.5 -18q-32 0 -51 18t-19 48z" />
    <glyph glyph-name="afii10106" unicode="&#x459;" horiz-adv-x="803" 
d="M370 397h-137l-3 -63q-5 -117 -20.5 -185t-38.5 -102.5t-51 -43.5t-57 -9q-14 0 -27.5 1.5t-21.5 3.5v121q12 -4 26 -4q16 0 30.5 6.5t25.5 33.5t18.5 82t10.5 153l4 109h358v-148h69q51 0 90 -8t66 -27.5t41 -52t14 -81.5q0 -96 -53 -139.5t-171 -43.5h-173v397z
M651 183q-2 39 -24.5 52.5t-79.5 13.5h-60v-146h53q60 0 85.5 17.5t25.5 62.5z" />
    <glyph glyph-name="afii10107" unicode="&#x45a;" horiz-adv-x="835" 
d="M398 232h-210v-232h-117v500h117v-165h210v165h117v-149h73q51 0 90 -8t66 -27.5t41.5 -52t14.5 -80.5q0 -96 -53.5 -139.5t-171.5 -43.5h-177v232zM515 248v-145h57q60 0 85 16.5t26 61.5q-1 40 -23.5 53.5t-80.5 13.5h-64z" />
    <glyph glyph-name="afii10108" unicode="&#x45b;" horiz-adv-x="600" 
d="M205 750v-174h159v-103h-159v-151q23 37 66 61.5t104 25.5q82 0 127 -43t45 -132v-234h-116v202q0 55 -23.5 80t-77.5 25q-125 -1 -125 -129v-178h-117v473h-68v103h68v174h117z" />
    <glyph glyph-name="afii10109" unicode="&#x45c;" horiz-adv-x="581" 
d="M71 500h117v-195h81l140 195h130l-175 -236l203 -264h-142l-157 207h-80v-207h-117v500zM228 581l80 169h166l-158 -169h-88z" />
    <glyph glyph-name="afii10110" unicode="&#x45e;" horiz-adv-x="520" 
d="M10 500h131l137 -343l112 343h124l-200 -553q-17 -45 -34 -73.5t-35.5 -45t-39.5 -22.5t-46 -6q-23 0 -46 6t-34 16v109q11 -11 27 -18t33 -7q27 0 47.5 20.5t34.5 71.5zM435 749q0 -42 -14.5 -71.5t-38.5 -48t-54.5 -27t-62.5 -8.5q-37 0 -70 8.5t-57.5 27t-38.5 48
t-14 71.5h108q0 -32 16.5 -50t53.5 -18q30 0 47 15t17 53h108z" />
    <glyph glyph-name="afii10193" unicode="&#x45f;" horiz-adv-x="595" 
d="M71 500h117v-394h219v394h117v-500h-174v-130h-105v130h-174v500z" />
    <glyph glyph-name="afii10050" unicode="&#x490;" horiz-adv-x="585" 
d="M566 830v-245h-350v-585h-125v700h358v130h117z" />
    <glyph glyph-name="afii10098" unicode="&#x491;" horiz-adv-x="474" 
d="M189 397v-397h-116v500h253v130h106v-233h-243z" />
    <glyph glyph-name="uni0492" unicode="&#x492;" horiz-adv-x="595" 
d="M576 585h-350v-181h247v-115h-247v-289h-125v289h-84v115h84v296h475v-115z" />
    <glyph glyph-name="uni0493" unicode="&#x493;" horiz-adv-x="484" 
d="M346 189h-147v-189h-117v189h-60v103h60v208h359v-103h-242v-105h147v-103z" />
    <glyph glyph-name="uni049A" unicode="&#x49a;" horiz-adv-x="749" 
d="M216 0h-125v700h125v-295h104l226 295h152l-267 -333l242 -287h68v-210h-117v130h-43l-256 305h-109v-305z" />
    <glyph glyph-name="uni049B" unicode="&#x49b;" horiz-adv-x="576" 
d="M71 500h117v-195h73l139 195h130l-174 -236l146 -190h57v-204h-106v130h-37l-156 207h-72v-207h-117v500z" />
    <glyph glyph-name="uni04A2" unicode="&#x4a2;" horiz-adv-x="810" 
d="M590 303h-374v-303h-125v700h125v-282h374v282h125v-620h74v-210h-117v130h-82v303z" />
    <glyph glyph-name="uni04A3" unicode="&#x4a3;" horiz-adv-x="619" 
d="M418 202h-230v-202h-117v500h117v-195h230v195h117v-426h76v-204h-105v130h-88v202z" />
    <glyph glyph-name="uni04AE" unicode="&#x4ae;" horiz-adv-x="667" 
d="M396 260v-260h-125v264l-266 436h146l188 -315l181 315h142z" />
    <glyph glyph-name="uni04AF" unicode="&#x4af;" horiz-adv-x="528" 
d="M205 17l-197 483h126l134 -345l132 345h120l-198 -483v-209h-117v209z" />
    <glyph glyph-name="uni04B0" unicode="&#x4b0;" horiz-adv-x="667" 
d="M562 253h-165v-253h-125v253h-166v115h101l-202 332h146l188 -315l181 315h142l-201 -332h101v-115z" />
    <glyph glyph-name="uni04B1" unicode="&#x4b1;" horiz-adv-x="528" 
d="M169 106l-161 394h126l134 -345l132 345h120l-162 -394h100v-106h-136v-193h-117v193h-135v106h99z" />
    <glyph glyph-name="uni04BA" unicode="&#x4ba;" horiz-adv-x="689" 
d="M504 224q0 31 -7.5 54.5t-25.5 39t-48.5 23.5t-75.5 8q-39 0 -78.5 -7t-69.5 -21v-321h-125v700h125v-269q32 13 77 21.5t93 8.5q70 0 119.5 -14.5t80.5 -41t45.5 -64t14.5 -84.5v-257h-125v224z" />
    <glyph glyph-name="uni04BB" unicode="&#x4bb;" horiz-adv-x="598" 
d="M417 302q0 54 -23 79t-75 26h-3q-128 0 -128 -129v-278h-117v750h117v-352q11 46 56.5 78.5t117.5 32.5q81 -1 126.5 -44t45.5 -131v-334h-117v302z" />
    <glyph glyph-name="uni04C0" unicode="&#x4c0;" horiz-adv-x="308" 
d="M216 0h-125v700h125v-700z" />
    <glyph glyph-name="uni04CF" unicode="&#x4cf;" horiz-adv-x="259" 
d="M188 750v-750h-117v750h117z" />
    <glyph glyph-name="uni04D8" unicode="&#x4d8;" horiz-adv-x="783" 
d="M149 648q31 22 90 42t142 21q81 0 148 -24.5t114.5 -71t73.5 -114t26 -152.5q0 -79 -25 -145t-71 -114t-112 -74.5t-148 -26.5q-73 0 -136 21.5t-109.5 65.5t-73.5 111t-27 159v63h569q-8 40 -26 74.5t-46.5 59t-68 39t-88.5 14.5q-39 0 -74.5 -10.5t-65 -27.5t-53 -39
t-39.5 -45v174zM387 104q94 0 154 50.5t72 148.5h-439q1 -43 16.5 -79.5t42.5 -63t66 -41.5t88 -15z" />
    <glyph glyph-name="afii10846" unicode="&#x4d9;" horiz-adv-x="568" 
d="M80 458q11 9 30 18.5t42.5 17t51 12t56.5 4.5q124 1 194 -66t70 -196q0 -62 -18.5 -110.5t-52.5 -81.5t-80.5 -50t-103.5 -17q-110 0 -171 64t-61 184v47h370q-14 125 -151 125q-60 0 -105 -23.5t-71 -60.5v133zM272 91q56 0 90 28t43 82h-252q2 -51 33.5 -80.5
t85.5 -29.5z" />
    <glyph glyph-name="uni04E8" unicode="&#x4e8;" horiz-adv-x="831" 
d="M416 -11q-85 0 -154 25t-118 71.5t-76 113.5t-27 152q0 79 26.5 145t75.5 114t118 74.5t155 26.5q84 0 153.5 -25t118.5 -71.5t76 -113.5t27 -152q0 -79 -26.5 -145t-75.5 -113.5t-118 -74.5t-154 -27h-1zM416 104q101 0 163.5 54t76.5 145h-480q7 -43 25.5 -79
t48.5 -62.5t71.5 -42t94.5 -15.5zM651 418q-17 78 -76.5 127.5t-159.5 50.5q-94 -1 -155 -49t-80 -129h471z" />
    <glyph glyph-name="uni04E9" unicode="&#x4e9;" horiz-adv-x="591" 
d="M297 511q58 0 106 -16.5t81.5 -49.5t52 -82t18.5 -115q0 -65 -19 -113.5t-53.5 -81t-83 -48.5t-106.5 -16q-117 1 -186.5 66.5t-69.5 196.5q0 64 18.5 112.5t53 81t82 49t106.5 16.5zM297 91q57 0 91 28t43 86h-272q10 -60 45.5 -87t92.5 -27zM431 300q-11 57 -46.5 83
t-90.5 26q-56 -1 -90 -27.5t-44 -81.5h271z" />
    <glyph glyph-name="uni1E9E" unicode="&#x1e9e;" horiz-adv-x="696" 
d="M359 516l103 73q-47 11 -94 11q-45 0 -75.5 -8t-48.5 -23.5t-25.5 -39t-7.5 -54.5v-475h-125v508q0 46 14.5 84t45.5 64t80.5 40.5t119.5 14.5q36 0 71 -5t65.5 -13t54.5 -19t39 -24v-95l-94 -66q38 -10 69.5 -28.5t54 -48t35 -69.5t12.5 -93q0 -67 -18.5 -116t-51 -81.5
t-77.5 -48t-98 -15.5h-10q-13 0 -30 2.5t-33.5 6.5t-30.5 9t-20 10v119q8 -9 21.5 -17t29.5 -14t32 -9.5t30 -3.5h5q59 0 92 35t33 118q0 45 -10 74t-29 46.5t-45 24.5t-58 7h-26v119z" />
    <glyph glyph-name="figuredash" unicode="&#x2012;" horiz-adv-x="579" 
d="M91 407h397v-106h-397v106z" />
    <glyph glyph-name="endash" unicode="&#x2013;" horiz-adv-x="707" 
d="M111 346h485v-106h-485v106z" />
    <glyph glyph-name="emdash" unicode="&#x2014;" horiz-adv-x="916" 
d="M111 346h694v-106h-694v106z" />
    <glyph glyph-name="quoteleft" unicode="&#x2018;" horiz-adv-x="309" 
d="M266 686q-49 -9 -78.5 -33t-34.5 -50h2q42 0 57.5 -20.5t15.5 -49.5t-15.5 -49.5t-57.5 -20.5q-29 0 -46 11q-17 10 -27.5 32t-10.5 57q0 40 15 71.5t37 54t47.5 36t47.5 17.5l48 -56v0z" />
    <glyph glyph-name="quoteright" unicode="&#x2019;" horiz-adv-x="309" 
d="M43 519q49 9 78.5 33t34.5 50h-2q-42 0 -57.5 20.5t-15.5 49.5t15.5 49.5t57.5 20.5q29 0 46 -11q17 -10 27.5 -32t10.5 -57q0 -41 -15 -72t-37 -53.5t-47.5 -36t-46.5 -17.5l-49 56v0z" />
    <glyph glyph-name="quotesinglbase" unicode="&#x201a;" horiz-adv-x="309" 
d="M43 -81q49 9 78.5 33t34.5 50h-2q-42 0 -57.5 20.5t-15.5 49.5t15.5 49.5t57.5 20.5q29 0 46 -11q17 -10 27.5 -32t10.5 -57q0 -41 -15 -72t-37 -53.5t-47.5 -36t-46.5 -17.5l-49 56v0z" />
    <glyph glyph-name="quotedblleft" unicode="&#x201c;" horiz-adv-x="522" 
d="M479 686q-48 -9 -78 -33t-35 -50h2q42 0 57.5 -20.5t15.5 -49.5t-15.5 -49.5t-57.5 -20.5q-29 0 -46 11q-17 10 -27.5 32t-10.5 57q0 40 15 71.5t37 54t47.5 36t47.5 17.5zM266 686q-49 -9 -78.5 -33t-34.5 -50h2q42 0 57.5 -20.5t15.5 -49.5t-15.5 -49.5t-57.5 -20.5
q-29 0 -46 11q-17 10 -27.5 32t-10.5 57q0 40 15 71.5t37 54t47.5 36t47.5 17.5z" />
    <glyph glyph-name="quotedblright" unicode="&#x201d;" horiz-adv-x="522" 
d="M256 519q49 9 78.5 33t34.5 50h-2q-42 0 -57.5 20.5t-15.5 49.5t15.5 49.5t57.5 20.5q28 0 47 -11q16 -10 26.5 -32t10.5 -57q0 -41 -14.5 -72t-36.5 -53.5t-47.5 -36t-47.5 -17.5zM43 519q49 9 78.5 33t34.5 50h-2q-42 0 -57.5 20.5t-15.5 49.5t15.5 49.5t57.5 20.5
q29 0 46 -11q17 -10 27.5 -32t10.5 -57q0 -41 -15 -72t-37 -53.5t-47.5 -36t-46.5 -17.5z" />
    <glyph glyph-name="quotedblbase" unicode="&#x201e;" horiz-adv-x="522" 
d="M256 -81q49 9 78.5 33t34.5 50h-2q-42 0 -57.5 20.5t-15.5 49.5t15.5 49.5t57.5 20.5q28 0 47 -11q16 -10 26.5 -32t10.5 -57q0 -41 -14.5 -72t-36.5 -53.5t-47.5 -36t-47.5 -17.5zM43 -81q49 9 78.5 33t34.5 50h-2q-42 0 -57.5 20.5t-15.5 49.5t15.5 49.5t57.5 20.5
q29 0 46 -11q17 -10 27.5 -32t10.5 -57q0 -41 -15 -72t-37 -53.5t-47.5 -36t-46.5 -17.5z" />
    <glyph glyph-name="dagger" unicode="&#x2020;" horiz-adv-x="520" 
d="M238 -100l-51 400v1l44 167l-171 -44v148l172 -46l-44 174h147l-45 -173l170 44v-148l-169 44l42 -166v-1l-51 -400h-44z" />
    <glyph glyph-name="daggerdbl" unicode="&#x2021;" horiz-adv-x="520" 
d="M60 572l172 -46l-44 174h147l-45 -173l170 44v-148l-169 44l42 -166l-45 -174l172 45v-148l-170 45l43 -168h-147l44 169l-170 -44v148l171 -46l-44 173l44 167l-171 -44v148z" />
    <glyph glyph-name="bullet" unicode="&#x2022;" horiz-adv-x="396" 
d="M80 375q0 24 5.5 45.5t19 37.5t36 25t56.5 9t57 -9t37 -25t19.5 -37.5t5.5 -45.5t-5.5 -44.5t-19.5 -36.5t-37 -25t-57 -9t-56.5 9t-36 25t-19 36.5t-5.5 44.5z" />
    <glyph glyph-name="ellipsis" unicode="&#x2026;" horiz-adv-x="959" 
d="M90 67q0 32 16.5 54.5t61.5 22.5q46 0 62.5 -22.5t16.5 -54.5t-16.5 -54.5t-62.5 -22.5q-45 0 -61.5 22.5t-16.5 54.5zM401 67q0 32 16.5 54.5t61.5 22.5q46 0 62.5 -22.5t16.5 -54.5t-16.5 -54.5t-62.5 -22.5q-45 0 -61.5 22.5t-16.5 54.5zM712 67q0 32 16.5 54.5
t61.5 22.5q46 0 62.5 -22.5t16.5 -54.5t-16.5 -54.5t-62.5 -22.5q-45 0 -61.5 22.5t-16.5 54.5z" />
    <glyph glyph-name="perthousand" unicode="&#x2030;" horiz-adv-x="1292" 
d="M66 545q0 81 48 122t132 41q73 0 119 -39.5t46 -123.5q0 -83 -49 -124t-130 -41q-78 0 -122 41t-44 124zM161 545q0 -35 21 -54.5t59 -19.5q36 0 55.5 18.5t19.5 55.5q0 34 -18 53t-59 19t-59.5 -19t-18.5 -53zM476 153q0 81 48 122t132 41q73 0 119 -39.5t46 -123.5
q0 -83 -49 -124t-130 -41q-78 0 -122 41t-44 124zM571 153q0 -35 21 -54.5t59 -19.5q36 0 55.5 18.5t19.5 55.5q0 34 -18 53t-59 19t-59.5 -19t-18.5 -53zM256 0h-118l507 700h115zM874 153q0 81 48 122t132 41q73 0 119 -39.5t46 -123.5q0 -83 -49 -124t-130 -41
q-78 0 -122 41t-44 124zM969 153q0 -35 21 -54.5t59 -19.5q36 0 55.5 18.5t19.5 55.5q0 34 -18 53t-59 19t-59.5 -19t-18.5 -53z" />
    <glyph glyph-name="guilsinglleft" unicode="&#x2039;" horiz-adv-x="308" 
d="M258 11l-222 239l222 239v-131l-97 -108l97 -109v-130z" />
    <glyph glyph-name="guilsinglright" unicode="&#x203a;" horiz-adv-x="308" 
d="M50 489l222 -239l-222 -239v131l97 108l-97 109v130z" />
    <glyph glyph-name="fraction" unicode="&#x2044;" horiz-adv-x="404" 
d="M9 0h-118l507 700h115z" />
    <glyph glyph-name="uni2070" unicode="&#x2070;" horiz-adv-x="450" 
d="M222 804q38 0 70.5 -11t56 -33.5t37 -56t13.5 -79.5q0 -50 -14 -84t-38 -55t-55 -30.5t-64 -9.5q-38 0 -70.5 11t-56 33.5t-37 56t-13.5 79.5q0 49 14 83t37.5 55t54.5 30.5t65 10.5zM148 625q0 -52 20.5 -72.5t59.5 -21.5q33 1 54 22t21 71q0 51 -20 71.5t-57 22.5
q-35 0 -56.5 -21t-21.5 -72z" />
    <glyph glyph-name="uni2074" unicode="&#x2074;" horiz-adv-x="398" 
d="M309 800v-194h59v-78h-59v-78h-92v78h-187v69l185 203h94zM217 606v97l-88 -97h88z" />
    <glyph glyph-name="uni2075" unicode="&#x2075;" horiz-adv-x="387" 
d="M326 723h-178l-5 -50q16 4 46 4q42 0 70 -8.5t45.5 -23t24.5 -34.5t7 -44q0 -59 -42 -90t-120 -31q-47 0 -79 12t-45 23v99q14 -20 46.5 -36t75.5 -16q40 0 57 10.5t17 30.5q0 22 -19.5 33t-63.5 11q-40 0 -63.5 -4t-37.5 -7l21 198h243v-77z" />
    <glyph glyph-name="uni2076" unicode="&#x2076;" horiz-adv-x="428" 
d="M354 671q-14 20 -48 36.5t-79 15.5q-43 -2 -70.5 -23t-27.5 -66v-8.5t1 -11.5q11 26 41 44t75 18q69 0 100.5 -30.5t31.5 -76.5q0 -31 -13 -54t-35 -38.5t-50 -23t-58 -7.5q-79 0 -127.5 44t-48.5 125q0 85 45.5 136t134.5 53q48 1 81.5 -11.5t46.5 -22.5v-99zM142 573
q6 -17 24 -31t57 -14q32 0 49.5 10.5t17.5 30.5t-16 31t-46 11q-32 0 -52 -10.5t-34 -27.5z" />
    <glyph glyph-name="uni2077" unicode="&#x2077;" horiz-adv-x="342" 
d="M303 800v-51l-148 -299h-93l140 273h-183v77h284z" />
    <glyph glyph-name="uni2078" unicode="&#x2078;" horiz-adv-x="421" 
d="M211 446q-81 0 -124.5 28t-43.5 76q0 28 17 52t64 35q-29 8 -48.5 25.5t-19.5 49.5q0 43 38.5 68.5t116.5 25.5q77 0 113 -24.5t36 -63.5q0 -27 -16 -48t-51 -32q38 -7 61.5 -28.5t23.5 -56.5q0 -47 -41.5 -77t-125.5 -30zM212 528q44 0 61.5 8.5t17.5 29.5
q0 17 -17.5 26.5t-62.5 9.5t-62.5 -9.5t-17.5 -29.5q0 -35 81 -35zM210 662q37 0 51 9t14 24t-15 22.5t-50 7.5q-38 0 -53 -8.5t-15 -21.5q0 -14 15 -23.5t53 -9.5z" />
    <glyph glyph-name="uni2079" unicode="&#x2079;" horiz-adv-x="428" 
d="M74 580q7 -10 19.5 -19.5t29 -16.5t36.5 -11.5t42 -3.5q43 1 70.5 22t27.5 66v8.5t-1 11.5q-11 -26 -41 -44t-75 -18q-69 0 -100.5 31t-31.5 76q0 31 13 54t35 38.5t50 23t58 7.5q79 0 127.5 -44t48.5 -125q0 -85 -45.5 -136t-134.5 -53q-48 -1 -81.5 11.5t-46.5 22.5v99
zM286 678q-6 17 -24 31.5t-57 14.5q-32 0 -49.5 -11t-17.5 -31t16 -31t46 -11q32 0 52 10.5t34 27.5z" />
    <glyph glyph-name="uni2080" unicode="&#x2080;" horiz-adv-x="450" 
d="M222 255q38 0 70.5 -11t56 -33.5t37 -56t13.5 -79.5q0 -50 -14 -84t-38 -55t-55 -30.5t-64 -9.5q-38 0 -70.5 11t-56 33.5t-37 56t-13.5 79.5q0 49 14 83t37.5 55t54.5 30.5t65 10.5zM148 76q0 -52 20.5 -72.5t59.5 -21.5q33 1 54 22t21 71q0 51 -20 71.5t-57 22.5
q-35 0 -56.5 -21t-21.5 -72z" />
    <glyph glyph-name="uni2081" unicode="&#x2081;" horiz-adv-x="291" 
d="M128 158l-90 -53v85l114 65h68v-354h-92v257z" />
    <glyph glyph-name="uni2082" unicode="&#x2082;" horiz-adv-x="404" 
d="M358 -99h-298v60q94 53 142.5 88.5t48.5 73.5q0 20 -14.5 34t-43.5 16q-33 2 -68 -12.5t-59 -37.5v100q8 4 22 10t32 11t39 8t44 3q72 -1 108 -31.5t36 -84.5q0 -19 -5.5 -37t-19.5 -37t-37.5 -40t-59.5 -46h133v-78z" />
    <glyph glyph-name="uni2083" unicode="&#x2083;" horiz-adv-x="399" 
d="M63 223q17 9 54.5 20.5t82.5 11.5q69 -1 102.5 -26.5t33.5 -65.5q0 -29 -16.5 -49t-46.5 -30q45 -7 65 -28t20 -52q0 -49 -41 -77.5t-122 -29.5q-51 1 -86 12.5t-49 22.5v99q15 -20 50.5 -35.5t82.5 -14.5q38 0 54 9t16 25q0 12 -13 20t-51 8h-66v72h50q59 0 59 28
q0 14 -11 21t-41 8q-33 1 -68 -12.5t-59 -36.5v100v0z" />
    <glyph glyph-name="uni2084" unicode="&#x2084;" horiz-adv-x="398" 
d="M309 251v-194h59v-78h-59v-78h-92v78h-187v69l185 203h94zM217 57v97l-88 -97h88z" />
    <glyph glyph-name="uni2085" unicode="&#x2085;" horiz-adv-x="387" 
d="M326 174h-178l-5 -50q16 4 46 4q42 0 70 -8.5t45.5 -23t24.5 -34.5t7 -44q0 -59 -42 -90t-120 -31q-47 0 -79 12t-45 23v99q14 -20 46.5 -36t75.5 -16q40 0 57 10.5t17 30.5q0 22 -19.5 33t-63.5 11q-40 0 -63.5 -4t-37.5 -7l21 198h243v-77z" />
    <glyph glyph-name="uni2086" unicode="&#x2086;" horiz-adv-x="428" 
d="M354 122q-14 20 -48 36.5t-79 15.5q-43 -2 -70.5 -23t-27.5 -66v-8.5t1 -11.5q11 26 41 44t75 18q69 0 100.5 -30.5t31.5 -76.5q0 -31 -13 -54t-35 -38.5t-50 -23t-58 -7.5q-79 0 -127.5 44t-48.5 125q0 85 45.5 136t134.5 53q48 1 81.5 -11.5t46.5 -22.5v-99zM142 24
q6 -17 24 -31t57 -14q32 0 49.5 10.5t17.5 30.5t-16 31t-46 11q-32 0 -52 -10.5t-34 -27.5z" />
    <glyph glyph-name="uni2087" unicode="&#x2087;" horiz-adv-x="342" 
d="M303 251v-51l-148 -299h-93l140 273h-183v77h284z" />
    <glyph glyph-name="uni2088" unicode="&#x2088;" horiz-adv-x="421" 
d="M211 -103q-81 0 -124.5 28t-43.5 76q0 28 17 52t64 35q-29 8 -48.5 25.5t-19.5 49.5q0 43 38.5 68.5t116.5 25.5q77 0 113 -24.5t36 -63.5q0 -27 -16 -48t-51 -32q38 -7 61.5 -28.5t23.5 -56.5q0 -47 -41.5 -77t-125.5 -30zM212 -21q44 0 61.5 8.5t17.5 29.5
q0 17 -17.5 26.5t-62.5 9.5t-62.5 -9.5t-17.5 -29.5q0 -35 81 -35zM210 113q37 0 51 9t14 24t-15 22.5t-50 7.5q-38 0 -53 -8.5t-15 -21.5q0 -14 15 -23.5t53 -9.5z" />
    <glyph glyph-name="uni2089" unicode="&#x2089;" horiz-adv-x="428" 
d="M74 31q7 -10 19.5 -19.5t29 -16.5t36.5 -11.5t42 -3.5q43 1 70.5 22t27.5 66v8.5t-1 11.5q-11 -26 -41 -44t-75 -18q-69 0 -100.5 31t-31.5 76q0 31 13 54t35 38.5t50 23t58 7.5q79 0 127.5 -44t48.5 -125q0 -85 -45.5 -136t-134.5 -53q-48 -1 -81.5 11.5t-46.5 22.5v99z
M286 129q-6 17 -24 31.5t-57 14.5q-32 0 -49.5 -11t-17.5 -31t16 -31t46 -11q32 0 52 10.5t34 27.5z" />
    <glyph glyph-name="Euro" unicode="&#x20ac;" 
d="M94 474q13 61 40 105t63.5 72t80.5 41.5t93 15.5q46 0 81.5 -7t60.5 -17t41 -21.5t24 -20.5l-39 -147q-23 46 -65.5 72t-104.5 24q-53 -2 -88.5 -29t-52.5 -88h305l-26 -97h-292v-28v-20.5t1 -18.5h273l-26 -97h-230q20 -57 57.5 -81.5t91.5 -24.5q72 0 120.5 28t85.5 75
v-148q-26 -28 -80 -50.5t-133 -21.5q-106 2 -178.5 56.5t-99.5 166.5h-74l26 97h34q-1 9 -1 18.5v20.5v28h-60l26 97h46z" />
    <glyph glyph-name="uni20B4" unicode="&#x20b4;" 
d="M517 328v-94h-263q-19 -14 -28.5 -29.5t-9.5 -35.5q0 -27 23 -46.5t69 -21.5q72 -3 123 23t86 69v-137q-11 -9 -29.5 -20.5t-45 -21.5t-59.5 -16.5t-73 -5.5q-64 2 -105.5 14.5t-66 32t-34 44t-9.5 50.5q0 35 15.5 59.5t38.5 41.5h-52v94h420zM358 474q20 17 29 32.5
t9 30.5q0 30 -26 46t-70 17q-74 0 -122 -25.5t-71 -62.5v130q10 12 28.5 23.5t43.5 21t55.5 15.5t65.5 6h3q58 0 98.5 -10.5t65.5 -28.5t36.5 -41t11.5 -47q0 -34 -12.5 -60t-35.5 -47h50v-94h-420v94h261z" />
    <glyph glyph-name="uni20B8" unicode="&#x20b8;" 
d="M41 516h538v-115h-207v-401h-125v401h-206v115zM41 700h538v-115h-538v115z" />
    <glyph glyph-name="uni20BD" unicode="&#x20bd;" 
d="M103 352v348h175q166 0 240 -56t74 -168q0 -116 -79.5 -174t-234.5 -58h-50v-55h219v-107h-219v-82h-125v82h-76v107h76v57h-76v106h76zM228 591v-238h58q88 0 132.5 29t44.5 96q0 62 -41 87.5t-133 25.5h-61z" />
    <glyph glyph-name="afii61352" unicode="&#x2116;" horiz-adv-x="1230" 
d="M216 507v-507h-125v700h139l379 -507v507h125v-700h-140zM793 522q0 81 48.5 122t132.5 41q73 0 119 -39t46 -124q0 -82 -49 -123.5t-130 -41.5q-78 0 -122.5 41.5t-44.5 123.5zM1116 206h-294v104h294v-104zM889 522q0 -35 21 -54.5t59 -19.5q36 0 55.5 18.5t19.5 55.5
q0 34 -18 53t-59 19t-59.5 -19t-18.5 -53z" />
    <glyph glyph-name="uni2120" unicode="&#x2120;" horiz-adv-x="945" 
d="M778 584l-92 -138h-44l-94 139v-235h-90v350h106l103 -151l102 151h99v-350h-90v234zM371 578q-23 23 -59 37t-74 14q-71 0 -71 -28q0 -13 17.5 -19t43.5 -11t56 -11t56 -18.5t43.5 -33.5t17.5 -56q0 -54 -41 -83.5t-130 -30.5q-60 0 -102.5 12t-58.5 23v99
q18 -20 60.5 -35.5t98.5 -14.5q43 0 61.5 7t18.5 21q0 13 -17.5 19.5t-43.5 11t-56 10t-56 17.5t-43.5 33t-17.5 56q0 25 8 46t26.5 35.5t49.5 23t77 8.5q45 0 82.5 -11.5t53.5 -20.5v-100z" />
    <glyph glyph-name="trademark" unicode="&#x2122;" horiz-adv-x="914" 
d="M747 585l-93 -139h-43l-95 141v-237h-90v350h106l104 -151l101 151h100v-350h-90v235zM166 619h-118v81h323v-81h-115v-269h-90v269z" />
    <glyph glyph-name="onethird" unicode="&#x2153;" horiz-adv-x="823" 
d="M169 0h-118l507 700h115zM143 607l-90 -53v85l114 65h68v-354h-92v257zM468 323q17 9 54.5 20.5t82.5 11.5q69 -1 102.5 -26.5t33.5 -65.5q0 -29 -16.5 -49t-46.5 -30q45 -7 65 -28t20 -52q0 -49 -41 -77.5t-122 -29.5q-51 1 -86 12.5t-49 22.5v99q15 -20 50.5 -35.5
t82.5 -14.5q38 0 54 9t16 25q0 12 -13 20t-51 8h-66v72h50q59 0 59 28q0 14 -11 21t-41 8q-33 1 -68 -12.5t-59 -36.5v100v0z" />
    <glyph glyph-name="twothirds" unicode="&#x2154;" horiz-adv-x="918" 
d="M264 0h-118l507 700h115zM358 350h-298v60q94 53 142.5 88.5t48.5 73.5q0 20 -14.5 34t-43.5 16q-33 2 -68 -12.5t-59 -37.5v100q8 4 22 10t32 11t39 8t44 3q72 -1 108 -31.5t36 -84.5q0 -19 -5.5 -37t-19.5 -37t-37.5 -40t-59.5 -46h133v-78zM563 323q17 9 54.5 20.5
t82.5 11.5q69 -1 102.5 -26.5t33.5 -65.5q0 -29 -16.5 -49t-46.5 -30q45 -7 65 -28t20 -52q0 -49 -41 -77.5t-122 -29.5q-51 1 -86 12.5t-49 22.5v99q15 -20 50.5 -35.5t82.5 -14.5q38 0 54 9t16 25q0 12 -13 20t-51 8h-66v72h50q59 0 59 28q0 14 -11 21t-41 8
q-33 1 -68 -12.5t-59 -36.5v100v0z" />
    <glyph glyph-name="oneeighth" unicode="&#x215b;" horiz-adv-x="833" 
d="M169 0h-118l507 700h115zM143 607l-90 -53v85l114 65h68v-354h-92v257zM606 -3q-81 0 -124.5 28t-43.5 76q0 28 17 52t64 35q-29 8 -48.5 25.5t-19.5 49.5q0 43 38.5 68.5t116.5 25.5q77 0 113 -24.5t36 -63.5q0 -27 -16 -48t-51 -32q38 -7 61.5 -28.5t23.5 -56.5
q0 -47 -41.5 -77t-125.5 -30zM607 79q44 0 61.5 8.5t17.5 29.5q0 17 -17.5 26.5t-62.5 9.5t-62.5 -9.5t-17.5 -29.5q0 -35 81 -35zM605 213q37 0 51 9t14 24t-15 22.5t-50 7.5q-38 0 -53 -8.5t-15 -21.5q0 -14 15 -23.5t53 -9.5z" />
    <glyph glyph-name="threeeighths" unicode="&#x215c;" horiz-adv-x="898" 
d="M234 0h-118l507 700h115zM63 672q17 9 54.5 20.5t82.5 11.5q69 -1 102.5 -26.5t33.5 -65.5q0 -29 -16.5 -49t-46.5 -30q45 -7 65 -28t20 -52q0 -49 -41 -77.5t-122 -29.5q-51 1 -86 12.5t-49 22.5v99q15 -20 50.5 -35.5t82.5 -14.5q38 0 54 9t16 25q0 12 -13 20t-51 8
h-66v72h50q59 0 59 28q0 14 -11 21t-41 8q-33 1 -68 -12.5t-59 -36.5v100v0zM671 -3q-81 0 -124.5 28t-43.5 76q0 28 17 52t64 35q-29 8 -48.5 25.5t-19.5 49.5q0 43 38.5 68.5t116.5 25.5q77 0 113 -24.5t36 -63.5q0 -27 -16 -48t-51 -32q38 -7 61.5 -28.5t23.5 -56.5
q0 -47 -41.5 -77t-125.5 -30zM672 79q44 0 61.5 8.5t17.5 29.5q0 17 -17.5 26.5t-62.5 9.5t-62.5 -9.5t-17.5 -29.5q0 -35 81 -35zM670 213q37 0 51 9t14 24t-15 22.5t-50 7.5q-38 0 -53 -8.5t-15 -21.5q0 -14 15 -23.5t53 -9.5z" />
    <glyph glyph-name="fiveeighths" unicode="&#x215d;" horiz-adv-x="888" 
d="M224 0h-118l507 700h115zM336 623h-178l-5 -50q16 4 46 4q42 0 70 -8.5t45.5 -23t24.5 -34.5t7 -44q0 -59 -42 -90t-120 -31q-47 0 -79 12t-45 23v99q14 -20 46.5 -36t75.5 -16q40 0 57 10.5t17 30.5q0 22 -19.5 33t-63.5 11q-40 0 -63.5 -4t-37.5 -7l21 198h243v-77z
M661 -3q-81 0 -124.5 28t-43.5 76q0 28 17 52t64 35q-29 8 -48.5 25.5t-19.5 49.5q0 43 38.5 68.5t116.5 25.5q77 0 113 -24.5t36 -63.5q0 -27 -16 -48t-51 -32q38 -7 61.5 -28.5t23.5 -56.5q0 -47 -41.5 -77t-125.5 -30zM662 79q44 0 61.5 8.5t17.5 29.5q0 17 -17.5 26.5
t-62.5 9.5t-62.5 -9.5t-17.5 -29.5q0 -35 81 -35zM660 213q37 0 51 9t14 24t-15 22.5t-50 7.5q-38 0 -53 -8.5t-15 -21.5q0 -14 15 -23.5t53 -9.5z" />
    <glyph glyph-name="seveneighths" unicode="&#x215e;" horiz-adv-x="833" 
d="M169 0h-118l507 700h115zM359 700v-51l-148 -299h-93l140 273h-183v77h284zM606 -3q-81 0 -124.5 28t-43.5 76q0 28 17 52t64 35q-29 8 -48.5 25.5t-19.5 49.5q0 43 38.5 68.5t116.5 25.5q77 0 113 -24.5t36 -63.5q0 -27 -16 -48t-51 -32q38 -7 61.5 -28.5t23.5 -56.5
q0 -47 -41.5 -77t-125.5 -30zM607 79q44 0 61.5 8.5t17.5 29.5q0 17 -17.5 26.5t-62.5 9.5t-62.5 -9.5t-17.5 -29.5q0 -35 81 -35zM605 213q37 0 51 9t14 24t-15 22.5t-50 7.5q-38 0 -53 -8.5t-15 -21.5q0 -14 15 -23.5t53 -9.5z" />
    <glyph glyph-name="minus" unicode="&#x2212;" 
d="M520 398v-106h-420v106h420z" />
    <glyph glyph-name="uni2215" unicode="&#x2215;" horiz-adv-x="318" 
d="M228 750h110l-248 -943h-110z" />
    <glyph glyph-name="infinity" unicode="&#x221e;" 
d="M170 513q26 0 47 -8.5t38 -22t30.5 -31t24.5 -35.5q11 18 24.5 35.5t30.5 31t38 22t47 8.5q72 0 107 -45.5t35 -117.5t-35 -117.5t-107 -45.5q-26 0 -47 8t-38 21.5t-30.5 31t-24.5 35.5q-11 -18 -24.5 -35.5t-30.5 -31t-38 -21.5t-47 -8q-72 0 -107 45.5t-35 117.5
t35 117.5t107 45.5zM358 350q23 -38 41.5 -54.5t47.5 -16.5t42.5 18.5t13.5 52.5t-13.5 52.5t-42.5 18.5t-47.5 -16.5t-41.5 -54.5zM263 350q-23 38 -41.5 54.5t-47.5 16.5t-42.5 -18.5t-13.5 -52.5t13.5 -52.5t42.5 -18.5t47.5 16.5t41.5 54.5z" />
    <glyph glyph-name="approxequal" unicode="&#x2248;" 
d="M100 484q23 20 52 30t59 10q33 0 61.5 -13.5t55.5 -29.5t53.5 -29.5t54.5 -13.5q20 0 44 11t40 36v-115q-20 -19 -45.5 -28.5t-52.5 -9.5q-34 0 -63.5 13.5t-56.5 29.5t-52 29.5t-50 13.5q-29 0 -52 -11t-48 -32v109zM100 284q23 20 52 30t59 10q33 0 61.5 -13.5
t55.5 -29.5t53.5 -29.5t54.5 -13.5q20 0 44 11t40 36v-115q-20 -19 -45.5 -28.5t-52.5 -9.5q-34 0 -63.5 13.5t-56.5 29.5t-52 29.5t-50 13.5q-29 0 -52 -11t-48 -32v109z" />
    <glyph glyph-name="notequal" unicode="&#x2260;" 
d="M201 192h-101v106h138l37 104h-175v106h212l67 192h111l-67 -192h97v-106h-134l-37 -104h171v-106h-208l-70 -202h-111z" />
    <glyph glyph-name="lessequal" unicode="&#x2264;" 
d="M520 684v-127l-236 -141l236 -141v-127l-430 268zM520 145v-106h-420v106h420z" />
    <glyph glyph-name="greaterequal" unicode="&#x2265;" 
d="M100 148v127l235 141l-235 140v127l429 -267zM520 145v-106h-420v106h420z" />
    <glyph glyph-name="lozenge" unicode="&#x25ca;" 
d="M62 351l182 349l66 -1l66 1l182 -349l-182 -349h-66h-66zM438 351l-128 249l-127 -249l127 -250z" />
    <glyph glyph-name="uniF400" unicode="&#xf400;" horiz-adv-x="0" 
d="M-313 581l80 169h166l-158 -169h-88z" />
    <glyph glyph-name="uniF406" unicode="&#xf406;" horiz-adv-x="442" 
d="M221 744q-74 0 -119 36t-62 89h60q23 -21 51 -31t70 -10t73.5 10t47.5 31h60q-18 -59 -65.5 -92t-115.5 -33z" />
    <glyph glyph-name="uniF407" unicode="&#xf407;" horiz-adv-x="301" 
d="M152 -58q52 -8 80.5 -30t28.5 -60q0 -32 -18.5 -55.5t-49.5 -38.5t-70.5 -22.5t-82.5 -7.5v51q18 0 36.5 4t33.5 11.5t24.5 18.5t9.5 26q0 24 -22 34.5t-64 12.5l45 114h77z" />
    <glyph glyph-name="uniF408" unicode="&#xf408;" horiz-adv-x="389" 
d="M389 744h-78l-117 48l-115 -48h-78l137 125h114z" />
    <glyph glyph-name="uniF409" unicode="&#xf409;" horiz-adv-x="262" 
d="M40 -258q45 8 72.5 29t32.5 44h-1q-40 0 -54.5 17.5t-14.5 42.5q0 26 14.5 44t54.5 18q25 0 43 -10q15 -8 25 -27.5t10 -50.5q0 -35 -14 -62.5t-34.5 -47t-44.5 -31t-44 -15.5l-45 49v0z" />
    <glyph glyph-name="uniF40A" unicode="&#xf40a;" horiz-adv-x="225" 
d="M91 700h124l-86 -200h-84z" />
    <glyph glyph-name="uniF40B" unicode="&#xf40b;" horiz-adv-x="218" 
d="M40 807q0 28 19 44.5t51 16.5q31 0 49.5 -16.5t18.5 -44.5q0 -29 -18.5 -46.5t-49.5 -17.5q-32 0 -51 17.5t-19 46.5z" />
    <glyph glyph-name="uniF40C" unicode="&#xf40c;" horiz-adv-x="347" 
d="M40 784q0 45 37 70t97 25t96.5 -25t36.5 -70t-36.5 -69.5t-96.5 -24.5t-97 24.5t-37 69.5zM121 784q0 -14 11.5 -22t41.5 -8q29 0 40.5 8t11.5 22t-11.5 22.5t-40.5 8.5q-30 0 -41.5 -8.5t-11.5 -22.5z" />
    <glyph glyph-name="uniF40D" unicode="&#xf40d;" horiz-adv-x="460" 
d="M420 869q-9 -37 -21 -62t-27.5 -40t-35 -21t-43.5 -6q-22 0 -41.5 6t-37.5 12.5t-34 12.5t-31 6q-35 0 -51 -37h-58q10 38 25 63t31.5 39.5t34 20t34.5 5.5q18 0 36.5 -6t36 -12.5t34 -12.5t30.5 -6q20 0 37 7.5t27 30.5h54v0z" />
    <glyph glyph-name="uniF40E" unicode="&#xf40e;" horiz-adv-x="312" 
d="M263 0q-38 -29 -63.5 -61.5t-25.5 -69.5q0 -31 19 -48t58 -17h10.5t10.5 1v-58q-14 -8 -40.5 -13.5t-55.5 -5.5q-35 0 -60.5 8.5t-42.5 23.5t-25 34.5t-8 41.5q0 27 13.5 54t38 52t58 48.5t73.5 43.5l40 -34v0z" />
    <glyph glyph-name="zero.tab" unicode="&#xf4e0;" 
d="M41 349q0 97 21 165.5t57.5 111t85 62.5t103.5 20q62 0 112 -22t85.5 -66.5t54.5 -112t19 -158.5q0 -98 -21.5 -166.5t-58 -111t-85 -62t-103.5 -19.5q-62 0 -112 22t-85 66.5t-54 112t-19 158.5zM161 349q0 -67 10.5 -113t30 -74.5t47 -41.5t62.5 -13q36 0 63.5 12.5
t46.5 41t28.5 75t9.5 113.5t-10.5 112.5t-30 74t-47.5 41.5t-62 14q-36 0 -63.5 -12.5t-46.5 -41t-28.5 -75t-9.5 -113.5z" />
    <glyph glyph-name="one.tab" unicode="&#xf4e1;" 
d="M133 115h163v446l-149 -93v123l180 116h86v-592h125v-115h-405v115z" />
    <glyph glyph-name="two.tab" unicode="&#xf4e2;" 
d="M68 0v86q109 93 175 155.5t101.5 106.5t47 74t11.5 57q0 52 -32 80t-89 28q-60 1 -108.5 -20t-83.5 -61v133q13 13 33.5 25.5t47.5 22.5t59.5 16t69.5 6q111 -1 168.5 -56t57.5 -148q0 -43 -12.5 -83t-40.5 -82t-73.5 -88t-111.5 -102l-41 -35h298v-115h-477z" />
    <glyph glyph-name="three.tab" unicode="&#xf4e3;" 
d="M89 639q26 26 81 48t134 22q109 -1 166 -48t57 -130q0 -63 -32.5 -104.5t-86.5 -61.5q70 -13 107.5 -54t37.5 -113q0 -44 -16 -81t-48 -64.5t-80 -43.5t-112 -17q-40 0 -74.5 7t-61.5 17.5t-46.5 23t-30.5 23.5v133q33 -38 87.5 -62t123.5 -23q70 1 106 27.5t36 72.5
q0 50 -34 74.5t-115 24.5h-79v90h58q69 0 106 23t37 74q0 48 -30.5 70.5t-92.5 22.5q-128 -3 -198 -84v133v0z" />
    <glyph glyph-name="four.tab" unicode="&#xf4e4;" 
d="M361 700h133v-417h92v-109h-92v-174h-116v174h-351v92zM378 283v278l-219 -278h219z" />
    <glyph glyph-name="five.tab" unicode="&#xf4e5;" 
d="M92 183q32 -33 83.5 -53t113.5 -19q70 0 102 33t32 84q0 57 -42.5 85t-118.5 28q-46 0 -84.5 -7t-66.5 -17l24 383h375v-115h-274l-10 -150q16 4 40 6.5t44 2.5q58 0 102 -16t74 -44.5t45 -68t15 -87.5q0 -57 -19 -101t-53 -74t-80.5 -45.5t-100.5 -15.5q-38 0 -69.5 6
t-57 15.5t-44.5 21t-30 21.5v127v0z" />
    <glyph glyph-name="six.tab" unicode="&#xf4e6;" 
d="M532 504q-16 19 -37 35.5t-46 28.5t-54 18t-61 4q-78 -5 -125 -60t-49 -161v-21t2 -19q19 57 68.5 92t121.5 35q52 0 94 -17t71 -47t44.5 -70.5t15.5 -87.5q0 -58 -20.5 -103t-55.5 -76t-80.5 -47t-95.5 -16q-62 0 -113 22t-87.5 65t-56.5 106.5t-20 146.5q0 97 21 167
t59 115.5t89.5 68t113.5 25.5q38 1 70 -5.5t57.5 -17.5t44 -24t29.5 -24v-133zM323 350q-63 0 -103 -35.5t-45 -96.5q16 -51 51 -80.5t95 -29.5q64 0 100 35t36 88q0 52 -34 85.5t-100 33.5z" />
    <glyph glyph-name="seven.tab" unicode="&#xf4e7;" 
d="M78 700h464v-89l-243 -611h-127l232 571h-326v129z" />
    <glyph glyph-name="eight.tab" unicode="&#xf4e8;" 
d="M311 -9q-61 0 -110.5 14.5t-84 41.5t-53 66t-18.5 88q0 26 6 52.5t20 49.5t38.5 41.5t60.5 29.5q-20 5 -39 17t-33.5 31t-23 44.5t-8.5 57.5q0 86 61.5 136.5t182.5 50.5q120 0 178 -49t58 -131q0 -55 -25.5 -97t-76.5 -59q66 -15 98.5 -58.5t32.5 -112.5q0 -47 -17 -86
t-50 -67.5t-82.5 -44t-114.5 -15.5zM312 110q74 0 108.5 26.5t34.5 80.5q0 56 -37.5 79.5t-106.5 23.5q-144 0 -144 -101q0 -29 10.5 -50t29.5 -34t46 -19t59 -6zM309 415q64 0 92 24.5t28 66.5q0 44 -27 65t-93 21t-96 -22.5t-30 -65.5q0 -36 30 -62.5t96 -26.5z" />
    <glyph glyph-name="nine.tab" unicode="&#xf4e9;" 
d="M87 196q16 -19 37 -35.5t46.5 -28.5t54.5 -18t61 -4q78 5 125 61t49 162q0 20 -3 38q-18 -57 -68 -92t-122 -35q-53 0 -94.5 17t-70 47t-44 70.5t-15.5 87.5q0 58 20.5 103t55 76t80.5 47t96 16q62 0 113 -22t87 -65t56 -106.5t20 -146.5q0 -97 -21 -167t-59 -115.5
t-90 -68t-113 -25.5q-38 -1 -70 5.5t-57.5 17.5t-44.5 24t-29 24v133zM297 350q62 0 102 35.5t45 95.5q-15 51 -50 81t-95 30q-64 0 -100.5 -34.5t-36.5 -88.5q0 -52 34.5 -85.5t100.5 -33.5z" />
    <glyph glyph-name="dollar.tab" unicode="&#xf4ec;" 
d="M536 487q-35 48 -87.5 78.5t-125.5 28.5q-66 -1 -90 -19t-24 -54q0 -27 14.5 -45t38.5 -30.5t55 -22.5t63 -21t63 -26.5t55 -39t38.5 -57.5t14.5 -83q0 -85 -46.5 -135t-140.5 -64v-107h-106v104q-67 6 -111.5 27.5t-63.5 39.5v155q36 -48 89.5 -77t126.5 -28
q67 1 95.5 20.5t28.5 62.5q0 39 -25 61t-62 37t-81 28.5t-81 36t-62 59.5t-25 99q0 78 41.5 127.5t130.5 63.5v94h106v-91q33 -3 60.5 -10.5t49 -17.5t37 -20t24.5 -19v-155v0z" />
    <glyph glyph-name="Euro.tab" unicode="&#xf4ed;" 
d="M85 474q14 61 41 105t63.5 72t80.5 41.5t93 15.5q46 0 81.5 -7t60.5 -17t41 -21.5t24 -20.5l-39 -147q-23 46 -65.5 72t-105.5 24q-53 -2 -88 -29t-52 -88h304l-26 -97h-291v-28v-22t1 -21h273l-26 -97h-229q20 -55 57.5 -78.5t90.5 -23.5q72 0 120.5 28t85.5 75v-148
q-26 -28 -80 -50.5t-133 -21.5q-106 2 -178 55.5t-100 163.5h-61l26 97h20q-1 11 -1 21.5v21.5v28h-45l26 97h31z" />
    <glyph glyph-name="cent.tab" unicode="&#xf4ee;" 
d="M523 50q-14 -18 -48.5 -35.5t-82.5 -23.5v-101h-106v106q-91 17 -143 80.5t-52 175.5q0 109 52.5 172t143.5 80v106h106v-101q39 -5 72 -17t53 -27v-146q-26 40 -65.5 64.5t-94.5 25.5q-72 0 -110 -38t-38 -114v-15q0 -78 39.5 -114.5t110.5 -36.5q63 0 103.5 23t59.5 56
v-120v0z" />
    <glyph glyph-name="sterling.tab" unicode="&#xf4ef;" 
d="M144 398v76q0 60 16 104.5t46 73.5t72 43.5t93 14.5t93 -13t67 -32v-146q-26 40 -65.5 64.5t-94.5 24.5q-54 0 -82.5 -31t-28.5 -92v-87h240v-106h-240v-177h280v-115h-461v115h65v177h-64v106h64z" />
    <glyph glyph-name="yen.tab" unicode="&#xf4fa;" 
d="M195 358l-200 342h140l180 -315l175 315h136l-200 -342h94v-106h-146v-55h146v-106h-146v-91h-125v91h-149v106h149v55h-149v106h95z" />
    <glyph glyph-name="florin.tab" unicode="&#xf4fb;" 
d="M257 493l8 75q11 104 57.5 149t124.5 45q36 0 61.5 -8.5t41.5 -17.5v-126q-14 21 -36.5 33.5t-54.5 12.5t-52.5 -18.5t-25.5 -69.5l-8 -75h153v-102h-164l-42 -409q-5 -42 -15 -75t-29 -55.5t-49 -34t-74 -11.5q-26 0 -47.5 6t-35.5 14v114q29 -29 71 -29q31 0 45 17
t18 56l42 407h-64v102h75z" />
    <glyph glyph-name="uni20B4.tab" unicode="&#xf4fc;" 
d="M517 328v-94h-263q-19 -14 -28.5 -29.5t-9.5 -35.5q0 -27 23 -46.5t69 -21.5q72 -3 123 23t86 69v-137q-11 -9 -29.5 -20.5t-45 -21.5t-59.5 -16.5t-73 -5.5q-64 2 -105.5 14.5t-66 32t-34 44t-9.5 50.5q0 35 15.5 59.5t38.5 41.5h-52v94h420zM358 474q20 17 29 32.5
t9 30.5q0 30 -26 46t-70 17q-74 0 -122 -25.5t-71 -62.5v130q10 12 28.5 23.5t43.5 21t55.5 15.5t65.5 6h3q58 0 98.5 -10.5t65.5 -28.5t36.5 -41t11.5 -47q0 -34 -12.5 -60t-35.5 -47h50v-94h-420v94h261z" />
    <glyph glyph-name="uni20BD.tab" unicode="&#xf4fd;" 
d="M103 352v348h175q166 0 240 -56t74 -168q0 -116 -79.5 -174t-234.5 -58h-50v-55h219v-107h-219v-82h-125v82h-76v107h76v57h-76v106h76zM228 591v-238h58q88 0 132.5 29t44.5 96q0 62 -41 87.5t-133 25.5h-61z" />
    <glyph glyph-name="uni20B8.tab" unicode="&#xf5f3;" 
d="M41 516h538v-115h-207v-401h-125v401h-206v115zM41 700h538v-115h-538v115z" />
    <glyph glyph-name="zero.denominator" unicode="&#xf655;" horiz-adv-x="450" 
d="M222 355q38 0 70.5 -11t56 -33.5t37 -56t13.5 -79.5q0 -50 -14 -84t-38 -55t-55 -30.5t-64 -9.5q-38 0 -70.5 11t-56 33.5t-37 56t-13.5 79.5q0 49 14 83t37.5 55t54.5 30.5t65 10.5zM148 176q0 -52 20.5 -72.5t59.5 -21.5q33 1 54 22t21 71q0 51 -20 71.5t-57 22.5
q-35 0 -56.5 -21t-21.5 -72z" />
    <glyph glyph-name="one.denominator" unicode="&#xf656;" horiz-adv-x="291" 
d="M128 258l-90 -53v85l114 65h68v-354h-92v257z" />
    <glyph glyph-name="two.denominator" unicode="&#xf657;" horiz-adv-x="404" 
d="M358 1h-298v60q94 53 142.5 88.5t48.5 73.5q0 20 -14.5 34t-43.5 16q-33 2 -68 -12.5t-59 -37.5v100q8 4 22 10t32 11t39 8t44 3q72 -1 108 -31.5t36 -84.5q0 -19 -5.5 -37t-19.5 -37t-37.5 -40t-59.5 -46h133v-78z" />
    <glyph glyph-name="three.denominator" unicode="&#xf658;" horiz-adv-x="399" 
d="M63 323q17 9 54.5 20.5t82.5 11.5q69 -1 102.5 -26.5t33.5 -65.5q0 -29 -16.5 -49t-46.5 -30q45 -7 65 -28t20 -52q0 -49 -41 -77.5t-122 -29.5q-51 1 -86 12.5t-49 22.5v99q15 -20 50.5 -35.5t82.5 -14.5q38 0 54 9t16 25q0 12 -13 20t-51 8h-66v72h50q59 0 59 28
q0 14 -11 21t-41 8q-33 1 -68 -12.5t-59 -36.5v100v0z" />
    <glyph glyph-name="four.denominator" unicode="&#xf659;" horiz-adv-x="398" 
d="M309 351v-194h59v-78h-59v-78h-92v78h-187v69l185 203h94zM217 157v97l-88 -97h88z" />
    <glyph glyph-name="five.denominator" unicode="&#xf65a;" horiz-adv-x="387" 
d="M326 274h-178l-5 -50q16 4 46 4q42 0 70 -8.5t45.5 -23t24.5 -34.5t7 -44q0 -59 -42 -90t-120 -31q-47 0 -79 12t-45 23v99q14 -20 46.5 -36t75.5 -16q40 0 57 10.5t17 30.5q0 22 -19.5 33t-63.5 11q-40 0 -63.5 -4t-37.5 -7l21 198h243v-77z" />
    <glyph glyph-name="six.denominator" unicode="&#xf65b;" horiz-adv-x="428" 
d="M354 222q-14 20 -48 36.5t-79 15.5q-43 -2 -70.5 -23t-27.5 -66v-8.5t1 -11.5q11 26 41 44t75 18q69 0 100.5 -30.5t31.5 -76.5q0 -31 -13 -54t-35 -38.5t-50 -23t-58 -7.5q-79 0 -127.5 44t-48.5 125q0 85 45.5 136t134.5 53q48 1 81.5 -11.5t46.5 -22.5v-99zM142 124
q6 -17 24 -31t57 -14q32 0 49.5 10.5t17.5 30.5t-16 31t-46 11q-32 0 -52 -10.5t-34 -27.5z" />
    <glyph glyph-name="seven.denominator" unicode="&#xf65c;" horiz-adv-x="342" 
d="M303 351v-51l-148 -299h-93l140 273h-183v77h284z" />
    <glyph glyph-name="eight.denominator" unicode="&#xf65d;" horiz-adv-x="421" 
d="M211 -3q-81 0 -124.5 28t-43.5 76q0 28 17 52t64 35q-29 8 -48.5 25.5t-19.5 49.5q0 43 38.5 68.5t116.5 25.5q77 0 113 -24.5t36 -63.5q0 -27 -16 -48t-51 -32q38 -7 61.5 -28.5t23.5 -56.5q0 -47 -41.5 -77t-125.5 -30zM212 79q44 0 61.5 8.5t17.5 29.5
q0 17 -17.5 26.5t-62.5 9.5t-62.5 -9.5t-17.5 -29.5q0 -35 81 -35zM210 213q37 0 51 9t14 24t-15 22.5t-50 7.5q-38 0 -53 -8.5t-15 -21.5q0 -14 15 -23.5t53 -9.5z" />
    <glyph glyph-name="nine.denominator" unicode="&#xf65e;" horiz-adv-x="428" 
d="M74 131q7 -10 19.5 -19.5t29 -16.5t36.5 -11.5t42 -3.5q43 1 70.5 22t27.5 66v8.5t-1 11.5q-11 -26 -41 -44t-75 -18q-69 0 -100.5 31t-31.5 76q0 31 13 54t35 38.5t50 23t58 7.5q79 0 127.5 -44t48.5 -125q0 -85 -45.5 -136t-134.5 -53q-48 -1 -81.5 11.5t-46.5 22.5v99
zM286 229q-6 17 -24 31.5t-57 14.5q-32 0 -49.5 -11t-17.5 -31t16 -31t46 -11q32 0 52 10.5t34 27.5z" />
    <glyph glyph-name="zero.numerator" unicode="&#xf661;" horiz-adv-x="450" 
d="M222 704q38 0 70.5 -11t56 -33.5t37 -56t13.5 -79.5q0 -50 -14 -84t-38 -55t-55 -30.5t-64 -9.5q-38 0 -70.5 11t-56 33.5t-37 56t-13.5 79.5q0 49 14 83t37.5 55t54.5 30.5t65 10.5zM148 525q0 -52 20.5 -72.5t59.5 -21.5q33 1 54 22t21 71q0 51 -20 71.5t-57 22.5
q-35 0 -56.5 -21t-21.5 -72z" />
    <glyph glyph-name="one.numerator" unicode="&#xf662;" horiz-adv-x="291" 
d="M128 607l-90 -53v85l114 65h68v-354h-92v257z" />
    <glyph glyph-name="two.numerator" unicode="&#xf663;" horiz-adv-x="404" 
d="M358 350h-298v60q94 53 142.5 88.5t48.5 73.5q0 20 -14.5 34t-43.5 16q-33 2 -68 -12.5t-59 -37.5v100q8 4 22 10t32 11t39 8t44 3q72 -1 108 -31.5t36 -84.5q0 -19 -5.5 -37t-19.5 -37t-37.5 -40t-59.5 -46h133v-78z" />
    <glyph glyph-name="three.numerator" unicode="&#xf664;" horiz-adv-x="399" 
d="M63 672q17 9 54.5 20.5t82.5 11.5q69 -1 102.5 -26.5t33.5 -65.5q0 -29 -16.5 -49t-46.5 -30q45 -7 65 -28t20 -52q0 -49 -41 -77.5t-122 -29.5q-51 1 -86 12.5t-49 22.5v99q15 -20 50.5 -35.5t82.5 -14.5q38 0 54 9t16 25q0 12 -13 20t-51 8h-66v72h50q59 0 59 28
q0 14 -11 21t-41 8q-33 1 -68 -12.5t-59 -36.5v100v0z" />
    <glyph glyph-name="four.numerator" unicode="&#xf665;" horiz-adv-x="398" 
d="M309 700v-194h59v-78h-59v-78h-92v78h-187v69l185 203h94zM217 506v97l-88 -97h88z" />
    <glyph glyph-name="five.numerator" unicode="&#xf666;" horiz-adv-x="387" 
d="M326 623h-178l-5 -50q16 4 46 4q42 0 70 -8.5t45.5 -23t24.5 -34.5t7 -44q0 -59 -42 -90t-120 -31q-47 0 -79 12t-45 23v99q14 -20 46.5 -36t75.5 -16q40 0 57 10.5t17 30.5q0 22 -19.5 33t-63.5 11q-40 0 -63.5 -4t-37.5 -7l21 198h243v-77z" />
    <glyph glyph-name="six.numerator" unicode="&#xf667;" horiz-adv-x="428" 
d="M354 571q-14 20 -48 36.5t-79 15.5q-43 -2 -70.5 -23t-27.5 -66v-8.5t1 -11.5q11 26 41 44t75 18q69 0 100.5 -30.5t31.5 -76.5q0 -31 -13 -54t-35 -38.5t-50 -23t-58 -7.5q-79 0 -127.5 44t-48.5 125q0 85 45.5 136t134.5 53q48 1 81.5 -11.5t46.5 -22.5v-99zM142 473
q6 -17 24 -31t57 -14q32 0 49.5 10.5t17.5 30.5t-16 31t-46 11q-32 0 -52 -10.5t-34 -27.5z" />
    <glyph glyph-name="seven.numerator" unicode="&#xf668;" horiz-adv-x="342" 
d="M303 700v-51l-148 -299h-93l140 273h-183v77h284z" />
    <glyph glyph-name="eight.numerator" unicode="&#xf669;" horiz-adv-x="421" 
d="M211 346q-81 0 -124.5 28t-43.5 76q0 28 17 52t64 35q-29 8 -48.5 25.5t-19.5 49.5q0 43 38.5 68.5t116.5 25.5q77 0 113 -24.5t36 -63.5q0 -27 -16 -48t-51 -32q38 -7 61.5 -28.5t23.5 -56.5q0 -47 -41.5 -77t-125.5 -30zM212 428q44 0 61.5 8.5t17.5 29.5
q0 17 -17.5 26.5t-62.5 9.5t-62.5 -9.5t-17.5 -29.5q0 -35 81 -35zM210 562q37 0 51 9t14 24t-15 22.5t-50 7.5q-38 0 -53 -8.5t-15 -21.5q0 -14 15 -23.5t53 -9.5z" />
    <glyph glyph-name="nine.numerator" unicode="&#xf66a;" horiz-adv-x="428" 
d="M74 480q7 -10 19.5 -19.5t29 -16.5t36.5 -11.5t42 -3.5q43 1 70.5 22t27.5 66v8.5t-1 11.5q-11 -26 -41 -44t-75 -18q-69 0 -100.5 31t-31.5 76q0 31 13 54t35 38.5t50 23t58 7.5q79 0 127.5 -44t48.5 -125q0 -85 -45.5 -136t-134.5 -53q-48 -1 -81.5 11.5t-46.5 22.5v99
zM286 578q-6 17 -24 31.5t-57 14.5q-32 0 -49.5 -11t-17.5 -31t16 -31t46 -11q32 0 52 10.5t34 27.5z" />
    <glyph glyph-name="uniF6BA" unicode="&#xf6ba;" horiz-adv-x="427" 
d="M79 404h268v-108h-268v108z" />
    <glyph glyph-name="uniF6BB" unicode="&#xf6bb;" horiz-adv-x="707" 
d="M111 403h485v-106h-485v106z" />
    <glyph glyph-name="uniF6BC" unicode="&#xf6bc;" horiz-adv-x="916" 
d="M111 403h694v-106h-694v106z" />
    <glyph glyph-name="uniF6C3" unicode="&#xf6c3;" horiz-adv-x="262" 
d="M40 -258q45 8 72.5 29t32.5 44h-1q-40 0 -54.5 17.5t-14.5 42.5q0 26 14.5 44t54.5 18q25 0 43 -10q15 -8 25 -27.5t10 -50.5q0 -35 -14 -62.5t-34.5 -47t-44.5 -31t-44 -15.5l-45 49v0z" />
    <glyph glyph-name="uniF6C9" unicode="&#xf6c9;" horiz-adv-x="376" 
d="M40 744l120 125h176l-193 -125h-103z" />
    <glyph glyph-name="uniF6CA" unicode="&#xf6ca;" horiz-adv-x="468" 
d="M177 744l-137 125h78l115 -48l117 48h78l-137 -125h-114z" />
    <glyph glyph-name="uniF6CB" unicode="&#xf6cb;" horiz-adv-x="435" 
d="M257 807q0 28 18.5 44.5t50.5 16.5t50.5 -16.5t18.5 -44.5q0 -29 -18.5 -46.5t-50.5 -17.5t-50.5 17.5t-18.5 46.5zM40 807q0 28 18.5 44.5t50.5 16.5t50.5 -16.5t18.5 -44.5q0 -29 -18.5 -46.5t-50.5 -17.5t-50.5 17.5t-18.5 46.5z" />
    <glyph glyph-name="uniF6CE" unicode="&#xf6ce;" horiz-adv-x="376" 
d="M40 869h176l120 -125h-103z" />
    <glyph glyph-name="uniF6CF" unicode="&#xf6cf;" horiz-adv-x="530" 
d="M40 744l70 125h145l-118 -125h-97zM207 744l117 125h166l-185 -125h-98z" />
    <glyph glyph-name="uniF6D0" unicode="&#xf6d0;" horiz-adv-x="389" 
d="M40 854h309v-94h-309v94z" />
    <glyph glyph-name="uniF6D1" unicode="&#xf6d1;" horiz-adv-x="490" 
d="M450 880q-8 -74 -61 -110t-139 -36q-42 0 -78.5 6t-64 22.5t-45.5 45t-22 72.5h118q5 -27 26 -42.5t64 -15.5q45 0 63.5 16t22.5 42h116z" />
    <glyph glyph-name="uniF6D4" unicode="&#xf6d4;" horiz-adv-x="430" 
d="M390 749q0 -42 -14.5 -71.5t-38.5 -48t-54.5 -27t-62.5 -8.5q-37 0 -70 8.5t-57.5 27t-38.5 48t-14 71.5h108q0 -32 16.5 -50t53.5 -18q30 0 47 15t17 53h108z" />
    <glyph glyph-name="uniFEFF" unicode="&#xfeff;" horiz-adv-x="0" 
 />
    <glyph glyph-name="afii10086.ss01" horiz-adv-x="500" 
d="M442 8v496h-384v-496h384zM50 512h400v-512h-400v512z" />
    <glyph glyph-name="percent.tab" 
d="M152 0h-117l433 700h115zM35 577q0 57 37.5 94.5t103.5 37.5t103.5 -37.5t37.5 -94.5q0 -28 -9.5 -52t-28 -41.5t-44.5 -27.5t-59 -10t-59 10t-44.5 27.5t-28 41.5t-9.5 52zM123 577q0 -26 14 -40.5t39 -14.5q24 0 38.5 14.5t14.5 40.5t-14 41t-39 15t-39 -15t-14 -41z
M302 122q0 28 9.5 52t28 41.5t44.5 27.5t59 10t59.5 -10t44.5 -27.5t28 -41.5t10 -52q0 -57 -38 -94.5t-104 -37.5t-103.5 37.5t-37.5 94.5zM390 122q0 -26 14.5 -41t38.5 -15t38.5 15t14.5 41t-13.5 40.5t-39.5 14.5q-24 0 -38.5 -14.5t-14.5 -40.5z" />
    <glyph glyph-name="plus.tab" 
d="M257 292h-157v106h157v157h106v-157h157v-106h-157v-157h-106v157z" />
    <glyph glyph-name="less.tab" 
d="M504 615v-127l-236 -141l236 -141v-126l-430 267z" />
    <glyph glyph-name="equal.tab" 
d="M520 298v-106h-420v106h420zM520 508v-106h-420v106h420z" />
    <glyph glyph-name="greater.tab" 
d="M116 79v127l236 141l-236 141v126l430 -267z" />
    <glyph glyph-name="E.ss01" horiz-adv-x="644" 
d="M447 585h-231v-167h322v-115h-322v-188h370v-115h-495v700h514z" />
    <glyph glyph-name="F.ss01" horiz-adv-x="622" 
d="M447 585h-231v-197h342v-115h-342v-273h-125v700h514z" />
    <glyph glyph-name="T.ss01" horiz-adv-x="631" 
d="M487 585h-116v-585h-125v585h-232v115h631z" />
    <glyph glyph-name="Z.ss01" horiz-adv-x="633" 
d="M195 700h401l2 -95l-408 -490h405v-115h-562l-3 95l411 490h-404z" />
    <glyph glyph-name="b.ss01" horiz-adv-x="609" 
d="M187 233q0 -68 36 -104.5t97 -36.5q71 0 103 37.5t32 126.5q0 41 -9.5 69.5t-27 46.5t-41.5 26t-54 8q-70 0 -102 -36t-34 -99v-38zM187 416q9 18 23 35t35 30t48.5 21t62.5 8q48 0 87.5 -14.5t68 -44.5t44.5 -77t16 -113q0 -74 -16 -125.5t-45.5 -84t-71.5 -47.5
t-93 -15q-66 0 -107.5 30t-58.5 70v-89h-109v666l116 84v-334z" />
    <glyph glyph-name="d.ss01" horiz-adv-x="610" 
d="M289 407q-71 0 -103 -37.5t-32 -126.5q0 -41 9.5 -69.5t27 -46.5t42 -26t54.5 -8q64 0 97 31t38 87v74q-5 59 -40.5 90.5t-92.5 31.5zM538 0h-109v100q-7 -21 -21 -40.5t-35.5 -35.5t-51 -25.5t-68.5 -9.5q-48 0 -87.5 14.5t-68 44.5t-44.5 77t-16 113q0 74 16 125.5
t45.5 84t71.5 47.5t93 15q60 0 99.5 -25.5t59.5 -60.5v242l116 84v-750z" />
    <glyph glyph-name="h.ss01" horiz-adv-x="598" 
d="M188 750v-352q11 46 56.5 78.5t117.5 32.5q81 -1 126.5 -44t45.5 -131v-334h-117v302q0 54 -23 79t-75 26h-3q-128 0 -128 -129v-278h-117v666z" />
    <glyph glyph-name="k.ss01" horiz-adv-x="555" 
d="M188 750v-445h55l140 195h130l-175 -236l203 -264h-142l-157 207h-54v-207h-117v665z" />
    <glyph glyph-name="l.ss01" horiz-adv-x="334" 
d="M188 750v-593q0 -37 13 -49t45 -12q23 0 42 4t31 9v-101q-12 -7 -41 -12.5t-61 -5.5q-68 0 -107 30t-39 100v545z" />
    <glyph glyph-name="multiply.tab" 
d="M310 270l-111 -111l-75 75l111 111l-111 111l75 75l111 -111l111 111l75 -75l-111 -111l111 -111l-75 -75z" />
    <glyph glyph-name="divide.tab" 
d="M520 398v-106h-420v106h420zM241 518q0 29 19 47t51 18q31 0 49.5 -18t18.5 -47q0 -30 -18.5 -48t-49.5 -18q-32 0 -51 18t-19 48zM241 173q0 29 19 47t51 18q31 0 49.5 -18t18.5 -47q0 -30 -18.5 -48t-49.5 -18q-32 0 -51 18t-19 48z" />
    <glyph glyph-name="afii10023.aalt" horiz-adv-x="644" 
d="M381 807q0 28 18.5 44.5t50.5 16.5t50.5 -16.5t18.5 -44.5q0 -29 -18.5 -46.5t-50.5 -17.5t-50.5 17.5t-18.5 46.5zM164 807q0 28 19 44.5t51 16.5q31 0 49.5 -16.5t18.5 -44.5q0 -29 -18.5 -46.5t-49.5 -17.5q-32 0 -51 17.5t-19 46.5zM447 585h-231v-167h322v-115h-322
v-188h370v-115h-495v700h514z" />
    <glyph glyph-name="afii10018.aalt" horiz-adv-x="689" 
d="M216 345v-230h133q37 0 67.5 6t52 20t33 37.5t11.5 58.5q0 63 -41.5 85.5t-122.5 22.5h-133zM447 585h-231v-125h137q145 0 217.5 -55t72.5 -171q0 -58 -20.5 -101.5t-59 -73t-92.5 -44.5t-121 -15h-259v700h514z" />
    <glyph glyph-name="afii10020.aalt" horiz-adv-x="585" 
d="M427 585h-211v-585h-125v700h494z" />
    <glyph glyph-name="afii10022.aalt" horiz-adv-x="644" 
d="M447 585h-231v-167h322v-115h-322v-188h370v-115h-495v700h514z" />
    <glyph glyph-name="afii10036.aalt" horiz-adv-x="631" 
d="M487 585h-116v-585h-125v585h-232v115h631z" />
    <glyph glyph-name="afii10086.aalt" horiz-adv-x="723" 
d="M154 255q0 -45 9.5 -74t26.5 -46.5t41 -24.5t54 -7h18v294h-17q-62 0 -97 -32.5t-35 -109.5zM420 397v-294h16q62 0 97.5 32.5t35.5 109.5q0 45 -9.5 74t-27 46.5t-41.5 24.5t-53 7h-18zM420 750v-250h19q54 0 99 -13.5t78 -43.5t51.5 -77.5t18.5 -115.5q0 -64 -18 -111
t-50.5 -78t-77.5 -46t-98 -15h-22v-193h-117v193h-19q-54 0 -99 13.5t-78 43.5t-51.5 77.5t-18.5 115.5q0 64 18 111t50.5 78t77.5 46t98 15h22v166z" />
    <glyph glyph-name="perthousand.tab" 
d="M87 0h-84l306 700h81zM7 578q0 57 28.5 94t79.5 37t79 -37t28 -94t-28 -94t-79 -37t-79.5 37t-28.5 94zM74 578q0 -26 11 -41t30 -15q18 0 29 15t11 41t-10.5 40.5t-29.5 14.5t-30 -14.5t-11 -40.5zM172 122q0 57 28 94t79 37t79.5 -37t28.5 -94t-28.5 -94.5t-79.5 -37.5
t-79 37.5t-28 94.5zM239 122q0 -26 10.5 -41t29.5 -15t30 15t11 41t-10.5 40.5t-30.5 14.5q-19 0 -29.5 -14.5t-10.5 -40.5zM399 122q0 57 28.5 94t79.5 37t79 -37t28 -94t-28 -94.5t-79 -37.5t-79.5 37.5t-28.5 94.5zM466 122q0 -26 11 -41t30 -15q18 0 29 15t11 41
t-10.5 40.5t-29.5 14.5t-30 -14.5t-11 -40.5z" />
    <glyph glyph-name="minus.tab" 
d="M520 398v-106h-420v106h420z" />
    <glyph glyph-name="uni0000.582" horiz-adv-x="0" 
 />
    <glyph glyph-name="f_b" horiz-adv-x="982" 
d="M560 750v-334q9 18 23 35t35 30t48.5 21t62.5 8q48 0 87.5 -14.5t68 -44.5t44.5 -77t16 -113q0 -74 -16 -125.5t-45.5 -84t-71.5 -47.5t-93 -15q-66 0 -107.5 30t-58.5 70v-89h-109v750h116zM101 500v61q0 52 14 89t38.5 60t58 34t72.5 11q35 0 60.5 -8.5t41.5 -17.5
v-126q-14 21 -36 33.5t-54 12.5t-55 -19t-23 -69v-61h151v-103h-151v-397h-117v397h-75v103h75zM695 406q-65 0 -97.5 -31t-37.5 -87v-75q5 -59 40.5 -90t92.5 -31q71 0 103 37.5t32 126.5q0 82 -36.5 116t-96.5 34z" />
    <glyph glyph-name="f_f_b" horiz-adv-x="1305" 
d="M884 750v-332q18 36 58.5 64t109.5 28q48 0 87.5 -14.5t68.5 -44.5t45 -77t16 -113q0 -74 -16 -125.5t-46 -84t-72 -47.5t-93 -15q-66 0 -107.5 30t-57.5 69v-88h-109v750h116zM101 500v61q0 52 14 89t38.5 60t58 34t72.5 11q35 0 60.5 -8.5t41.5 -17.5v-126
q-14 21 -36 33.5t-54 12.5t-55 -19t-23 -69v-61h209v61q0 52 14 89t38.5 60t58 34t72.5 11q35 0 60.5 -8.5t41.5 -17.5v-126q-14 21 -36 33.5t-54 12.5t-55 -19t-23 -69v-61h151v-103h-151v-397h-117v397h-209v-397h-117v397h-75v103h75zM1019 406q-65 0 -97.5 -31
t-37.5 -87v-75q5 -59 40 -90t92 -31q72 0 103.5 37.5t31.5 126.5q0 82 -36 116t-96 34z" />
    <glyph glyph-name="f_f_h" horiz-adv-x="1292" 
d="M101 500v61q0 52 14 89t38.5 60t58 34t72.5 11q35 0 60.5 -8.5t41.5 -17.5v-126q-14 21 -36 33.5t-54 12.5t-55 -19t-23 -69v-61h209v61q0 52 14 89t38.5 60t58 34t72.5 11q35 0 60.5 -8.5t41.5 -17.5v-126q-14 21 -36 33.5t-54 12.5t-55 -19t-23 -69v-61h151v-103h-151
v-397h-117v397h-209v-397h-117v397h-75v103h75zM1111 302q0 55 -23.5 80t-77.5 25q-128 0 -128 -129v-278h-116v750h116v-352q11 46 56.5 78.5t117.5 32.5q81 -1 126.5 -44t45.5 -131v-334h-117v302z" />
    <glyph glyph-name="f_f_j" horiz-adv-x="968" 
d="M101 500v61q0 52 14 89t38.5 60t58 34t72.5 11q35 0 60.5 -8.5t41.5 -17.5v-126q-14 21 -36 33.5t-54 12.5t-55 -19t-23 -69v-61h209v61q0 52 14 89t38.5 60t58 34t72.5 11q35 0 60.5 -8.5t41.5 -17.5v-126q-14 21 -36 33.5t-54 12.5t-55 -19t-23 -69v-61h151v-103h-151
v-397h-117v397h-209v-397h-117v397h-75v103h75zM773 0l-1 500h117v-522q0 -86 -38.5 -131t-127.5 -45q-26 0 -47 6t-35 14v114q29 -29 71 -29q31 0 46 17t15 56v20zM761 694q0 29 19 47t51 18q31 0 49.5 -18t18.5 -47q0 -30 -18.5 -48t-49.5 -18q-32 0 -51 18t-19 48z" />
    <glyph glyph-name="f_f_k" horiz-adv-x="1249" 
d="M101 500v61q0 52 14 89t38.5 60t58 34t72.5 11q35 0 60.5 -8.5t41.5 -17.5v-126q-14 21 -36 33.5t-54 12.5t-55 -19t-23 -69v-61h209v61q0 52 14 89t38.5 60t58 34t72.5 11q35 0 60.5 -8.5t41.5 -17.5v-126q-14 21 -36 33.5t-54 12.5t-55 -19t-23 -69v-61h151v-103h-151
v-397h-117v397h-209v-397h-117v397h-75v103h75zM882 750v-445h56l139 195h130l-174 -236l203 -264h-143l-156 207h-55v-207h-116v750h116z" />
    <glyph glyph-name="f_h" horiz-adv-x="966" 
d="M785 302q0 54 -22.5 79t-75.5 26h-3q-128 0 -128 -129v-278h-116v750h116v-352q11 46 56 78t117 33h1h2q81 -1 125.5 -44t44.5 -131v-334h-117v302zM101 500v61q0 52 14 89t38.5 60t58 34t72.5 11q35 0 60.5 -8.5t41.5 -17.5v-126q-14 21 -36 33.5t-54 12.5t-55 -19
t-23 -69v-61h151v-103h-151v-397h-117v397h-75v103h75z" />
    <glyph glyph-name="f_j" horiz-adv-x="642" 
d="M101 500v61q0 52 14 89t38.5 60t58 34t72.5 11q35 0 60.5 -8.5t41.5 -17.5v-126q-14 21 -36 33.5t-54 12.5t-55 -19t-23 -69v-61h151v-103h-151v-397h-117v397h-75v103h75zM447 0l-1 500h117v-522q0 -86 -38.5 -131t-127.5 -45q-26 0 -47 6t-35 14v114q29 -29 71 -29
q31 0 46 17t15 56v20zM435 694q0 29 19 47t51 18q31 0 49.5 -18t18.5 -47q0 -30 -18.5 -48t-49.5 -18q-32 0 -51 18t-19 48z" />
    <glyph glyph-name="f_k" horiz-adv-x="923" 
d="M556 750v-445h56l139 195h130l-174 -236l203 -264h-143l-156 207h-55v-207h-116v750h116zM101 500v61q0 52 14 89t38.5 60t58 34t72.5 11q35 0 60.5 -8.5t41.5 -17.5v-126q-14 21 -36 33.5t-54 12.5t-55 -19t-23 -69v-61h151v-103h-151v-397h-117v397h-75v103h75z" />
    </font>
</defs>
</svg>
