<svg width="172" height="29" viewBox="0 0 172 29" fill="none" xmlns="http://www.w3.org/2000/svg">
<g clip-path="url(#clip0_354_1286)">
<path d="M65.1479 3.44257V10.6759H65.9758L73.9973 3.44257H81.4251L71.451 12.4246V13.4026L81.6633 23.304H73.9699L66.0071 15.5973H65.1479V23.304H59.1104V3.44257H65.1479Z" fill="white"/>
<path d="M92.6682 7.59326C98.6472 7.59326 102.701 10.1126 102.701 15.034V16.1606C102.701 21.172 98.6472 23.6014 92.6682 23.6014H91.8989C85.9199 23.6014 81.8662 21.1681 81.8662 16.1606V15.034C81.8662 10.1126 85.8925 7.59326 91.8989 7.59326H92.6682ZM87.7554 15.0066V16.1919C87.7554 17.8506 88.7629 19.0986 91.8989 19.0986H92.6682C95.8041 19.0986 96.8117 17.8546 96.8117 16.1919V15.0066C96.8117 13.3166 95.8041 12.0999 92.6682 12.0999H91.8989C88.7629 12.0999 87.7554 13.3166 87.7554 15.0066Z" fill="white"/>
<path d="M111.753 7.89058V10.0266H112.433C113.468 8.54389 115.393 7.59326 118.174 7.59326H118.916C123.297 7.59326 125.516 9.8466 125.516 14.5606V23.308H119.626V15.5425C119.626 13.4965 118.592 12.2799 116.077 12.2799H115.335C112.82 12.2799 111.753 13.4965 111.753 15.5425V23.308H105.864V7.89058H111.753Z" fill="white"/>
<path d="M137.083 7.59327C139.895 7.59327 141.55 8.5439 142.765 9.84661H143.476V1.3653H149.334V23.308H143.476V21.2933H142.765C141.64 22.6586 139.981 23.6053 137.083 23.6053H136.341C132.049 23.6053 128.526 21.5867 128.526 16.1646V15.0379C128.526 9.70186 132.049 7.59719 136.341 7.59719H137.083V7.59327ZM134.419 15.0066V16.1919C134.419 18.2067 136.165 19.0986 138.563 19.0986H139.305C141.73 19.0986 143.48 18.2106 143.48 16.1919V15.0066C143.48 12.9919 141.734 12.1 139.305 12.1H138.563C136.165 12.1 134.419 12.988 134.419 15.0066Z" fill="white"/>
<path d="M162.768 7.59326H162.026C155.793 7.59326 152.892 9.64317 152.774 12.9332H158.589C158.718 11.9708 159.757 11.4466 161.995 11.4466H162.705C165.103 11.4466 166.111 12.0999 166.111 13.2853V13.7586H160.073C154.836 13.7586 152.497 15.5386 152.497 18.9186C152.497 22.06 155.043 23.6053 158.8 23.6053C162.116 23.6053 164.01 22.7759 165.283 21.2033H166.111V23.308H172V13.2853C172 9.75662 169.305 7.59326 162.764 7.59326H162.768ZM166.111 17.2599C166.111 18.9499 163.682 19.5719 161.522 19.5719C159.124 19.5719 158.414 19.0086 158.414 18.2653C158.414 17.3773 159.124 16.99 161.108 16.99H166.111V17.256V17.2599Z" fill="white"/>
<path d="M49.2965 26.7349L38.0844 13.7821C37.5572 13.1719 37.5572 12.2682 38.0844 11.6579L46.1996 2.26116C46.965 1.37704 46.3363 0 45.1686 0H31.836C30.7191 0 29.6608 0.485094 28.9305 1.3301L21.3738 10.0813C20.8583 10.676 20.1124 11.0202 19.3235 11.0202H8.25206C7.13905 11.0202 6.08072 11.5053 5.35044 12.3464L0.336064 18.1362C-0.42937 19.0204 0.19938 20.4013 1.36706 20.4013H14.6997C15.8127 20.4013 16.871 19.9162 17.6013 19.0751L20.3701 15.879C20.7528 15.4369 21.4363 15.4369 21.819 15.879L32.0313 27.6777C32.7616 28.5188 33.8199 29.0039 34.9329 29.0039H48.2655C49.4371 29.0039 50.0619 27.6269 49.2965 26.7388V26.7349Z" fill="white"/>
</g>
<defs>
<clipPath id="clip0_354_1286">
<rect width="172" height="29" fill="white"/>
</clipPath>
</defs>
</svg>
