<svg width="701" height="89" viewBox="0 0 701 89" fill="none" xmlns="http://www.w3.org/2000/svg">
<path d="M166.045 70.403H184.927V19.9787H209.881V2.65674H166.045V70.403Z" fill="white"/>
<path d="M125.557 15.8215C133.026 15.8215 137.48 19.0846 138.709 25.9858H111.053C113.172 19.5722 118.392 15.8215 125.557 15.8215ZM125.36 54.8159C116.255 54.8159 110.578 48.8648 110.059 39.1881H156.264C156.264 39.1881 156.555 35.675 156.555 32.0556C156.555 11.5333 144.484 0 125.557 0C105.562 0 91.6567 14.7588 91.6567 35.7688C91.6567 57.0725 105.37 71.7313 125.36 71.7313C143.892 71.7313 156.357 60.8732 156.746 44.9579H138.215C137.146 51.2215 132.606 54.8346 125.36 54.8346V54.8159Z" fill="white"/>
<path d="M642.925 2.65674V19.9787H662.191V70.403H680.779V19.9787H700.045V2.65674H642.925Z" fill="white"/>
<path d="M57.4985 2.65674L44.4686 44.1601L31.7902 2.65674H10.8959L0 70.403H17.3669L23.9948 28.262L36.7988 70.403H51.7116L64.9675 27.5067L71.3381 70.403H89L78.104 2.65674H57.4985Z" fill="white"/>
<path d="M237.599 55.8745C232.738 55.8745 230.352 53.5279 230.352 50.1049C230.352 46.876 232.04 44.8297 237.281 43.3529L253.843 38.7598V40.0114C253.862 42.1132 253.455 44.1977 252.643 46.1414C251.832 48.0852 250.634 49.8487 249.119 51.3277C247.605 52.8067 245.805 53.9711 243.826 54.7521C241.847 55.5331 239.73 55.9147 237.599 55.8745ZM244.439 0.0187722C224.007 0.0187722 212.402 9.89958 212.897 26.7264H232.738C232.833 19.5864 236.545 16.1697 244.439 16.1697C250.093 16.1697 253.665 18.5164 253.665 22.0394C253.665 24.2922 252.776 25.1682 249.299 26.1444L233.335 30.4497C218.055 34.5609 211.209 40.8186 211.209 51.2876C211.209 63.515 220.238 71.7313 233.531 71.7313C243.849 71.7313 250.594 67.6263 253.963 59.8981V70.1669H272.313V24.6739C272.313 8.11617 261.704 0 244.439 0V0.0187722Z" fill="white"/>
<path d="M573.669 2.65674H552.279L537.205 27.8163H529.475V2.65674H510.089V70.403H529.475V44.4696H537.089L553.281 70.403H575.179L553.789 35.852L573.669 2.65674Z" fill="white"/>
<path d="M396.347 55.8745C391.686 55.8745 389.358 53.5279 389.358 50.1049C389.358 46.876 391.009 44.9174 396.149 43.4531L412.356 38.8599V40.0301C412.356 49.329 405.453 55.8745 396.329 55.8745H396.347ZM403.126 0.0187722C383.132 0.0187722 371.779 9.89958 372.263 26.7264H391.673C391.766 19.5864 395.397 16.1697 403.126 16.1697C408.669 16.1697 412.145 18.5164 412.145 22.0394C412.145 24.2922 411.276 25.1682 407.874 26.1444L392.257 30.4497C377.309 34.5609 370.612 40.8186 370.612 51.2876C370.612 63.515 379.445 71.7313 392.449 71.7313C402.542 71.7313 409.14 67.7264 412.436 59.8981V70.1669H430.388V24.6739C430.388 8.11617 420.009 0 403.126 0V0.0187722Z" fill="white"/>
<path d="M471.241 54.3029C462.965 54.3029 457.962 48.4218 457.962 35.9699C457.962 23.6184 463.063 17.5429 471.432 17.5429C479.321 17.5429 484.034 23.5244 484.034 35.9699C484.034 48.9108 479.512 54.3029 471.235 54.3029H471.241ZM476.435 0C467.543 0 460.885 4.60834 458.251 11.9566V1.66777H439.687V89H458.251V60.1965C461.002 67.482 467.623 71.8458 476.435 71.8458C491.818 71.8458 502.119 59.6886 502.119 35.9699C502.119 12.2512 491.825 0 476.435 0Z" fill="white"/>
<path d="M333.801 2.65674L320.77 44.1601L308.091 2.65674H287.189L276.298 70.403H293.667L300.289 28.262L313.093 70.403H328.007L341.27 27.5067L347.635 70.403H365.298L354.408 2.65674H333.801Z" fill="white"/>
<path d="M606.417 15.8215C613.885 15.8215 618.339 19.0846 619.575 25.9858H591.913C594.032 19.5722 599.251 15.8215 606.417 15.8215ZM606.225 54.8159C597.207 54.8159 591.45 48.8648 590.924 39.1881H637.13C637.13 39.1881 637.414 35.675 637.414 32.0556C637.414 11.5333 625.344 0 606.417 0C586.427 0 572.522 14.7588 572.522 35.7688C572.522 57.0725 586.236 71.7313 606.225 71.7313C624.757 71.7313 637.223 60.8732 637.612 44.9579H619.08C618.005 51.2215 613.465 54.8346 606.225 54.8346V54.8159Z" fill="white"/>
</svg>
