<svg width="158" height="20" viewBox="0 0 158 20" fill="none" xmlns="http://www.w3.org/2000/svg">
<path d="M37.3135 15.8209H41.5567V4.48958H47.1642V0.597015H37.3135V15.8209Z" fill="#FEE2C6"/>
<path d="M28.2153 3.5554C29.8936 3.5554 30.8944 4.28868 31.1707 5.83951H24.9559C25.4321 4.39824 26.6051 3.5554 28.2153 3.5554ZM28.1709 12.3182C26.1248 12.3182 24.8491 10.9809 24.7325 8.80632H35.1158C35.1158 8.80632 35.181 8.01685 35.181 7.20351C35.181 2.59174 32.4686 0 28.2153 0C23.7219 0 20.5972 3.31659 20.5972 8.03792C20.5972 12.8253 23.6789 16.1194 28.1709 16.1194C32.3353 16.1194 35.1366 13.6794 35.224 10.1029H31.0596C30.8195 11.5104 29.7992 12.3224 28.1709 12.3224V12.3182Z" fill="#FEE2C6"/>
<path d="M144.478 0.597015V4.48958H148.807V15.8209H152.984V4.48958H157.313V0.597015H144.478Z" fill="#FEE2C6"/>
<path d="M12.921 0.597015L9.99294 9.9236L7.14387 0.597015H2.44852L0 15.8209H3.90268L5.3921 6.35101L8.26939 15.8209H11.6206L14.5994 6.18129L16.031 15.8209H20L17.5515 0.597015H12.921Z" fill="#FEE2C6"/>
<path d="M53.3927 12.5561C52.3005 12.5561 51.7643 12.0287 51.7643 11.2595C51.7643 10.5339 52.1436 10.0741 53.3214 9.74223L57.043 8.71008V8.99132C57.0474 9.46365 56.9558 9.93207 56.7735 10.3689C56.5912 10.8057 56.3219 11.202 55.9816 11.5343C55.6412 11.8667 55.2368 12.1283 54.7921 12.3038C54.3474 12.4793 53.8716 12.5651 53.3927 12.5561ZM54.9298 0.00421846C50.3384 0.00421846 47.7305 2.22462 47.8417 6.00593H52.3004C52.3218 4.40144 53.156 3.63365 54.9298 3.63365C56.2003 3.63365 57.003 4.16098 57.003 4.95268C57.003 5.45891 56.8034 5.65578 56.022 5.87515L52.4345 6.84262C49.0009 7.7665 47.4624 9.17271 47.4624 11.5253C47.4624 14.273 49.4914 16.1194 52.4787 16.1194C54.7972 16.1194 56.3129 15.1969 57.0701 13.4603V15.7678H61.1937V5.54469C61.1937 1.82386 58.8097 0 54.9298 0V0.00421846Z" fill="#FEE2C6"/>
<path d="M128.914 0.597015H124.107L120.72 6.25085H118.983V0.597015H114.626V15.8209H118.983V9.99316H120.694L124.332 15.8209H129.253L124.447 8.05662L128.914 0.597015Z" fill="#FEE2C6"/>
<path d="M89.0669 12.5561C88.0194 12.5561 87.4963 12.0287 87.4963 11.2595C87.4963 10.5339 87.8673 10.0938 89.0223 9.76473L92.6644 8.73257V8.99553C92.6644 11.0852 91.1132 12.5561 89.0627 12.5561H89.0669ZM90.5901 0.00421846C86.0972 0.00421846 83.5459 2.22462 83.6547 6.00593H88.0166C88.0375 4.40144 88.8535 3.63365 90.5901 3.63365C91.8358 3.63365 92.6169 4.16098 92.6169 4.95268C92.6169 5.45891 92.4216 5.65578 91.6572 5.87515L88.1477 6.84262C84.7888 7.7665 83.2837 9.17271 83.2837 11.5253C83.2837 14.273 85.2686 16.1194 88.1909 16.1194C90.459 16.1194 91.9418 15.2194 92.6825 13.4603V15.7678H96.7165V5.54469C96.7165 1.82386 94.3843 0 90.5901 0V0.00421846Z" fill="#FEE2C6"/>
<path d="M105.897 12.2029C104.037 12.2029 102.913 10.8813 102.913 8.08313C102.913 5.30751 104.059 3.94224 105.94 3.94224C107.713 3.94224 108.772 5.28637 108.772 8.08313C108.772 10.9912 107.756 12.2029 105.896 12.2029H105.897ZM107.064 0C105.066 0 103.57 1.03558 102.978 2.68687V0.37478H98.8062V20H102.978V13.5273C103.596 15.1645 105.084 16.1451 107.064 16.1451C110.521 16.1451 112.836 13.4132 112.836 8.08313C112.836 2.75309 110.523 0 107.064 0Z" fill="#FEE2C6"/>
<path d="M75.0113 0.597015L72.083 9.9236L69.2337 0.597015H64.5366L62.0894 15.8209H65.9923L67.4804 6.35101L70.3579 15.8209H73.7094L76.6898 6.18129L78.1201 15.8209H82.0894L79.6421 0.597015H75.0113Z" fill="#FEE2C6"/>
<path d="M136.273 3.5554C137.952 3.5554 138.953 4.28868 139.23 5.83951H133.014C133.49 4.39824 134.663 3.5554 136.273 3.5554ZM136.23 12.3182C134.204 12.3182 132.91 10.9809 132.792 8.80632H143.175C143.175 8.80632 143.239 8.01685 143.239 7.20351C143.239 2.59174 140.527 0 136.273 0C131.781 0 128.657 3.31659 128.657 8.03792C128.657 12.8253 131.738 16.1194 136.23 16.1194C140.395 16.1194 143.196 13.6794 143.284 10.1029H139.119C138.878 11.5104 137.857 12.3224 136.23 12.3224V12.3182Z" fill="#FEE2C6"/>
</svg>
